<?xml version="1.0" encoding="UTF-8"?>
<svg xmlns="http://www.w3.org/2000/svg" version="1.1" viewBox="0 0 38.7 27.1">
  <defs>
    <style>
      .cls-1 {
        fill: #003129;
      }

      .cls-2 {
        fill: #f9f8d8;
      }
    </style>
  </defs>
  <!-- Generator: Adobe Illustrator 28.7.1, SVG Export Plug-In . SVG Version: 1.2.0 Build 142)  -->
  <g>
    <g id="Laag_1">
      <path class="cls-1" d="M37.5,0c.7,0,1.2.6,1.2,1.2v1.6c0,.7-.5,1.2-1.2,1.2H8.7c-1.8,0-3.1.2-3.9,1.1-.8.7-1.1,1.7-1.1,2.7s.3,2,1.1,2.7c.8.8,2.1,1.1,3.9,1.1h28.8c.7,0,1.2.6,1.2,1.2v1.6c0,.6-.5,1.2-1.2,1.2H8.7c-1.8,0-3.1.2-3.9,1.1-.8.7-1.1,1.7-1.1,2.7s.3,2,1.1,2.7c.8.8,2.1,1.1,3.9,1.1h28.8c.7,0,1.2.6,1.2,1.2v1.6c0,.6-.5,1.2-1.2,1.2H8.6c-3.2,0-5.1-1.1-6.4-2.3-1.4-1.4-2.2-3.3-2.2-5s.4-3.6,1.6-5.2l.3-.4c.2-.3.3-.5.3-.7s0-.5-.3-.7l-.3-.3c-1.4-1.5-1.6-3.4-1.6-5.2S.7,3.6,2.2,2.2C3.5,1,5.3,0,8.6,0h29Z"/>
      <g>
        <path class="cls-2" d="M35.6,4c-.2.2-1.8,1.6-1.7,3.9,0,2.2,1.6,3.5,1.8,3.7-8.6,0-27.4,0-28,0-.2,0-.3,0-.3,0-.3,0-.6,0-.9-.2-1-.3-1.7-.8-1.7-.8-1.2-1-1.2-2.6-1.2-2.8,0-.4,0-1.7,1.3-2.7,1.1-.9,2.3-1,2.7-1.1,9.3,0,18.6,0,27.9,0Z"/>
        <path class="cls-2" d="M35.6,15.6c-.2.2-1.7,1.6-1.6,3.9,0,2.2,1.5,3.5,1.8,3.7-8.6,0-27.4,0-28,0-.2,0-.3,0-.3,0-.3,0-.6,0-.9-.2-1-.3-1.7-.8-1.7-.8-1.2-1-1.2-2.5-1.2-2.8,0-.4,0-1.7,1.3-2.7,1.1-.9,2.3-1,2.7-1.1h27.9Z"/>
      </g>
    </g>
  </g>
</svg>