<?xml version="1.0" encoding="UTF-8"?>
<svg xmlns="http://www.w3.org/2000/svg" version="1.1" viewBox="0 0 374.9 276.6">
  <defs>
    <style>
      .cls-1 {
        fill: none;
      }

      .cls-2 {
        fill: #741e22;
      }

      .cls-3 {
        fill: #6c649c;
      }

      .cls-4 {
        fill: #003129;
      }

      .cls-5 {
        fill: #022c38;
      }

      .cls-6 {
        fill: #dacebd;
      }

      .cls-7 {
        fill: #cf6750;
      }

      .cls-8 {
        fill: #c8533c;
      }

      .cls-9 {
        fill: #bb513f;
      }

      .cls-10 {
        fill: #feefd9;
      }

      .cls-11 {
        fill: #4b1214;
      }

      .cls-12 {
        fill: #812529;
      }

      .cls-13 {
        fill: #e27b5f;
      }

      .cls-14 {
        fill: #ebd693;
      }

      .cls-15 {
        fill: #c2b39c;
      }
    </style>
  </defs>
  <!-- Generator: Adobe Illustrator 28.7.1, SVG Export Plug-In . SVG Version: 1.2.0 Build 142)  -->
  <g>
    <g id="Laag_1">
      <rect class="cls-14" x="33.9" width="340.9" height="276.6"/>
      <path class="cls-3" d="M-35.4,38.9h3.8v.6h-3.8c0-.2,0-.4,0-.6h0Z"/>
      <path class="cls-4" d="M85.1,116c-.2,1.4-.3,2.8-1.5,2.5-2.7-.9-2.7-3.7-3.5-5.9-.4-.9.4-2.3,1.5-1.9,2.8.8,2.7,3.6,3.5,5.3h0Z"/>
      <path class="cls-13" d="M157.5,50.8c-.2,1.2-.2,55.4,0,173.3-3.7-.4-7.5-.9-11.2-1.3-3.4-.4-6.7-.8-10.1-1.2-16.9-2-33.8-4.1-50.6-6.1-.2-14.4-.3-28.8-.5-43.1,0-1.7,0-3.3,0-5,0-.6,0-1.1,0-1.7,0-1.6,0-3.2,0-4.8-.2-18.2-.4-36.5-.6-54.7,10.7-17.8,21.3-35.7,32-53.5,24.2-2.2,40.8-3.2,41.1-1.9h0c0,0,0,0,0,0Z"/>
      <path class="cls-8" d="M322.5,157.8c-.1,10.9-.2,21.8-.3,32.7v5c0,2.5-.1,4.9-.1,7.4h0c0,1.6,0,3.3,0,5,0,2.9,0,5.8,0,8.7-36.2,1.6-72.4,3.3-108.6,4.9-3.4.2-6.8.3-10.2.5h-2.4c-3.4.3-6.8.4-10.1.6-11.5.5-23.1,1.1-34.6,1.6-.4-38.9-.8-77.8-1.2-116.7,56,10.4,112,20.9,168,31.4,0,4.7,0,9.3-.1,14,0,1.7,0,3.3,0,5h0Z"/>
      <path class="cls-2" d="M113.9,51.9c15.6,29,31.1,57.9,46.7,86.9h189.5c-20.2-27.6-40.3-55.1-60.5-82.7-59.8-3.5-119.5-7-179.3-10.5"/>
      <path class="cls-11" d="M110.6,45.6c-.7,0-1.9-.1-3.1.4-2.7,1.2-3.7,4.3-3.9,5-1.6,4.4-18.3,38-42.4,85.7,7.9,1,15.7,1.9,23.6,2.9,0-1.4,0-2.8,0-4.2-5.7-1-11.4-2-17-3,14-26.3,28-52.6,41.9-78.9.9-.2,1.6-.3,2.2-.2,3.6.4,5.6,4.9,5.8,4.8,0,0-1.1-2.4-7-12.5h0Z"/>
      <path class="cls-15" d="M85.1,115.5c-3.5,6.2-7.1,12.5-10.6,18.7,3.4.6,6.8,1.3,10.2,1.9.1-6.9.3-13.8.4-20.7h0Z"/>
      <path class="cls-10" d="M112.4,61.7c-3,12-8.2,27.4-17.5,43.9-6.6,11.7-13.7,21.3-20.1,28.7-2.4-.6-4.8-1.2-7.2-1.8,13.7-26.2,27.4-52.3,41.1-78.5.7-.7,1.8-1.8,3.2-1.7,2,0,3.4,2.2,4.1,3.2,2.6,4.1,20.7,37.7,44.9,83.4-2.7-.5-5.4-1-8.1-1.5-7.7-8.5-17-20.5-25.2-36.1-7.9-14.9-12.4-28.7-15.2-39.5h0Z"/>
      <path class="cls-12" d="M65.7,137.3c8.6-16.5,17.2-33.1,25.8-49.6,6.2-11.9,12.4-23.7,18.6-35.6.6-1.4,1.1-2.8,1.7-4.2-.4-.7-.8-1.5-1.2-2.2-.5,0-1.2-.1-2,0-2.4.5-3.7,2.5-4,3-.4,1-1.1,2.5-2,4.3-8.6,18.7-15.1,31.4-26.6,54.1-3.1,6.2-8.3,16.5-14.9,29.6,1.5.2,3,.4,4.5.6Z"/>
      <path class="cls-6" d="M81.1,113.9c4.2-7.1,8.5-14.8,12.8-23,3.2-6.3,6.2-12.4,8.8-18.3-.9,4.7-2.5,10.2-4.9,16.1-5,11.9-11.7,20.2-16.7,25.3h0Z"/>
      <path class="cls-6" d="M120.5,73.1c3.8,7.4,8,15.1,12.7,23,3.6,6.1,7.2,11.8,10.8,17.2-3.5-3.3-7.3-7.5-11-12.7-7.5-10.6-10.9-20.7-12.6-27.6h0Z"/>
      <g>
        <path class="cls-7" d="M102.5,152.2c-1.4-.1-2.9-.1-4.3-.4-.6-.1-.8-.4-.9-1-.1-1,0-1.9.3-2.8.1-.6.5-.9,1.1-.9,2.4,0,4.8,0,7.2.5,1.3.2,1.6.9,1.5,2.7-.1,1.8-.4,2.1-2.3,2-.2,0-.4,0-.5,0-.7,0-1.5,0-2.2-.1h0Z"/>
        <path class="cls-7" d="M115.1,153c-1.4-.1-2.9-.1-4.3-.4-.5-.1-.7-.3-.8-.9-.2-1,0-2,.3-3,.1-.5.5-.7,1-.7,2.5-.1,5,0,7.5.5.8.1,1.2.7,1.3,1.5.3,2.8-.2,3.3-3,3.2-.6,0-1.3,0-1.9-.1h0Z"/>
        <path class="cls-7" d="M96.7,140.4c1,0,2,0,3,.2,2,.3,2.3.8,2.2,2.8,0,1.7-.4,2.1-2.1,2.1-2.4,0-4.8-.2-7.1-.6-.6,0-.9-.4-.9-1h0c.1-4.1.2-3.8,3.5-3.7.5,0,.9,0,1.4,0h0c0,0,0,0,0,0Z"/>
        <path class="cls-7" d="M109.3,141.1c1.4.1,2.7.2,4,.4.9.2,1.2.7,1.3,1.5.2,2.9-.1,3.3-3,3.2-1.9,0-3.9-.2-5.8-.5-.8-.1-1.2-.4-1.3-1.3,0-.9.1-1.7.3-2.5,0-.6.4-.9,1.1-.9,1.2,0,2.4,0,3.5,0h0Z"/>
      </g>
      <g>
        <path class="cls-7" d="M130.1,178.9c-1.4-.1-2.9-.1-4.3-.4-.6-.1-.8-.4-.9-1-.1-1,0-1.9.3-2.8.1-.6.5-.9,1.1-.9,2.4,0,4.8,0,7.2.5,1.3.2,1.6.9,1.5,2.7-.1,1.8-.4,2.1-2.2,2-.2,0-.4,0-.5,0-.7,0-1.5,0-2.2-.1h0Z"/>
        <path class="cls-7" d="M142.7,179.7c-1.4-.1-2.9-.1-4.3-.4-.5-.1-.7-.3-.8-.9-.2-1,0-2,.3-3,.1-.5.5-.7,1-.7,2.5-.1,5,0,7.5.5.8.1,1.2.7,1.3,1.5.3,2.8-.2,3.3-3,3.2-.6,0-1.3,0-1.9-.1Z"/>
        <path class="cls-7" d="M124.3,167.1c1,0,2,0,3,.2,2,.3,2.3.8,2.2,2.8,0,1.7-.4,2.1-2.1,2.1-2.4,0-4.8-.2-7.1-.6-.6,0-.9-.4-.9-1h0c.1-4.1.2-3.8,3.5-3.7.5,0,.9,0,1.4,0h0c0,0,0,0,0,0Z"/>
        <path class="cls-7" d="M136.8,167.7c1.4.1,2.7.2,4,.4.9.2,1.2.7,1.3,1.5.2,2.9-.1,3.3-3,3.2-1.9,0-3.9-.2-5.8-.5-.8-.1-1.2-.4-1.3-1.3,0-.9.1-1.7.3-2.5,0-.6.4-.9,1.1-.9,1.2,0,2.4,0,3.5,0h0Z"/>
      </g>
      <g>
        <path class="cls-7" d="M102.5,204.2c-1.4-.1-2.9-.1-4.3-.4-.6-.1-.8-.4-.9-1-.1-1,0-1.9.3-2.8.1-.6.5-.9,1.1-.9,2.4,0,4.8,0,7.2.5,1.3.2,1.6.9,1.5,2.7-.1,1.8-.4,2.1-2.3,2-.2,0-.4,0-.5,0-.7,0-1.5,0-2.2-.1h0Z"/>
        <path class="cls-7" d="M115.1,205c-1.4-.1-2.9-.1-4.3-.4-.5-.1-.7-.3-.8-.9-.2-1,0-2,.3-3,.1-.5.5-.7,1-.7,2.5-.1,5,0,7.5.5.8.1,1.2.7,1.3,1.5.3,2.8-.2,3.3-3,3.2-.6,0-1.3,0-1.9-.1Z"/>
        <path class="cls-7" d="M96.8,192.3c1,0,2,0,3,.2,2,.3,2.3.8,2.2,2.8,0,1.7-.4,2.1-2.1,2.1-2.4,0-4.8-.2-7.1-.6-.6,0-.9-.4-.9-1h0c.1-4.1.2-3.8,3.5-3.7.5,0,.9,0,1.4,0h0c0,0,0,0,0,0Z"/>
        <path class="cls-7" d="M109.3,193c1.4.1,2.7.2,4,.4.9.2,1.2.7,1.3,1.5.2,2.9-.1,3.3-3,3.2-1.9,0-3.9-.2-5.8-.5-.8-.1-1.2-.4-1.3-1.3,0-.9.1-1.7.3-2.5,0-.6.4-.9,1.1-.9,1.2,0,2.4,0,3.5,0h0Z"/>
      </g>
      <g>
        <path class="cls-7" d="M111.5,125.5c-1.4-.1-2.9-.1-4.3-.4-.6-.1-.8-.4-.9-1-.1-1,0-1.9.3-2.8.1-.6.5-.9,1.1-.9,2.4,0,4.8,0,7.2.5,1.3.2,1.6.9,1.5,2.7-.1,1.8-.4,2.1-2.3,2-.2,0-.4,0-.5,0-.7,0-1.5,0-2.2-.1h0Z"/>
        <path class="cls-7" d="M124.1,126.3c-1.4-.1-2.9-.1-4.3-.4-.5-.1-.7-.3-.8-.9-.2-1,0-2,.3-3,.1-.5.5-.7,1-.7,2.5-.1,5,0,7.5.5.8.1,1.2.7,1.3,1.5.3,2.8-.2,3.3-3,3.2-.6,0-1.3,0-1.9-.1h0Z"/>
        <path class="cls-7" d="M105.7,113.6c1,0,2,0,3,.2,2,.3,2.3.8,2.2,2.8,0,1.7-.4,2.1-2.1,2.1-2.4,0-4.8-.2-7.1-.6-.6,0-.9-.4-.9-1h0c.1-4.1.2-3.8,3.5-3.7.5,0,.9,0,1.4,0h0c0,0,0,0,0,0Z"/>
        <path class="cls-7" d="M118.3,114.3c1.4.1,2.7.2,4,.4.9.2,1.2.7,1.3,1.5.2,2.9-.1,3.3-3,3.2-1.9,0-3.9-.2-5.8-.5-.8-.1-1.2-.4-1.3-1.3,0-.9.1-1.7.3-2.5,0-.6.4-.9,1.1-.9,1.2,0,2.4,0,3.5,0h0Z"/>
      </g>
      <path class="cls-5" d="M197.4,157.4c8.1,0,14,0,19.9,0,2.6,0,5.2.2,7.8.5,1.5.2,2.2.7,2.1,1.7-.2,1.5-.2,3-.2,4.5-.1,3.1-.2,6.1,0,9.2.1,2.9,0,5.8,0,8.6,0,1.6,0,3.2,0,4.8,0,2.2-1.6,3.2-5.9,3.1-6.3,0-12.5-.2-18.8-.2-5.4,0-10.8,0-16.2.2-1.5,0-2.9,0-4.4,0-2.5-.2-3.8-.9-4-2.3-.1-1.2.2-2.3.2-3.5,0-3.9-.1-7.9,0-11.8.2-4.4,0-8.7,0-13.1,0-1.2.7-1.7,3-1.7,1.5,0,3,0,4.5,0,4.7,0,9.3,0,11.9-.1h0Z"/>
      <path class="cls-10" d="M173.7,157l.6,33.7,53.2-1-.6-33.7-53.2,1ZM222.3,158.9c0,.3,0,.6,0,.9,0,.4,0,.7,0,1.1h0c0,1.2,0,2.2,0,3.2,0,.4,0,.7,0,1,0,.5,0,1,0,1.5,0,.8,0,1.6,0,2.4s0,1.5,0,2.2c0,.6-.2,1-.9,1.2h0c-.3,0-.7.2-1.1.2-.1,0-.3,0-.5,0h-.6c-1.2,0-2.4,0-3.6,0h-.3c-.6,0-1.2,0-1.8,0h-.6c-.4,0-.8,0-1.1,0h-.4c-.4,0-.8,0-1.2,0h0c-1,0-2.1,0-3.1,0h0c-.7,0-1.4,0-2.1,0-.6,0-1.2,0-1.9,0-.7,0-1.2-.2-1.5-.5-.1-.1-.2-.3-.2-.5,0-.5,0-1,0-1.6,0-1.8-.1-3.5,0-5.3,0-2,0-4-.1-5.9,0-.6.3-.8,1.3-.8.6,0,1.3,0,1.9,0,2,0,4-.1,5.1-.1,3.4,0,6-.1,8.5-.1,1.1,0,2.2,0,3.3.2.1,0,.3,0,.4,0h0c.2,0,.3.1.4.2.1.1.2.3.2.5h0ZM198.7,159.3c0,0,0,.1,0,.2h0c0,.6,0,1.3,0,1.9,0,1.1,0,2.3,0,3.4,0,.3,0,.5,0,.8,0,.9,0,1.7,0,2.6s0,.6,0,0v1.3c0,.7,0,1.5,0,2.2,0,.6-.2,1-.9,1.2,0,0,0,0,0,0h0c-.4.1-.9.2-1.6.2h-1.8c-1.5,0-2.9,0-4.4,0-.6,0-1.2,0-1.8,0-.3,0-.6,0-.9,0-.2,0-.5,0-.7,0-.9,0-1.8,0-2.6,0s-1.7,0-2.6,0h0c-.6,0-1.2,0-1.8,0-.7,0-1.2-.2-1.5-.5h0c-.1-.1-.2-.3-.2-.5,0-.5,0-1,0-1.6,0-1.8-.1-3.5,0-5.3,0-1.8,0-3.7,0-5.5,0-.1,0-.3,0-.4,0-.6.3-.8,1.3-.8.6,0,1.3,0,1.9,0,2,0,4-.1,5.1-.1,3.4,0,6-.1,8.5-.1,1.1,0,2.2,0,3.3.2.1,0,.3,0,.4,0,.2,0,.3.1.4.2.1.1.2.3.2.5h0ZM199.5,184.9c0,.7,0,1.5,0,2.2,0,.3,0,.5-.1.7h0c-.3.5-1,.8-2.3.8-2.7,0-5.3,0-8,0-2.3,0-4.6.1-6.9.2-.6,0-1.2,0-1.9,0-.8,0-1.3-.2-1.5-.5-.1-.1-.2-.3-.2-.5,0-.5,0-1,0-1.6,0-1.8-.1-3.5,0-5.3,0-2,0-4-.1-5.9,0-.2,0-.4.2-.5.2-.2.5-.3,1.1-.3.6,0,1.3,0,1.9,0,2,0,4-.1,5.1-.1,3.4,0,6-.1,8.5-.1,1.1,0,2.2,0,3.3.2.1,0,.3,0,.4,0h0c.4.1.6.3.5.7,0,.7,0,1.4,0,2,0,1.4,0,2.8,0,4.2,0,.3,0,.5,0,.8h0c0,1,0,2.1,0,3.1h0ZM223.1,184.5c0,.7,0,1.5,0,2.2,0,.3,0,.5-.1.7-.3.5-1,.8-2.3.8-2.7,0-5.3,0-8,0-2.3,0-4.6.1-6.9.2-.6,0-1.2,0-1.9,0-.8,0-1.3-.2-1.5-.5-.1-.1-.2-.3-.2-.5,0-.5,0-1,0-1.6,0-1.8-.1-3.5,0-5.3,0-2,0-4-.1-5.9,0-.2,0-.4.2-.5h0c.2-.2.5-.3,1.1-.3.6,0,1.3,0,1.9,0,2,0,4-.1,5.1-.1,3.4,0,6-.1,8.5-.1,1.1,0,2.2,0,3.3.2.1,0,.3,0,.4,0,.4.1.6.3.5.7,0,.4,0,.9,0,1.3v.7c0,.6,0,1.2,0,1.8,0,.8,0,1.5,0,2.3,0,1.3,0,2.6,0,3.9h0Z"/>
      <path class="cls-5" d="M266,156.4c8.1-.1,14-.3,19.9-.3,2.6,0,5.2,0,7.8.3,1.5.1,2.2.6,2.1,1.7-.2,1.5,0,3-.1,4.5,0,3.1,0,6.2.2,9.2.2,2.9.2,5.8.1,8.6,0,1.6,0,3.2,0,4.8,0,2.2-1.6,3.2-5.8,3.2-6.3,0-12.5,0-18.8.1-5.4,0-10.8.3-16.2.4-1.4,0-2.9.1-4.4,0-2.5-.1-3.9-.8-4-2.2-.1-1.2.2-2.3.1-3.5,0-3.9-.3-7.9-.2-11.8,0-4.4,0-8.7-.2-13.1,0-1.2.7-1.7,3-1.8,1.5,0,3,0,4.5,0,4.7,0,9.3-.3,11.9-.3h0Z"/>
      <path class="cls-10" d="M245.7,155.9l.6,33.4,53.2-1-.6-33.4-53.2,1ZM294.3,157.8c0,.3,0,.6,0,.9,0,.4,0,.7,0,1h0c0,1.2,0,2.2,0,3.2,0,.3,0,.7,0,1,0,.5,0,1,0,1.5,0,.8,0,1.6,0,2.4s0,1.4,0,2.2c0,.6-.2,1-.9,1.2h0c-.3,0-.7.2-1.1.2-.1,0-.3,0-.5,0h-.6c-1.2,0-2.4,0-3.6,0h-.3c-.6,0-1.2,0-1.8,0h-.6c-.4,0-.8,0-1.1,0h-.4c-.4,0-.8,0-1.2,0h0c-1,0-2.1,0-3.1,0h0c-.7,0-1.4,0-2.1,0-.6,0-1.2,0-1.9,0-.7,0-1.2-.2-1.5-.5-.1-.1-.2-.3-.2-.5,0-.5,0-1,0-1.6,0-1.8-.1-3.5,0-5.3,0-2,0-3.9-.1-5.9,0-.5.3-.7,1.3-.8.6,0,1.3,0,1.9,0,2,0,4-.1,5.1-.1,3.4,0,6-.1,8.5-.1,1.1,0,2.2,0,3.3.2.1,0,.3,0,.4,0h0c.2,0,.3.1.4.2s.2.3.2.5h0ZM270.7,158.2c0,0,0,.1,0,.2h0c0,.6,0,1.2,0,1.9,0,1.1,0,2.2,0,3.4,0,.3,0,.5,0,.8,0,.8,0,1.7,0,2.5s0,.6,0,0v1.3c0,.7,0,1.4,0,2.2,0,.6-.2,1-.9,1.2,0,0,0,0,0,0h0c-.4.1-.9.2-1.6.2h-1.8c-1.5,0-2.9,0-4.4,0-.6,0-1.2,0-1.8,0-.3,0-.6,0-.9,0-.2,0-.5,0-.7,0-.9,0-1.8,0-2.6,0s-1.7,0-2.6,0h0c-.6,0-1.2,0-1.8,0-.7,0-1.2-.2-1.5-.5h0c-.1-.1-.2-.3-.2-.5,0-.5,0-1,0-1.6,0-1.8-.1-3.5,0-5.3,0-1.8,0-3.6,0-5.4,0-.1,0-.3,0-.4,0-.5.3-.7,1.3-.8.6,0,1.3,0,1.9,0,2,0,4-.1,5.1-.1,3.4,0,6-.1,8.5-.1,1.1,0,2.2,0,3.3.2.1,0,.3,0,.4,0,.2,0,.3.1.4.2s.2.3.2.5h0ZM271.4,183.6c0,.7,0,1.4,0,2.2,0,.3,0,.5-.1.7h0c-.3.5-1,.7-2.3.7-2.7,0-5.3,0-8,0-2.3,0-4.6.1-6.9.2-.6,0-1.2,0-1.9,0-.8,0-1.3-.2-1.5-.5-.1-.1-.2-.3-.2-.5,0-.5,0-1,0-1.6,0-1.8-.1-3.5,0-5.3,0-2,0-3.9-.1-5.9,0-.2,0-.4.2-.5.2-.2.5-.3,1.1-.3.6,0,1.3,0,1.9,0,2,0,4-.1,5.1-.1,3.4,0,6-.1,8.5-.1,1.1,0,2.2,0,3.3.2.1,0,.3,0,.4,0h0c.4.1.6.3.5.7,0,.7,0,1.4,0,2,0,1.4,0,2.7,0,4.1,0,.3,0,.5,0,.8h0c0,1,0,2,0,3.1h0ZM295.1,183.1c0,.7,0,1.4,0,2.2,0,.3,0,.5-.1.7-.3.5-1,.7-2.3.7-2.7,0-5.3,0-8,0-2.3,0-4.6.1-6.9.2-.6,0-1.2,0-1.9,0-.8,0-1.3-.2-1.5-.5-.1-.1-.2-.3-.2-.5,0-.5,0-1,0-1.6,0-1.8-.1-3.5,0-5.3,0-2,0-3.9-.1-5.9,0-.2,0-.4.2-.5h0c.2-.2.5-.3,1.1-.3.6,0,1.3,0,1.9,0,2,0,4-.1,5.1-.1,3.4,0,6-.1,8.5-.1,1.1,0,2.2,0,3.3.2.1,0,.3,0,.4,0,.4.1.6.3.5.7,0,.4,0,.9,0,1.3v.7c0,.6,0,1.2,0,1.8,0,.8,0,1.5,0,2.3,0,1.3,0,2.6,0,3.9h0Z"/>
      <g>
        <path class="cls-7" d="M304.5,214.6c-1.4,0-2.9.1-4.3,0-.6,0-.8-.4-1-.9-.2-1-.1-1.9,0-2.8,0-.6.4-.9,1.1-1,2.4-.3,4.8-.4,7.2-.1,1.3.1,1.7.8,1.7,2.6,0,1.8-.3,2.1-2.1,2.2-.2,0-.4,0-.5,0-.7,0-1.5,0-2.2,0h0Z"/>
        <path class="cls-7" d="M317.2,214.3c-1.4,0-2.9.1-4.3,0-.5,0-.8-.3-.9-.8-.3-1-.1-2,0-3,0-.5.4-.8.9-.8,2.5-.3,5-.4,7.5-.1.9,0,1.3.6,1.4,1.4.5,2.8,0,3.3-2.7,3.4-.6,0-1.3,0-1.9,0h0Z"/>
        <path class="cls-7" d="M297.8,203.3c1,0,2-.1,3.1,0,2,.1,2.4.6,2.5,2.6,0,1.7-.2,2.1-1.9,2.2-2.4.2-4.8.2-7.2,0-.6,0-.9-.3-1-.9,0,0,0,0,0-.1-.2-4-.1-3.6,3.2-3.9.5,0,.9,0,1.4,0h0c0,0,0,0,0,0Z"/>
        <path class="cls-7" d="M310.4,202.9c1.4,0,2.7,0,4,.1.9.1,1.3.6,1.4,1.4.4,2.9.2,3.3-2.8,3.4-1.9,0-3.9.1-5.8,0-.8,0-1.2-.3-1.4-1.2-.1-.9,0-1.7,0-2.5,0-.6.3-.9,1-1,1.2-.2,2.4-.2,3.4-.2h0Z"/>
      </g>
      <g>
        <path class="cls-7" d="M304.3,202.3c-1.4,0-2.9.1-4.3,0-.6,0-.8-.4-1-.9-.2-1-.1-1.9,0-2.8,0-.6.4-.9,1.1-1,2.4-.3,4.8-.4,7.2-.1,1.3.1,1.7.8,1.7,2.6,0,1.8-.3,2.1-2.1,2.2-.2,0-.4,0-.5,0-.7,0-1.5,0-2.2,0h0Z"/>
        <path class="cls-7" d="M316.9,202c-1.4,0-2.9.1-4.3,0-.5,0-.8-.3-.9-.8-.3-1-.1-2,0-3,0-.5.4-.8.9-.8,2.5-.3,5-.4,7.5-.1.9,0,1.3.6,1.4,1.4.5,2.8,0,3.3-2.7,3.4-.6,0-1.3,0-1.9,0h0Z"/>
        <path class="cls-7" d="M297.6,190.9c1,0,2-.1,3.1,0,2,.1,2.4.6,2.5,2.6,0,1.7-.2,2.1-1.9,2.2-2.4.2-4.8.2-7.2,0-.6,0-.9-.3-1-.9,0,0,0,0,0-.1-.2-4-.1-3.6,3.2-3.9.5,0,.9,0,1.4,0h0c0,0,0,0,0,0Z"/>
        <path class="cls-7" d="M310.1,190.5c1.4,0,2.7,0,4,.1.9.1,1.3.6,1.4,1.4.4,2.9.2,3.3-2.8,3.4-1.9,0-3.9.1-5.8,0-.8,0-1.2-.3-1.4-1.2-.1-.9,0-1.7,0-2.5,0-.6.3-.9,1-1,1.2-.2,2.4-.2,3.4-.2h0Z"/>
      </g>
      <path class="cls-1" d="M302,178.1c0,1.7,0,3.4,0,5"/>
      <g>
        <path class="cls-7" d="M189.1,212.8c1,0,2-.1,3.1,0,2,.1,2.4.6,2.5,2.6,0,1.7-.2,2.1-1.9,2.2-2.4.2-4.8.2-7.2,0-.6,0-.9-.3-1-.9,0,0,0,0,0-.1-.2-4-.1-3.6,3.2-3.9.5,0,.9,0,1.4,0h0c0,0,0,0,0,0Z"/>
        <path class="cls-7" d="M201.7,212.4c1.4,0,2.7,0,4,.1.9.1,1.3.6,1.4,1.4.4,2.9.2,3.3-2.8,3.4-1.9,0-3.9.1-5.8,0-.8,0-1.2-.3-1.4-1.2-.1-.9,0-1.7,0-2.5,0-.6.3-.9,1-1,1.2-.2,2.4-.2,3.4-.2h0Z"/>
      </g>
      <g>
        <path class="cls-7" d="M195.6,211.8c-1.4,0-2.9.1-4.3,0-.6,0-.8-.4-1-.9-.2-1-.1-1.9,0-2.8,0-.6.4-.9,1.1-1,2.4-.3,4.8-.4,7.2-.1,1.3.1,1.7.8,1.7,2.6,0,1.8-.3,2.1-2.1,2.2-.2,0-.4,0-.5,0-.7,0-1.5,0-2.2,0h0Z"/>
        <path class="cls-7" d="M208.3,211.5c-1.4,0-2.9.1-4.3,0-.5,0-.8-.3-.9-.8-.3-1-.1-2,0-3,0-.5.4-.8.9-.8,2.5-.3,5-.4,7.5-.1.9,0,1.3.6,1.4,1.4.5,2.8,0,3.3-2.7,3.4-.6,0-1.3,0-1.9,0h0Z"/>
        <path class="cls-7" d="M188.9,200.4c1,0,2-.1,3.1,0,2,.1,2.4.6,2.5,2.6,0,1.7-.2,2.1-1.9,2.2-2.4.2-4.8.2-7.2,0-.6,0-.9-.3-1-.9,0,0,0,0,0-.1-.2-4-.1-3.6,3.2-3.9.5,0,.9,0,1.4,0h0c0,0,0,0,0,0Z"/>
        <path class="cls-7" d="M201.5,200.1c1.4,0,2.7,0,4,.1.9.1,1.3.6,1.4,1.4.4,2.9.2,3.3-2.8,3.4-1.9,0-3.9.1-5.8,0-.8,0-1.2-.3-1.4-1.2-.1-.9,0-1.7,0-2.5,0-.6.3-.9,1-1,1.2-.2,2.4-.2,3.4-.2h0Z"/>
      </g>
      <path class="cls-7" d="M315.5,158.8c1,0,2-.1,3.1,0,2,.1,2.4.6,2.5,2.6,0,1.7-.2,2.1-1.9,2.2-2.4.2-4.8.2-7.2,0-.6,0-.9-.3-1-.9,0,0,0,0,0-.1-.2-4-.1-3.6,3.2-3.9.5,0,.9,0,1.4,0h0c0,0,0,0,0,0Z"/>
      <path class="cls-7" d="M315.3,146.4c1,0,2-.1,3.1,0,2,.1,2.4.6,2.5,2.6,0,1.7-.2,2.1-1.9,2.2-2.4.2-4.8.2-7.2,0-.6,0-.9-.3-1-.9,0,0,0,0,0-.1-.2-4-.1-3.6,3.2-3.9.5,0,.9,0,1.4,0h0c0,0,0,0,0,0Z"/>
      <g>
        <path class="cls-7" d="M245.3,210.9c-1.4,0-2.9.1-4.3,0-.6,0-.8-.4-1-.9-.2-1-.1-1.9,0-2.8,0-.6.4-.9,1.1-1,2.4-.3,4.8-.4,7.2-.1,1.3.1,1.7.8,1.7,2.6,0,1.8-.3,2.1-2.1,2.2-.2,0-.4,0-.5,0-.7,0-1.5,0-2.2,0h0Z"/>
        <path class="cls-7" d="M257.9,210.7c-1.4,0-2.9.1-4.3,0-.5,0-.8-.3-.9-.8-.3-1-.1-2,0-3,0-.5.4-.8.9-.8,2.5-.3,5-.4,7.5-.1.9,0,1.3.6,1.4,1.4.5,2.8,0,3.3-2.7,3.4-.6,0-1.3,0-1.9,0h0Z"/>
        <path class="cls-7" d="M238.6,199.6c1,0,2-.1,3.1,0,2,.1,2.4.6,2.5,2.6,0,1.7-.2,2.1-1.9,2.2-2.4.2-4.8.2-7.2,0-.6,0-.9-.3-1-.9,0,0,0,0,0-.1-.2-4-.1-3.6,3.2-3.9.5,0,.9,0,1.4,0h0c0,0,0,0,0,0Z"/>
        <path class="cls-7" d="M251.1,199.2c1.4,0,2.7,0,4,.1.9.1,1.3.6,1.4,1.4.4,2.9.2,3.3-2.8,3.4-1.9,0-3.9.1-5.8,0-.8,0-1.2-.3-1.4-1.2-.1-.9,0-1.7,0-2.5,0-.6.3-.9,1-1,1.2-.2,2.4-.2,3.4-.2h0Z"/>
      </g>
      <g>
        <path class="cls-7" d="M231,153c-1.4,0-2.9.1-4.3,0-.6,0-.8-.4-1-.9-.2-1-.1-1.9,0-2.8,0-.6.4-.9,1.1-1,2.4-.3,4.8-.4,7.2-.1,1.3.1,1.7.8,1.7,2.6,0,1.8-.3,2.1-2.1,2.2-.2,0-.4,0-.5,0-.7,0-1.5,0-2.2,0h0Z"/>
        <path class="cls-7" d="M243.6,152.7c-1.4,0-2.9.1-4.3,0-.5,0-.8-.3-.9-.8-.3-1-.1-2,0-3,0-.5.4-.8.9-.8,2.5-.3,5-.4,7.5-.1.9,0,1.3.6,1.4,1.4.5,2.8,0,3.3-2.7,3.4-.6,0-1.3,0-1.9,0h0Z"/>
        <path class="cls-7" d="M224.3,141.6c1,0,2-.1,3.1,0,2,.1,2.4.6,2.5,2.6,0,1.7-.2,2.1-1.9,2.2-2.4.2-4.8.2-7.2,0-.6,0-.9-.3-1-.9,0,0,0,0,0-.1-.2-4-.1-3.6,3.2-3.9.5,0,.9,0,1.4,0h0c0,0,0,0,0,0Z"/>
        <path class="cls-7" d="M236.8,141.2c1.4,0,2.7,0,4,.1.9.1,1.3.6,1.4,1.4.4,2.9.2,3.3-2.8,3.4-1.9,0-3.9.1-5.8,0-.8,0-1.2-.3-1.4-1.2-.1-.9,0-1.7,0-2.5,0-.6.3-.9,1-1,1.2-.2,2.4-.2,3.4-.2h0Z"/>
      </g>
      <g>
        <path class="cls-7" d="M99.9,173.3c-1.4-.1-2.9-.1-4.3-.4-.5-.1-.7-.3-.8-.9-.2-1,0-2,.3-3,.1-.5.5-.7,1-.7,2.5-.1,5,0,7.5.5.8.1,1.2.7,1.3,1.5.3,2.8-.2,3.3-3,3.2-.6,0-1.3,0-1.9-.1h0Z"/>
        <path class="cls-7" d="M94,161.3c1.4.1,2.7.2,4,.4.9.2,1.2.7,1.3,1.5.2,2.9-.1,3.3-3,3.2-1.9,0-3.9-.2-5.8-.5-.8-.1-1.2-.4-1.3-1.3,0-.9.1-1.7.3-2.5,0-.6.4-.9,1.1-.9,1.2,0,2.4,0,3.5,0h0Z"/>
      </g>
      <g>
        <path class="cls-7" d="M174.9,153.8c-1.4,0-2.9.1-4.3,0-.6,0-.8-.4-1-.9-.2-1-.1-1.9,0-2.8,0-.6.4-.9,1.1-1,2.4-.3,4.8-.4,7.2-.1,1.3.1,1.7.8,1.7,2.6,0,1.8-.3,2.1-2.1,2.2-.2,0-.4,0-.5,0-.7,0-1.5,0-2.2,0h0Z"/>
        <path class="cls-7" d="M187.5,153.5c-1.4,0-2.9.1-4.3,0-.5,0-.8-.3-.9-.8-.3-1-.1-2,0-3,0-.5.4-.8.9-.8,2.5-.3,5-.4,7.5-.1.9,0,1.3.6,1.4,1.4.5,2.8,0,3.3-2.7,3.4-.6,0-1.3,0-1.9,0h0Z"/>
        <path class="cls-7" d="M168.1,142.4c1,0,2-.1,3.1,0,2,.1,2.4.6,2.5,2.6,0,1.7-.2,2.1-1.9,2.2-2.4.2-4.8.2-7.2,0-.6,0-.9-.3-1-.9,0,0,0,0,0-.1-.2-4-.1-3.6,3.2-3.9.5,0,.9,0,1.4,0h0c0,0,0,0,0,0Z"/>
        <path class="cls-7" d="M180.7,142.1c1.4,0,2.7,0,4,.1.9.1,1.3.6,1.4,1.4.4,2.9.2,3.3-2.8,3.4-1.9,0-3.9.1-5.8,0-.8,0-1.2-.3-1.4-1.2-.1-.9,0-1.7,0-2.5,0-.6.3-.9,1-1,1.2-.2,2.4-.2,3.4-.2h0Z"/>
      </g>
      <path class="cls-9" d="M100.3,216v-62.2c0-.8.7-1.4,1.5-1.4,8.8.3,17.6.5,26.4.8.8,0,1.4.7,1.4,1.4-.1,21.5-.3,43-.4,64.6,0,.8-.7,1.5-1.6,1.4-8.7-1.1-17.3-2.1-26-3.1-.7,0-1.2-.7-1.2-1.4h0Z"/>
      <path class="cls-7" d="M135.5,212.7c1,0,2,0,3,.2,2,.3,2.3.8,2.2,2.8,0,1.7-.4,2.1-2.1,2.1-2.4,0-4.8-.2-7.1-.6-.6,0-.9-.4-.9-1h0c.1-4.1.2-3.8,3.5-3.7.5,0,.9,0,1.4,0h0c0,0,0,0,0,0Z"/>
      <path class="cls-7" d="M148.1,213.4c1.4.1,2.7.2,4,.4.9.2,1.2.7,1.3,1.5.2,2.9-.1,3.3-3,3.2-1.9,0-3.9-.2-5.8-.5-.8-.1-1.2-.4-1.3-1.3,0-.9.1-1.7.3-2.5,0-.6.4-.9,1.1-.9,1.2,0,2.4,0,3.5,0h0Z"/>
    </g>
  </g>
</svg>