<?xml version="1.0" encoding="UTF-8"?>
<svg id="Laag_1" xmlns="http://www.w3.org/2000/svg" viewBox="0 0 374.89 304.54">
  <defs>
    <style>
      .cls-1 {
        fill: #335d47;
      }

      .cls-2 {
        fill: none;
        stroke: #325d47;
        stroke-miterlimit: 10;
        stroke-width: 2px;
      }

      .cls-3 {
        fill: #2e483b;
      }

      .cls-4 {
        fill: #82a286;
      }

      .cls-5 {
        fill: #89a68d;
      }

      .cls-6 {
        fill: #872b2b;
      }

      .cls-7 {
        fill: #5e956d;
      }

      .cls-8 {
        fill: #e8d8bf;
      }

      .cls-9 {
        fill: #fcf0dc;
      }
    </style>
  </defs>
  <path class="cls-2" d="M187.91,297.64c-.83-12.13-1.44-31,.87-53.71,3.56-34.83,9.86-38.17,10.5-62.81.56-21.6-2.92-28.62-1.61-43.61.19-2.23,1.15-12.09,5.52-22.74,8.69-21.18,24.58-30.22,31.82-34.18,12.18-6.66,18.01-5.37,31.32-8.86,33.74-8.85,44.03-20.63,49.22-26.58,5.57-6.38,4.91-7.75,9.45-12.66,14.67-15.86,34.82-15.86,49.72-13.29"/>
  <path class="cls-2" d="M196.64,150.98c-1.94-.26-11.12-1.73-17.83-10.74-6.22-8.35-6.15-17.58-6.08-19.91"/>
  <path class="cls-2" d="M313.58,47.41c.4,2.23,2.09,12.86-3.73,23.11-5.39,9.49-13.62,12.29-15.71,12.92"/>
  <path class="cls-2" d="M75.36,70.37c-4.48,3.03-10.41,8.23-12.76,16.55-3.87,13.72,5.36,24.2,7.62,43.32,1.07,9.11.84,22.5-5.86,39.88"/>
  <path class="cls-2" d="M96.72,137.64c1.98-1.49,4.7-4,6.35-7.93,2.59-6.14.39-10.5,2.12-16.72.92-3.3,3.12-7.78,9.01-12.19"/>
  <path class="cls-2" d="M151.05,193.8c-1.65.78-3.83,2.13-4.69,4.28-1.42,3.55,1.97,6.26,2.8,11.21.4,2.36.31,5.82-2.16,10.32"/>
  <path class="cls-7" d="M318.6,99.67c.53-.39,1.05-.46,1.61-.53,3.64-.48,6.67,3.15,7.27,3.87,1.71,2.05,1.45,2.96,4.15,10.91,1.84,5.44,3.01,8.11,2.21,8.77-.3.25-.74.13-2.25-.62-3.41-1.68-5.7-2.83-9.09-5.89-1.56-1.4-2.34-2.11-2.81-2.76-3.24-4.46-3.74-11.8-1.08-13.75Z"/>
  <path class="cls-7" d="M313.48,95.38c.49.28.74.68,1.02,1.11,1.81,2.8.53,6.77.28,7.56-.72,2.25-1.45,2.4-5.86,7.85-3.01,3.73-4.38,5.78-5.17,5.38-.29-.14-.39-.56-.49-2.11-.23-3.49-.36-5.84.38-9.88.34-1.85.51-2.78.76-3.44,1.77-4.48,6.64-7.87,9.07-6.48Z"/>
  <path class="cls-7" d="M321.15,90.57c-.09.59.04,1.06.18,1.56.93,3.28,4.6,4.58,5.33,4.84,2.07.74,2.63.2,9.27-.3,4.54-.34,6.87-.28,7.06-1.2.07-.34-.17-.68-1.24-1.71-2.4-2.32-4.03-3.87-7.42-5.69-1.55-.84-2.33-1.25-2.97-1.43-4.34-1.19-9.77.96-10.23,3.91Z"/>
  <path class="cls-7" d="M213.09,185.65c-.09-.4-.01-.71.07-1.06.5-2.25,2.92-3.3,3.41-3.51,1.37-.59,1.76-.25,6.26-.22,3.07.02,4.64-.12,4.8.49.06.23-.09.46-.77,1.21-1.53,1.67-2.57,2.79-4.78,4.17-1.02.63-1.52.95-1.94,1.1-2.88,1-6.62-.2-7.04-2.17Z"/>
  <path class="cls-7" d="M209.91,187.8c.24-.23.49-.3.76-.38,1.76-.5,3.47,1.07,3.81,1.38.97.89.89,1.35,2.7,5.07,1.23,2.54,1.97,3.77,1.62,4.15-.13.14-.36.12-1.15-.14-1.78-.58-2.97-.98-4.83-2.24-.85-.58-1.28-.87-1.55-1.15-1.86-1.96-2.55-5.53-1.36-6.68Z"/>
  <path class="cls-7" d="M209.09,182.28c.28.18.53.19.81.21,1.82.12,3.21-1.78,3.49-2.16.79-1.07.64-1.51,1.75-5.54.76-2.75,1.27-4.11.85-4.42-.15-.11-.37-.04-1.1.38-1.64.94-2.74,1.59-4.34,3.22-.73.75-1.1,1.12-1.32,1.46-1.48,2.32-1.52,5.97-.15,6.85Z"/>
  <path class="cls-5" d="M219.68,146.21c-.13-.62-.02-1.12.1-1.67.79-3.54,4.6-5.18,5.35-5.51,2.15-.93,2.77-.4,9.84-.35,4.83.03,7.29-.19,7.55.77.1.35-.14.73-1.21,1.9-2.41,2.63-4.04,4.38-7.52,6.55-1.6,1-2.39,1.5-3.06,1.73-4.52,1.58-10.41-.32-11.07-3.42Z"/>
  <path class="cls-5" d="M214.68,149.59c.38-.36.77-.47,1.19-.59,2.77-.78,5.45,1.68,5.99,2.17,1.52,1.39,1.4,2.12,4.24,7.96,1.94,3.99,3.1,5.92,2.54,6.53-.21.22-.56.18-1.8-.22-2.8-.91-4.67-1.54-7.59-3.52-1.34-.91-2.01-1.36-2.44-1.82-2.93-3.08-4.01-8.7-2.14-10.51Z"/>
  <path class="cls-5" d="M213.4,140.91c.43.28.84.3,1.28.33,2.86.18,5.05-2.8,5.49-3.39,1.24-1.69,1-2.38,2.75-8.71,1.2-4.33,1.99-6.47,1.33-6.94-.24-.18-.58-.06-1.73.6-2.58,1.49-4.31,2.5-6.82,5.06-1.15,1.17-1.73,1.76-2.07,2.3-2.32,3.64-2.39,9.38-.23,10.76Z"/>
  <path class="cls-3" d="M215.82,133.49c-1.52,3.34-1.73,3.54-2.06,4.72-.04.15-.14.51-.24.96l-.04-.02c0,.08,0,.17,0,.26-.1.49-.18,1.06-.18,1.55-.16.81-.43,1.66-.91,2.49-.32.55-.68,1-1.02,1.38-1.96.03-3.45.32-4.68.56-2.2.43-5.63,1.41-9.61,3.88.26.36.51.73.77,1.09,1.29-.73,2.83-1.49,4.6-2.15,1.42-.53,3.27-1.22,5.65-1.53,1.21-.16,1.96-.14,2.94-.09.55.2,1.22.48,1.87.94,1,.7,1.7,1.61,2.19,2.48.33,1.07,1.03,2.55,1.88,3.76.21.3.51.65,1.1,1.35,1.29,1.53,2.06,2.22,3.19,3.24.5.45.64.55.69.49.14-.15-.5-1.27-1.66-3.49-1.7-3.24-1.73-3.54-2.45-4.5-.17-.23-.83-1.11-1.52-1.71-.2-.26-.41-.52-.64-.78-.56-.65-1.13-1.2-1.68-1.69,1.44,0,3.44-.06,5.85-.32,1.02.19,2.71.14,4.22-.22.33-.08.75-.22,1.58-.51,1.82-.63,2.71-1.09,4.04-1.77.59-.3.73-.4.7-.47-.07-.2-1.27-.04-3.6.16-3.41.3-3.68.21-4.77.51-.29.08-1.42.39-2.24.87-.52.04-1.16.09-1.89.11-2.11.07-3.37-.08-4.74-.17.5-.96,1.01-2.11,1.43-3.46.03-.08.05-.16.07-.24.64-.89,1.36-2.35,1.81-3.8.11-.35.21-.82.41-1.75.44-2.02.55-3.1.69-4.69.07-.71.06-.88,0-.9-.19-.04-.69,1.16-1.73,3.45Z"/>
  <path class="cls-5" d="M208.82,79.79c-.35.22-.68.23-1.03.24-2.3.1-4.02-2.35-4.36-2.83-.97-1.38-.77-1.93-2.08-7.06-.89-3.51-1.5-5.24-.96-5.61.2-.14.47-.04,1.38.51,2.06,1.24,3.43,2.09,5.41,4.2.91.97,1.36,1.45,1.63,1.89,1.81,2.98,1.78,7.59.02,8.66Z"/>
  <path class="cls-5" d="M211.82,82.77c-.29-.2-.43-.47-.59-.75-1-1.86-.01-4.26.18-4.74.56-1.36,1.02-1.42,4.04-4.58,2.06-2.16,3.01-3.37,3.49-3.08.17.11.22.37.21,1.35-.02,2.2-.05,3.67-.71,6.16-.3,1.14-.45,1.71-.64,2.11-1.32,2.7-4.53,4.55-5.98,3.54Z"/>
  <path class="cls-5" d="M206.79,85.34c.09-.37.02-.66-.04-.99-.43-2.1-2.66-3.13-3.1-3.33-1.26-.58-1.64-.27-5.81-.34-2.86-.05-4.31-.21-4.47.35-.06.21.07.43.69,1.14,1.39,1.59,2.34,2.65,4.37,3.98.93.61,1.4.92,1.79,1.06,2.66.99,6.15-.05,6.58-1.87Z"/>
  <path class="cls-7" d="M143.49,162.21c-.58-.09-.97-.39-1.38-.71-2.73-2.1-2.73-6.57-2.74-7.46,0-2.53.68-2.96,3.31-10.12,1.8-4.89,2.51-7.47,3.42-7.39.34.03.57.41,1.17,1.92,1.36,3.41,2.26,5.71,2.83,10.03.26,1.99.4,2.98.35,3.74-.31,5.17-4.09,10.45-6.97,9.99Z"/>
  <path class="cls-7" d="M144.54,168.52c-.17-.52-.12-.95-.07-1.43.35-3.1,3.43-4.92,4.04-5.28,1.75-1.03,2.32-.65,8.34-1.39,4.12-.51,6.19-.97,6.5-.18.11.29-.05.64-.85,1.75-1.8,2.51-3.03,4.18-5.79,6.41-1.27,1.03-1.9,1.54-2.44,1.81-3.7,1.84-8.88.88-9.74-1.68Z"/>
  <path class="cls-7" d="M136.67,166.64c.4-.34.56-.74.75-1.18,1.2-2.83-.54-6.15-.88-6.82-.98-1.88-1.66-1.89-6.42-5.98-3.25-2.8-4.79-4.39-5.43-3.9-.24.18-.26.57-.12,1.97.32,3.17.55,5.29,1.82,8.78.58,1.6.87,2.4,1.2,2.94,2.25,3.7,7.12,5.86,9.09,4.18Z"/>
  <path class="cls-7" d="M355.67,38.01c.49.2.77.54,1.08.91,2,2.39,1.24,6.27,1.09,7.04-.43,2.2-1.1,2.43-4.63,8.11-2.41,3.88-3.47,5.98-4.25,5.71-.29-.1-.43-.47-.69-1.91-.59-3.24-.97-5.42-.73-9.3.11-1.78.17-2.67.34-3.32,1.17-4.43,5.36-8.24,7.79-7.24Z"/>
  <path class="cls-7" d="M355.85,32.3c.06.48-.06.85-.19,1.26-.84,2.62-3.83,3.57-4.43,3.76-1.7.54-2.13.08-7.49-.51-3.66-.41-5.55-.43-5.68-1.18-.05-.28.16-.54,1.04-1.34,2-1.81,3.36-3.01,6.14-4.38,1.28-.63,1.92-.94,2.43-1.07,3.54-.84,7.87,1.07,8.17,3.47Z"/>
  <path class="cls-7" d="M362.37,35.56c-.4.21-.62.53-.85.87-1.54,2.21-.6,5.46-.41,6.11.53,1.84,1.12,1.98,4.54,6.52,2.34,3.1,3.4,4.8,4.04,4.51.24-.11.33-.44.45-1.69.27-2.82.44-4.71-.06-8-.23-1.51-.34-2.26-.53-2.8-1.32-3.68-5.17-6.56-7.17-5.51Z"/>
  <path class="cls-5" d="M279.96,41.01c-.52.32-1.01.34-1.53.36-3.41.14-5.96-3.48-6.47-4.2-1.44-2.05-1.14-2.86-3.08-10.46-1.33-5.2-2.22-7.77-1.43-8.32.29-.2.7-.05,2.05.76,3.05,1.84,5.08,3.1,8.02,6.22,1.35,1.43,2.02,2.15,2.41,2.79,2.69,4.41,2.63,11.25.03,12.84Z"/>
  <path class="cls-5" d="M284.41,45.42c-.43-.3-.64-.69-.87-1.11-1.48-2.75-.02-6.32.27-7.03.83-2.02,1.52-2.1,5.98-6.79,3.05-3.2,4.47-4.99,5.17-4.56.26.16.32.55.31,2-.04,3.26-.08,5.45-1.05,9.13-.44,1.69-.67,2.54-.95,3.12-1.96,4.01-6.71,6.74-8.87,5.24Z"/>
  <path class="cls-5" d="M276.95,49.24c.13-.54.04-.98-.06-1.46-.64-3.12-3.94-4.63-4.6-4.94-1.87-.86-2.42-.41-8.62-.5-4.24-.07-6.39-.32-6.63.52-.09.31.11.64,1.02,1.69,2.06,2.35,3.46,3.92,6.47,5.89,1.38.91,2.07,1.36,2.65,1.57,3.94,1.47,9.12-.07,9.76-2.77Z"/>
  <path class="cls-5" d="M84.26,50.9c.25.43.58.63.93.86,2.3,1.46,5.28-.01,5.87-.31,1.68-.83,1.75-1.52,5.63-5.98,2.66-3.05,4.14-4.47,3.78-5.16-.13-.26-.46-.32-1.67-.29-2.72.05-4.55.11-7.61,1.09-1.41.45-2.11.67-2.6.96-3.33,1.96-5.59,6.7-4.33,8.84Z"/>
  <path class="cls-5" d="M79.71,52.17c.4-.03.67-.22.97-.42,1.95-1.3,2.13-4.35,2.17-4.96.11-1.72-.34-2.05-1.85-7.07-1.03-3.43-1.41-5.22-2.03-5.21-.23,0-.41.25-.88,1.25-1.07,2.26-1.77,3.79-2.34,6.71-.26,1.34-.39,2.01-.39,2.53,0,3.54,2.36,7.33,4.35,7.16Z"/>
  <path class="cls-5" d="M83.58,57.77c.09-.43.31-.69.53-.98,1.48-1.89,4.27-1.62,4.83-1.56,1.58.16,1.81.69,6.11,3.1,2.94,1.65,4.51,2.33,4.4,3.01-.04.25-.29.4-1.27.75-2.21.8-3.7,1.32-6.44,1.48-1.26.07-1.88.11-2.35.03-3.21-.56-6.26-3.69-5.8-5.81Z"/>
  <path class="cls-7" d="M42.69,60.94c-.34-.35-.7-.47-1.09-.6-2.55-.85-5.13,1.32-5.65,1.76-1.46,1.23-1.38,1.91-4.24,7.22-1.95,3.63-3.1,5.38-2.6,5.96.18.22.52.19,1.68-.13,2.64-.73,4.4-1.23,7.19-2.95,1.28-.79,1.92-1.18,2.33-1.58,2.84-2.74,4.05-7.92,2.37-9.68Z"/>
  <path class="cls-7" d="M46.85,58.58c-.38.13-.61.38-.86.65-1.62,1.75-1.17,4.77-1.08,5.37.26,1.71.76,1.92,3.27,6.42,1.72,3.08,2.46,4.74,3.07,4.57.22-.06.34-.35.6-1.44.57-2.47.94-4.13.88-7.12-.03-1.37-.04-2.06-.15-2.56-.74-3.45-3.83-6.55-5.73-5.89Z"/>
  <path class="cls-7" d="M41.93,54.08c0,.44-.15.75-.31,1.09-1.05,2.21-3.82,2.64-4.37,2.72-1.57.24-1.9-.22-6.59-1.5-3.21-.87-4.88-1.15-4.91-1.84-.01-.25.2-.46,1.08-1.05,1.99-1.33,3.33-2.2,5.96-3.04,1.21-.38,1.81-.57,2.29-.61,3.24-.25,6.87,2.04,6.86,4.22Z"/>
  <path class="cls-5" d="M129.65,96.12c-.18-.47-.15-.88-.12-1.33.21-2.9,3.01-4.73,3.56-5.1,1.59-1.04,2.14-.71,7.71-1.66,3.81-.65,5.72-1.18,6.04-.46.12.27-.02.59-.73,1.66-1.58,2.41-2.66,4.02-5.14,6.22-1.14,1.01-1.71,1.52-2.2,1.79-3.37,1.88-8.23,1.22-9.13-1.13Z"/>
  <path class="cls-5" d="M126.12,99.48c.25-.34.55-.48.87-.64,2.09-1.01,4.49.55,4.97.86,1.36.88,1.36,1.47,4.28,5.67,2,2.87,3.14,4.23,2.77,4.78-.14.2-.42.22-1.44.08-2.31-.32-3.86-.56-6.39-1.71-1.16-.53-1.74-.79-2.13-1.09-2.67-2.02-4.19-6.28-2.93-7.97Z"/>
  <path class="cls-5" d="M124.08,92.83c.37.16.7.12,1.04.08,2.27-.26,3.65-2.92,3.92-3.45.78-1.51.51-2.01,1.13-7.24.43-3.58.8-5.37.23-5.66-.21-.1-.47.04-1.29.72-1.86,1.53-3.1,2.58-4.77,4.95-.77,1.09-1.15,1.63-1.36,2.1-1.4,3.2-.77,7.72,1.09,8.51Z"/>
  <path class="cls-7" d="M176.91,183.15c-.43-.07-.72-.29-1.03-.53-2.03-1.56-2.03-4.89-2.04-5.55,0-1.88.5-2.2,2.46-7.53,1.34-3.64,1.86-5.56,2.55-5.5.25.02.42.31.87,1.43,1.01,2.53,1.68,4.25,2.11,7.47.2,1.48.3,2.22.26,2.78-.23,3.85-3.04,7.77-5.19,7.43Z"/>
  <path class="cls-7" d="M177.7,187.85c-.13-.38-.09-.71-.05-1.06.26-2.31,2.55-3.66,3.01-3.93,1.3-.77,1.73-.48,6.21-1.03,3.06-.38,4.6-.73,4.84-.14.09.22-.04.47-.63,1.3-1.34,1.86-2.25,3.11-4.31,4.77-.94.76-1.41,1.14-1.82,1.34-2.75,1.37-6.61.66-7.25-1.25Z"/>
  <path class="cls-7" d="M171.84,186.45c.29-.25.42-.55.56-.87.9-2.11-.4-4.58-.66-5.07-.73-1.4-1.24-1.4-4.78-4.45-2.42-2.08-3.56-3.27-4.04-2.9-.18.13-.2.42-.09,1.47.24,2.36.41,3.94,1.35,6.53.43,1.19.65,1.79.89,2.19,1.68,2.75,5.3,4.36,6.76,3.11Z"/>
  <path class="cls-7" d="M59.28,136.68c-.14.36-.37.55-.61.77-1.57,1.4-3.97.68-4.44.53-1.36-.41-1.48-.91-4.89-3.76-2.33-1.95-3.6-2.82-3.4-3.39.07-.21.31-.3,1.22-.44,2.05-.31,3.43-.51,5.84-.17,1.11.15,1.66.23,2.06.38,2.72,1.04,4.94,4.31,4.22,6.08Z"/>
  <path class="cls-7" d="M62.84,137.03c-.3.03-.53-.08-.78-.19-1.6-.73-2.08-2.99-2.17-3.44-.27-1.28.03-1.59.62-5.55.4-2.71.49-4.11.96-4.18.17-.03.33.14.8.83,1.05,1.56,1.75,2.61,2.49,4.74.34.98.52,1.46.57,1.85.38,2.66-.98,5.82-2.49,5.95Z"/>
  <path class="cls-7" d="M60.55,141.75c-.12-.31-.31-.48-.51-.67-1.32-1.23-3.39-.66-3.8-.55-1.17.32-1.28.75-4.25,3.12-2.03,1.62-3.13,2.34-2.97,2.83.06.18.26.26,1.04.4,1.75.31,2.93.51,5,.27.95-.11,1.43-.16,1.77-.29,2.35-.84,4.3-3.59,3.72-5.12Z"/>
  <path class="cls-5" d="M64.04,177.34c-.47-.18-.87-.13-1.31-.07-2.84.4-4.48,3.77-4.81,4.44-.93,1.91-.58,2.54-1.22,9.11-.44,4.49-.85,6.75-.13,7.09.27.12.58-.06,1.59-.94,2.28-1.98,3.81-3.33,5.83-6.35.93-1.39,1.4-2.08,1.64-2.67,1.66-4.05.75-9.7-1.6-10.61Z"/>
  <path class="cls-5" d="M67.16,173.03c-.32.31-.44.67-.58,1.05-.88,2.5.79,5.23,1.12,5.77.94,1.55,1.52,1.51,5.8,4.7,2.93,2.19,4.32,3.45,4.85,2.99.19-.17.2-.5,0-1.69-.44-2.69-.75-4.49-2.02-7.39-.58-1.33-.87-2-1.18-2.44-2.12-3.02-6.4-4.56-7.99-3Z"/>
  <path class="cls-5" d="M60.52,171c.17.43.15.81.13,1.22-.13,2.67-2.67,4.42-3.17,4.77-1.44.99-1.95.7-7.06,1.72-3.49.69-5.24,1.23-5.54.57-.11-.24.01-.55.63-1.55,1.41-2.26,2.37-3.76,4.6-5.85,1.03-.96,1.54-1.43,1.99-1.7,3.07-1.81,7.55-1.32,8.41.82Z"/>
  <path class="cls-5" d="M172.97,113.48c.44.17.81.12,1.22.06,2.64-.37,4.18-3.51,4.48-4.14.87-1.78.54-2.36,1.13-8.49.41-4.19.79-6.29.12-6.6-.25-.11-.54.06-1.49.87-2.13,1.85-3.55,3.1-5.44,5.92-.87,1.29-1.3,1.94-1.53,2.49-1.55,3.77-.7,9.03,1.49,9.89Z"/>
  <path class="cls-5" d="M170.07,117.5c.3-.29.41-.62.54-.98.82-2.33-.73-4.87-1.04-5.38-.88-1.44-1.42-1.4-5.41-4.38-2.73-2.04-4.03-3.21-4.52-2.78-.18.16-.18.47,0,1.58.41,2.5.7,4.18,1.88,6.88.54,1.24.81,1.86,1.1,2.27,1.98,2.81,5.96,4.25,7.44,2.79Z"/>
  <path class="cls-5" d="M176.26,119.39c-.16-.4-.14-.75-.13-1.13.12-2.49,2.49-4.12,2.96-4.45,1.34-.92,1.82-.65,6.57-1.6,3.25-.65,4.88-1.14,5.17-.53.11.22,0,.51-.59,1.44-1.31,2.1-2.2,3.51-4.29,5.45-.96.89-1.44,1.34-1.85,1.58-2.86,1.69-7.03,1.23-7.84-.76Z"/>
  <path class="cls-5" d="M289.46,88.61c-.18-.47-.47-.73-.78-1.02-2.04-1.87-5.2-.99-5.83-.81-1.79.5-1.96,1.17-6.5,4.82-3.1,2.5-4.79,3.61-4.54,4.37.09.28.41.4,1.59.6,2.68.46,4.49.76,7.67.37,1.46-.18,2.19-.26,2.71-.45,3.6-1.3,6.57-5.54,5.67-7.88Z"/>
  <path class="cls-5" d="M294.14,88.23c-.4-.04-.7.09-1.03.23-2.12.91-2.79,3.88-2.93,4.47-.38,1.68,0,2.09.69,7.31.47,3.57.55,5.41,1.18,5.51.23.04.44-.17,1.07-1.07,1.41-2.02,2.35-3.39,3.38-6.16.47-1.27.71-1.91.79-2.42.56-3.49-1.16-7.67-3.15-7.87Z"/>
  <path class="cls-5" d="M292.09,81.3c-.16.4-.41.62-.68.87-1.76,1.58-4.46.79-5,.63-1.53-.45-1.67-1.02-5.52-4.21-2.64-2.18-4.07-3.15-3.85-3.79.08-.24.35-.34,1.37-.5,2.31-.37,3.86-.6,6.58-.23,1.25.17,1.87.25,2.32.42,3.07,1.16,5.58,4.82,4.78,6.82Z"/>
  <path class="cls-1" d="M81.66,152.81c-2.79-3.05-2.84-3.53-4.04-4.08-.41-.19-2.39-1.1-3.96-.18-.13-.09-.25-.18-.39-.26-.76-.47-1.48-.79-2.12-1.02-1.66.51-2.03.72-2.01.82.03.16,1.08-.11,2.25.25.6.19,1.1.5,1.51.85-.01.02-.03.03-.04.06-.85,1.52.81,4.79,3.17,6.1.35.19.84.34,1.84.62,2.16.63,3.44.63,5.35.62.84,0,1.07-.05,1.16-.24.24-.49-.82-1.46-2.72-3.54Z"/>
  <path class="cls-4" d="M210.44,224.92c.05-.55.28-.93.52-1.33,1.58-2.65,5.14-2.81,5.84-2.84,2.01-.09,2.38.54,8.16,2.8,3.95,1.55,6.03,2.13,5.99,3-.01.32-.31.55-1.49,1.18-2.67,1.4-4.47,2.33-7.89,3.01-1.57.32-2.36.47-2.96.46-4.12-.13-8.45-3.53-8.18-6.28Z"/>
  <path class="cls-4" d="M205.45,226.12c.4-.18.76-.15,1.14-.11,2.48.23,4.03,3.09,4.34,3.66.88,1.62.59,2.18,1.38,7.86.54,3.88.98,5.83.36,6.15-.23.12-.51-.03-1.42-.75-2.05-1.63-3.42-2.73-5.29-5.27-.86-1.17-1.29-1.75-1.52-2.25-1.59-3.45-.99-8.39,1.02-9.29Z"/>
  <path class="cls-4" d="M206.69,218.6c.28.36.61.51.96.67,2.29,1.05,4.88-.71,5.4-1.06,1.46-.99,1.45-1.64,4.55-6.28,2.12-3.17,3.34-4.68,2.92-5.27-.15-.22-.46-.23-1.57-.05-2.51.41-4.19.7-6.92,2.01-1.25.6-1.88.9-2.3,1.23-2.87,2.26-4.43,6.94-3.03,8.75Z"/>
  <path class="cls-1" d="M210.63,213.28c-2.13,2.26-2.36,2.36-2.94,3.23-.07.11-.25.38-.45.71l-.03-.03c-.02.07-.05.14-.08.21-.21.37-.43.81-.55,1.21-.34.61-.79,1.23-1.4,1.75-.4.35-.82.61-1.2.81-1.62-.59-2.92-.82-3.99-1.01-1.92-.33-4.99-.61-8.9.17.12.38.23.76.35,1.13,1.25-.2,2.71-.33,4.34-.32,1.3.01,3,.03,5.04.52,1.04.25,1.64.5,2.43.85.4.34.87.78,1.29,1.36.63.89.97,1.86,1.14,2.72-.02.98.17,2.41.55,3.67.09.31.24.69.55,1.45.66,1.66,1.1,2.47,1.76,3.66.29.53.38.65.43.62.15-.08-.08-1.2-.44-3.38-.54-3.19-.49-3.45-.82-4.46-.08-.25-.39-1.17-.8-1.88-.1-.28-.2-.56-.32-.84-.29-.71-.61-1.34-.93-1.91,1.18.46,2.83,1.03,4.88,1.57.78.48,2.19.97,3.52,1.15.29.04.67.05,1.43.08,1.65.05,2.51-.04,3.78-.19.56-.06.7-.1.7-.17,0-.19-1.03-.43-2.99-1-2.87-.83-3.07-.98-4.05-1.08-.26-.03-1.27-.13-2.07.01-.44-.13-.97-.29-1.58-.5-1.75-.61-2.74-1.13-3.84-1.63.67-.63,1.39-1.41,2.09-2.39.04-.06.08-.12.12-.18.76-.53,1.74-1.5,2.49-2.55.18-.26.39-.6.8-1.3.9-1.52,1.26-2.37,1.81-3.63.24-.56.28-.7.23-.74-.15-.09-.87.74-2.33,2.28Z"/>
  <path class="cls-5" d="M318.68,16.06c-.37.23-.71.24-1.08.25-2.41.1-4.22-2.46-4.58-2.97-1.02-1.45-.81-2.03-2.18-7.4-.94-3.68-1.57-5.5-1.01-5.88.21-.14.49-.04,1.45.54,2.15,1.3,3.6,2.19,5.67,4.4.95,1.01,1.43,1.52,1.71,1.98,1.9,3.12,1.86,7.96.02,9.08Z"/>
  <path class="cls-5" d="M321.83,19.18c-.31-.21-.45-.49-.62-.79-1.05-1.95-.01-4.47.19-4.98.59-1.43,1.07-1.49,4.23-4.8,2.16-2.27,3.16-3.53,3.66-3.22.18.11.23.39.22,1.41-.03,2.3-.06,3.85-.74,6.46-.31,1.2-.47,1.79-.67,2.21-1.38,2.83-4.75,4.77-6.27,3.71Z"/>
  <path class="cls-5" d="M316.55,21.88c.09-.38.03-.7-.04-1.03-.45-2.2-2.79-3.28-3.25-3.49-1.32-.61-1.71-.29-6.1-.36-3-.05-4.52-.22-4.69.37-.06.22.08.45.73,1.19,1.46,1.66,2.45,2.77,4.58,4.17.98.64,1.47.96,1.87,1.11,2.78,1.04,6.45-.05,6.9-1.96Z"/>
  <g>
    <path class="cls-6" d="M69.21,289.7c1.43.06,2.85.16,4.28.16,33.53,0,67.06.04,100.59-.04,3.36,0,5.75.77,7.63,4.03,2.47,4.27,8.53,4.13,11.41-.25,1.96-2.99,4.38-3.74,7.55-3.74,33.2.04,66.4.03,99.6.02,1.43,0,2.86-.05,4.28-.08.96.51,1.92,1.03,2.89,1.52,1.26.63,2.24,1.4,2.07,3.1-.16,1.64-1.24,2.38-2.48,2.9-1.67.69-3.46.53-5.21.52-32.73-.04-65.45-.08-98.18-.17-2.2,0-3.79.46-5.43,2.31-5.2,5.87-15.68,6.08-21.19.47-1.77-1.8-3.5-2.32-5.81-2.32-33.28-.02-66.55-.12-99.83-.19-.55,0-1.1-.01-1.65-.02-2.22-.04-4.39-.53-4.88-3.12-.5-2.65,1.33-3.87,3.49-4.59.3-.1.56-.34.85-.52Z"/>
    <path class="cls-9" d="M304.22,288.32c-.03-.42-.07-.83-.1-1.25-.05-.69-.11-1.38-.16-2.06-.17-.44-.35-.87-.52-1.31-.11-.64-.21-1.27-.32-1.91h0c-.13-.48-.26-.95-.38-1.43-.96-2.79-3.35-3.1-5.61-3.22-8.01-.43-15.79-2.49-23.69-3.66-4.46-.66-8.85-2.36-13.25-2.67-4.33-.3-8.24-1.96-12.4-2.68-7.38-1.27-14.69-3.12-22.18-3.5-5.91-.3-11.65,1.08-17.38,2.49-7.11,1.75-13.35,5.02-18.37,10.64-1.04,1.16-1.72,3.28-2.89,3.57-1.95.49-2.05-2.22-3.13-3.38-6.28-6.81-14.18-10.24-22.83-12.02-9.44-1.94-18.88-1.13-28.26.63-7.18,1.34-14.27,3.3-21.44,4.6-11.51,2.1-22.91,4.95-34.63,5.74-2.26.15-4.67.55-5.68,3.3h0c-.74.53-1.08,1.16-.51,2.05h0c-.18.45-.35.91-.53,1.37-.49.6-.7,1.25-.29,2-.08.47-.16.94-.24,1.41-.03.52-.07,1.05-.1,1.57-.05.37-.09.75-.14,1.12,1.43.06,2.85.16,4.28.16,33.53,0,67.06.04,100.59-.04,3.36,0,5.75.77,7.63,4.03,2.47,4.27,8.53,4.13,11.41-.25,1.96-2.99,4.38-3.74,7.55-3.74,33.2.04,66.4.03,99.6.02,1.43,0,2.86-.05,4.28-.08-.11-.5-.23-.99-.34-1.49ZM79.52,282.36c1.2,0,2.4-.02,3.61-.05,1.2-.03,2.4-.09,3.6-.16-1.2.07-2.4.13-3.6.16-1.2.03-2.4.05-3.61.05ZM86.4,284.57c-1,0-2,0-3,.01,1,0,2,0,3-.01ZM88.53,282.01c1.2-.1,2.4-.22,3.6-.38-1.2.16-2.4.28-3.6.38ZM98.39,279.15c-.07-.02-.13-.03-.2-.03.07,0,.13.02.2.03ZM74.44,284.26c.99.1,1.99.17,2.98.21-1-.05-1.99-.12-2.98-.21s-1.99-.22-2.98-.39c.99.16,1.98.29,2.98.39ZM285.48,284.48c-1,0-2,0-3,.01,1-.01,2-.01,3-.01ZM288.48,284.49c2,0,4,0,6-.05-2,.05-4,.05-6,.05ZM290.46,282.18c1.2.07,2.4.1,3.61.11-1.2,0-2.41-.05-3.61-.11ZM291.72,285.82c1.02,0,2.04-.04,3.06-.09-1.02.05-2.04.08-3.06.09Z"/>
  </g>
  <path class="cls-4" d="M146.88,224.16c-.3-.12-.56-.08-.84-.04-1.82.25-2.87,2.42-3.09,2.85-.6,1.22-.37,1.63-.78,5.84-.28,2.88-.55,4.33-.08,4.54.17.08.37-.04,1.02-.6,1.46-1.27,2.44-2.13,3.74-4.07.6-.89.9-1.33,1.05-1.71,1.07-2.6.48-6.21-1.03-6.8Z"/>
  <path class="cls-4" d="M148.87,221.4c-.21.2-.28.43-.37.67-.56,1.6.5,3.35.72,3.7.6.99.97.97,3.72,3.02,1.88,1.4,2.77,2.21,3.11,1.91.12-.11.13-.32,0-1.09-.28-1.72-.48-2.88-1.29-4.73-.37-.85-.56-1.28-.76-1.56-1.36-1.93-4.1-2.92-5.12-1.92Z"/>
  <path class="cls-4" d="M144.61,220.1c.11.28.1.52.09.78-.08,1.71-1.71,2.83-2.03,3.06-.92.64-1.25.45-4.52,1.1-2.24.44-3.36.79-3.55.37-.07-.15,0-.35.41-.99.9-1.45,1.52-2.41,2.95-3.75.66-.61.99-.92,1.28-1.09,1.96-1.16,4.84-.84,5.39.52Z"/>
  <path class="cls-1" d="M225.53,108.53c-.14-1.53-.21-2.29-.38-2.85-1.17-3.81-5.13-7.23-7.41-6.58-1.04-1.73-2.26-2.79-2.83-3.24-.21.2-.41.4-.62.61.69.64,1.68,1.71,2.52,3.23-.04.05-.09.09-.13.14-1.85,1.94-1.06,5.29-.9,5.96.45,1.9,1.08,2.13,4.5,7.15,2.34,3.43,3.38,5.27,4.11,5.09.27-.07.39-.38.62-1.6.5-2.74.82-4.58.52-7.91Z"/>
  <path class="cls-1" d="M160.63,136.25c.57-1.15.85-1.72,1.17-2.1,2.18-2.57,6.88-3.87,8.83-2.56,1.47-.99,2.92-1.4,3.58-1.55.14.23.27.46.41.69-.83.26-2.07.75-3.29,1.65.03.05.06.1.09.15,1.18,2.17-.52,4.52-.86,4.99-.96,1.33-1.62,1.29-6.27,4.03-3.18,1.87-4.68,2.95-5.31,2.55-.23-.15-.26-.44-.12-1.47.31-2.32.54-3.88,1.77-6.38Z"/>
  <path class="cls-1" d="M120.63,117.87c-.14-1.53-.21-2.29-.38-2.85-1.17-3.81-5.13-7.23-7.41-6.58-1.04-1.73-2.26-2.79-2.83-3.24-.21.2-.41.4-.62.61.69.64,1.68,1.71,2.52,3.23-.04.05-.09.09-.13.14-1.85,1.94-1.06,5.29-.9,5.96.45,1.9,1.08,2.13,4.5,7.15,2.34,3.43,3.38,5.27,4.11,5.09.27-.07.39-.38.62-1.6.5-2.74.82-4.58.52-7.91Z"/>
  <path class="cls-1" d="M112.98,144.12c-1.11.41-1.67.62-2.05.86-2.61,1.65-4.37,5.36-3.42,6.97-1.08,1.14-1.63,2.29-1.85,2.81.19.12.38.24.58.35.34-.66.94-1.63,1.9-2.57.04.02.08.05.13.07,1.82,1.02,4.16-.25,4.63-.5,1.33-.72,1.37-1.25,4.43-4.87,2.09-2.48,3.26-3.63,2.97-4.16-.11-.19-.37-.22-1.32-.15-2.14.16-3.59.29-6,1.18Z"/>
  <path class="cls-1" d="M254.58,61.94c-.5.99-.74,1.49-.85,1.9-.73,2.8.4,6.45,2.06,6.93-.02,1.47.33,2.6.51,3.09.2-.04.41-.09.61-.13-.18-.66-.39-1.71-.32-2.97.04-.01.09-.02.13-.03,1.88-.48,2.67-2.85,2.82-3.32.45-1.34.15-1.73-.05-6.16-.14-3.02-.07-4.56-.59-4.73-.19-.06-.39.08-.99.74-1.35,1.49-2.25,2.5-3.33,4.66Z"/>
  <path class="cls-1" d="M298.97,68.01c-.29,1.07-.43,1.61-.45,2.04-.15,2.89,1.69,6.23,3.4,6.37.27,1.44.84,2.48,1.12,2.93.19-.08.38-.17.57-.25-.31-.61-.72-1.59-.91-2.84.04-.02.08-.04.12-.06,1.74-.85,2.04-3.33,2.1-3.83.17-1.41-.2-1.73-1.28-6.02-.74-2.93-.98-4.45-1.53-4.51-.2-.02-.36.16-.82.93-1.03,1.74-1.71,2.91-2.33,5.25Z"/>
  <path class="cls-1" d="M327.89,65.08c-.91-1.06-1.36-1.59-1.78-1.91-2.9-2.19-7.75-2.54-9.18-.78-1.71-.71-3.21-.82-3.88-.84-.05.27-.11.53-.16.8.87.1,2.2.34,3.64,1-.01.06-.02.12-.03.17-.42,2.48,1.95,4.54,2.42,4.95,1.34,1.17,1.95.99,7.23,2.83,3.61,1.26,5.37,2.05,5.84,1.51.17-.2.1-.5-.36-1.53-1.04-2.32-1.76-3.88-3.73-6.19Z"/>
  <path class="cls-1" d="M180.03,223.82c.73.83,1.09,1.25,1.43,1.51,2.3,1.72,6.07,2.02,7.13.64,1.34.57,2.51.66,3.03.67.04-.21.07-.42.11-.62-.68-.08-1.71-.27-2.84-.8,0-.05.01-.09.02-.14.26-1.94-1.62-3.56-1.99-3.89-1.06-.92-1.54-.78-5.67-2.24-2.83-1-4.21-1.63-4.56-1.2-.13.16-.07.4.32,1.2.86,1.82,1.46,3.04,3.04,4.86Z"/>
  <path class="cls-1" d="M160.25,204.85c-.92-.6-1.39-.9-1.78-1.06-2.67-1.03-6.38-.27-7.03,1.34-1.44-.18-2.59.06-3.09.19.02.21.04.42.06.63.67-.11,1.72-.21,2.95-.01,0,.05.01.09.02.14.27,1.94,2.52,2.98,2.96,3.19,1.27.59,1.69.33,6.06.6,2.99.18,4.49.41,4.71-.1.08-.19-.04-.4-.63-1.07-1.32-1.52-2.22-2.53-4.23-3.84Z"/>
  <path class="cls-1" d="M58.74,67.08c.09-1.03.14-1.55.26-1.93.79-2.57,3.46-4.89,5.01-4.44.7-1.17,1.53-1.89,1.91-2.19.14.14.28.27.42.41-.47.43-1.14,1.15-1.7,2.18.03.03.06.06.09.09,1.25,1.31.72,3.58.61,4.03-.3,1.28-.73,1.44-3.04,4.83-1.58,2.32-2.28,3.56-2.78,3.44-.18-.05-.27-.26-.42-1.08-.34-1.85-.56-3.1-.35-5.34Z"/>
  <path class="cls-7" d="M100.21,85.36c-.27-.36-.34-.72-.41-1.1-.51-2.5,1.46-4.68,1.86-5.11,1.11-1.23,1.67-1.07,6.22-3.12,3.11-1.4,4.63-2.27,5.07-1.73.16.2.12.51-.23,1.57-.79,2.4-1.33,4-2.94,6.42-.74,1.11-1.11,1.66-1.47,2.01-2.45,2.34-6.77,2.85-8.09,1.06Z"/>
  <path class="cls-7" d="M97.97,89c.14-.34.36-.53.6-.73,1.55-1.32,3.98-.52,4.47-.37,1.38.45,1.51.95,5.01,3.87,2.39,1.99,3.69,2.89,3.5,3.45-.07.2-.31.28-1.22.39-2.06.24-3.44.38-5.88-.03-1.12-.19-1.68-.29-2.08-.45-2.76-1.12-5.07-4.41-4.39-6.12Z"/>
  <path class="cls-7" d="M94.66,83.8c.36.05.62-.05.91-.16,1.89-.72,2.44-3.28,2.55-3.79.31-1.45-.04-1.82-.74-6.4-.48-3.13-.58-4.74-1.14-4.85-.21-.04-.39.13-.94.89-1.23,1.71-2.05,2.87-2.92,5.25-.4,1.09-.6,1.64-.67,2.08-.45,3.02,1.16,6.72,2.94,6.98Z"/>
  <path class="cls-1" d="M305.37,41.32c-.46,1.01-.69,1.52-.78,1.93-.63,2.82.64,6.43,2.31,6.85.03,1.47.42,2.59.62,3.07.2-.05.41-.1.61-.15-.2-.66-.45-1.69-.43-2.96.04-.01.09-.02.13-.04,1.86-.54,2.56-2.94,2.7-3.42.4-1.36.08-1.74-.28-6.15-.25-3.02-.24-4.56-.77-4.7-.19-.05-.38.1-.96.78-1.3,1.54-2.16,2.58-3.16,4.78Z"/>
  <path class="cls-5" d="M50.07,19.77c.25.43.58.63.93.86,2.3,1.46,5.28-.01,5.87-.31,1.68-.83,1.75-1.52,5.63-5.98,2.66-3.05,4.14-4.47,3.78-5.16-.13-.26-.46-.32-1.67-.29-2.72.05-4.55.11-7.61,1.09-1.41.45-2.11.67-2.6.96-3.33,1.96-5.59,6.7-4.33,8.84Z"/>
  <path class="cls-5" d="M45.52,21.03c.4-.03.67-.22.97-.42,1.95-1.3,2.13-4.35,2.17-4.96.11-1.72-.34-2.05-1.85-7.07-1.03-3.43-1.41-5.22-2.03-5.21-.23,0-.41.25-.88,1.25-1.07,2.26-1.77,3.79-2.34,6.71-.26,1.34-.39,2.01-.39,2.53,0,3.54,2.36,7.33,4.35,7.16Z"/>
  <path class="cls-5" d="M49.38,26.64c.09-.43.31-.69.53-.98,1.48-1.89,4.27-1.62,4.83-1.56,1.58.16,1.81.69,6.11,3.1,2.94,1.65,4.51,2.33,4.4,3.01-.04.25-.29.4-1.27.75-2.21.8-3.7,1.32-6.44,1.48-1.26.07-1.88.11-2.35.03-3.21-.56-6.26-3.69-5.8-5.81Z"/>
  <path class="cls-2" d="M.73,12.41c45.83,20.31,71.37,46.47,83.23,75.37,9.79,23.85,5.59,38.15,16.25,59.24,13.48,26.66,42.79,48.45,96.39,60.61"/>
  <path class="cls-1" d="M1.14,11.48c-.38-.05-.76-.09-1.14-.14.11.67.23,1.34.34,2.01.27-.62.53-1.25.8-1.87Z"/>
  <path class="cls-5" d="M47.04,100.53c.17.41.16.78.15,1.17-.09,2.55-2.51,4.2-2.99,4.53-1.37.93-1.87.64-6.77,1.55-3.35.62-5.02,1.1-5.33.47-.11-.23,0-.52.59-1.47,1.32-2.14,2.23-3.57,4.35-5.54.98-.9,1.46-1.35,1.89-1.6,2.93-1.69,7.25-1.16,8.11.9Z"/>
  <path class="cls-5" d="M50.06,97.52c-.21.3-.47.43-.75.57-1.82.91-3.99-.44-4.43-.71-1.23-.76-1.25-1.28-3.97-4.95-1.86-2.51-2.91-3.69-2.6-4.18.11-.18.37-.2,1.28-.08,2.05.26,3.44.45,5.71,1.43,1.04.45,1.57.68,1.92.93,2.43,1.75,3.9,5.49,2.84,6.99Z"/>
  <path class="cls-5" d="M52.07,103.36c-.34-.13-.62-.1-.93-.06-2,.25-3.13,2.61-3.36,3.08-.64,1.33-.38,1.78-.77,6.39-.27,3.16-.54,4.74-.02,4.98.19.09.41-.04,1.12-.64,1.6-1.37,2.66-2.3,4.06-4.41.64-.97.97-1.45,1.13-1.86,1.14-2.83.44-6.81-1.23-7.48Z"/>
  <path class="cls-1" d="M329.09,90.41c-3.74-.41-4.01-.57-5.25-.48-.16.01-.54.04-1,.1v-.05c-.08.03-.17.06-.25.09-.5.08-1.07.21-1.53.4-.82.14-1.73.16-2.7-.06-.64-.14-1.21-.37-1.7-.61-.79-2.19-1.64-3.75-2.35-5.04-1.26-2.3-3.52-5.77-7.39-9.27-.24.43-.48.86-.73,1.29,1.19,1.16,2.5,2.6,3.81,4.32,1.05,1.38,2.41,3.19,3.63,5.75.62,1.3.89,2.15,1.23,3.26.03.7.02,1.56-.16,2.47-.27,1.39-.86,2.53-1.49,3.42-.89.78-2,2.15-2.81,3.57-.2.35-.41.82-.84,1.76-.94,2.04-1.29,3.17-1.82,4.83-.23.74-.27.93-.2.96.19.1,1-1.06,2.64-3.22,2.4-3.16,2.67-3.32,3.29-4.49.15-.28.72-1.36,1.02-2.37.17-.33.33-.67.49-1.03.39-.88.69-1.73.94-2.54.56,1.62,1.39,3.83,2.57,6.44.21,1.22.92,3.1,1.84,4.65.2.34.5.76,1.1,1.58,1.3,1.79,2.08,2.62,3.24,3.85.51.54.66.66.72.6.16-.15-.45-1.44-1.55-3.97-1.6-3.71-1.62-4.04-2.33-5.16-.18-.29-.92-1.44-1.69-2.17-.24-.56-.53-1.27-.84-2.08-.88-2.34-1.23-3.82-1.68-5.39,1.1.19,2.38.32,3.82.26.09,0,.17-.01.26-.02,1.09.37,2.75.62,4.28.56.38-.01.85-.08,1.81-.21,2.08-.29,3.13-.59,4.69-1.04.69-.2.86-.27.84-.36-.03-.23-1.36-.32-3.92-.6Z"/>
  <path class="cls-1" d="M210.64,177.56c-.97,2.13-1.1,2.25-1.31,3.01-.03.09-.09.33-.15.61h-.03s0,.1,0,.16c-.06.31-.12.67-.11.99-.1.51-.28,1.06-.58,1.58-.2.35-.43.64-.65.88-1.25.02-2.2.2-2.98.36-1.4.28-3.58.9-6.11,2.47.16.23.33.46.49.69.82-.47,1.8-.95,2.93-1.37.9-.34,2.08-.77,3.6-.97.77-.1,1.25-.09,1.87-.06.35.13.78.31,1.19.6.64.45,1.08,1.03,1.4,1.58.21.68.66,1.62,1.2,2.39.13.19.32.41.7.86.82.97,1.31,1.41,2.03,2.06.32.29.41.35.44.31.09-.1-.32-.81-1.06-2.22-1.08-2.06-1.1-2.25-1.56-2.86-.11-.15-.53-.71-.97-1.09-.13-.16-.26-.33-.41-.5-.36-.41-.72-.76-1.07-1.07.92,0,2.19-.04,3.72-.2.65.12,1.73.09,2.68-.14.21-.05.48-.14,1.01-.33,1.15-.4,1.73-.69,2.57-1.13.37-.19.46-.25.45-.3-.04-.13-.81-.03-2.29.1-2.17.19-2.34.13-3.04.32-.18.05-.9.25-1.42.56-.33.03-.74.06-1.2.07-1.34.04-2.15-.05-3.02-.11.32-.61.64-1.34.91-2.2.02-.05.03-.1.04-.16.41-.57.87-1.5,1.15-2.42.07-.22.13-.52.26-1.11.28-1.29.35-1.97.44-2.99.04-.45.04-.56,0-.57-.12-.03-.44.74-1.1,2.19Z"/>
  <path class="cls-1" d="M201.82,84.99c2.32.47,2.48.58,3.26.6.1,0,.34,0,.63,0v.03s.1-.03.16-.04c.32-.02.68-.07.98-.16.52-.04,1.09,0,1.69.19.39.13.74.3,1.03.48.39,1.42.85,2.44,1.23,3.28.68,1.51,1.93,3.81,4.18,6.22.17-.25.34-.51.52-.76-.69-.8-1.44-1.77-2.18-2.92-.59-.93-1.36-2.13-2-3.8-.33-.85-.46-1.39-.61-2.11.01-.44.06-.97.22-1.53.24-.86.66-1.53,1.09-2.06.59-.44,1.35-1.23,1.93-2.08.14-.21.3-.49.61-1.05.68-1.23.96-1.91,1.37-2.92.18-.45.21-.57.17-.59-.12-.07-.68.6-1.8,1.86-1.65,1.84-1.83,1.93-2.27,2.63-.11.17-.52.81-.75,1.43-.12.2-.24.4-.35.61-.29.53-.52,1.05-.71,1.53-.27-1.05-.68-2.48-1.3-4.17-.07-.77-.43-1.99-.93-3.01-.11-.23-.28-.5-.61-1.05-.73-1.19-1.18-1.76-1.84-2.59-.3-.37-.38-.45-.42-.42-.11.09.21.93.78,2.57.83,2.41.82,2.62,1.21,3.36.1.19.51.96.96,1.46.12.37.27.82.43,1.35.44,1.51.59,2.46.8,3.46-.68-.18-1.48-.33-2.37-.38-.06,0-.11,0-.16,0-.66-.29-1.69-.54-2.65-.59-.24-.01-.54,0-1.14.03-1.31.06-1.99.19-2.98.39-.44.09-.55.12-.55.18.01.15.84.28,2.42.6Z"/>
  <path class="cls-1" d="M131.23,161.46c2.29,2.77,2.39,3.06,3.27,3.83.11.1.39.33.73.6l-.03.04c.07.03.15.07.22.11.39.28.83.57,1.25.75.63.46,1.26,1.05,1.79,1.84.35.52.61,1.06.8,1.55-.7,2-1,3.62-1.24,4.96-.44,2.39-.86,6.24-.21,11.17.4-.13.81-.26,1.21-.38-.15-1.58-.23-3.42-.15-5.46.07-1.63.16-3.76.77-6.3.31-1.29.6-2.04,1-3.02.37-.49.86-1.06,1.49-1.56.96-.76,2-1.13,2.92-1.32,1.04.06,2.55-.11,3.9-.53.33-.1.74-.28,1.55-.62,1.78-.75,2.65-1.27,3.93-2.05.57-.34.7-.45.67-.52-.08-.2-1.27.05-3.58.41-3.39.53-3.66.46-4.74.84-.26.09-1.25.43-2.02.92-.29.11-.59.23-.9.37-.76.34-1.44.71-2.05,1.09.53-1.47,1.21-3.51,1.87-6.06.54-.96,1.12-2.7,1.36-4.36.05-.37.08-.84.14-1.8.13-2.07.07-3.15-.03-4.75-.04-.71-.07-.88-.14-.89-.2,0-.5,1.27-1.18,3.71-1,3.57-1.17,3.81-1.32,5.03-.04.32-.19,1.59-.08,2.59-.15.54-.35,1.21-.6,1.96-.72,2.16-1.31,3.39-1.88,4.75-.63-.86-1.43-1.8-2.43-2.72-.06-.06-.12-.11-.18-.16-.53-.97-1.51-2.25-2.57-3.23-.26-.24-.62-.51-1.34-1.06-1.56-1.19-2.44-1.69-3.75-2.42-.58-.32-.73-.39-.77-.32-.11.18.74,1.12,2.31,3.02Z"/>
  <path class="cls-1" d="M366.19,41.18c-1.51-2.88-1.54-3.15-2.18-4-.08-.11-.28-.37-.53-.67.01,0,.02-.02.03-.02-.06-.04-.11-.09-.17-.14-.29-.32-.63-.67-.96-.91-.47-.53-.91-1.17-1.23-1.97-.21-.53-.34-1.05-.43-1.51.95-1.6,1.49-2.94,1.94-4.05.79-1.99,1.83-5.24,2.12-9.67-.37.03-.75.06-1.12.08-.14,1.4-.39,3.02-.82,4.77-.34,1.4-.79,3.24-1.76,5.31-.49,1.06-.87,1.65-1.39,2.41-.41.35-.93.75-1.56,1.05-.97.46-1.93.57-2.77.54-.89-.27-2.24-.43-3.48-.34-.3.02-.69.09-1.46.22-1.67.29-2.52.56-3.77.97-.55.18-.69.24-.67.31.03.19,1.11.22,3.18.38,3.03.24,3.26.35,4.26.25.24-.03,1.16-.12,1.91-.38.28-.04.56-.08.85-.13.72-.13,1.37-.32,1.97-.52-.72,1.16-1.66,2.8-2.68,4.88-.63.72-1.44,2.12-1.94,3.51-.11.31-.22.72-.43,1.53-.47,1.78-.6,2.73-.8,4.14-.09.62-.09.78-.03.8.17.05.65-1,1.67-2.98,1.48-2.9,1.68-3.07,2.02-4.1.09-.27.44-1.34.51-2.24.23-.44.51-.98.86-1.58,1-1.73,1.73-2.68,2.46-3.74.4.88.93,1.86,1.64,2.86.04.06.09.12.13.18.29.96.92,2.26,1.68,3.34.19.26.45.57.98,1.2,1.15,1.36,1.83,1.97,2.84,2.88.45.4.57.49.61.44.12-.13-.45-1.13-1.48-3.1Z"/>
  <path class="cls-1" d="M269.59,48.72c3.44.7,3.68.86,4.84.89.15,0,.5,0,.94-.01v.05c.07-.02.15-.04.23-.06.47-.03,1-.1,1.45-.24.77-.06,1.62,0,2.5.28.58.19,1.1.45,1.53.71.58,2.1,1.26,3.62,1.82,4.87,1.01,2.24,2.85,5.65,6.19,9.22.25-.38.51-.76.76-1.13-1.02-1.18-2.14-2.62-3.23-4.33-.87-1.37-2.01-3.16-2.96-5.63-.48-1.26-.68-2.06-.91-3.12.02-.65.09-1.44.32-2.27.35-1.27.98-2.27,1.62-3.05.88-.65,2.01-1.82,2.86-3.08.21-.31.44-.72.9-1.56,1.01-1.82,1.42-2.83,2.02-4.33.27-.67.32-.84.25-.88-.17-.11-1,.9-2.67,2.76-2.45,2.73-2.71,2.85-3.37,3.89-.16.25-.77,1.2-1.12,2.11-.18.29-.35.59-.53.91-.43.79-.77,1.55-1.05,2.27-.4-1.55-1.01-3.67-1.93-6.19-.11-1.15-.63-2.95-1.38-4.47-.17-.34-.41-.74-.91-1.56-1.08-1.77-1.74-2.61-2.73-3.84-.44-.55-.56-.67-.62-.62-.16.13.32,1.37,1.16,3.82,1.23,3.57,1.22,3.89,1.8,4.98.15.28.75,1.42,1.42,2.16.18.54.4,1.22.63,2,.65,2.24.87,3.64,1.18,5.13-1.01-.27-2.19-.49-3.52-.56-.08,0-.16,0-.24,0-.98-.43-2.5-.8-3.93-.88-.35-.02-.8,0-1.69.05-1.95.09-2.95.28-4.42.57-.65.13-.81.18-.81.26.02.22,1.24.41,3.59.89Z"/>
  <path class="cls-1" d="M88.83,60.36c-2.6-.89-2.83-.87-3.63-1.32-.1-.06-.35-.19-.64-.38v.04c-.06-.05-.11-.09-.16-.14-.32-.21-.66-.47-.91-.75-.51-.35-1.12-.65-1.82-.8-.46-.1-.91-.13-1.3-.12-1.1,1.22-2.08,1.99-2.89,2.63-1.45,1.14-3.86,2.75-7.36,3.88-.05-.36-.1-.72-.15-1.09,1.1-.4,2.35-.95,3.68-1.69,1.06-.6,2.45-1.38,3.93-2.7.75-.67,1.16-1.15,1.67-1.79.2-.46.42-1.03.54-1.7.18-1.02.09-1.96-.09-2.75-.39-.8-.77-2.06-.94-3.26-.04-.29-.06-.67-.1-1.44-.09-1.66-.03-2.52.06-3.79.04-.56.06-.7.12-.71.16,0,.39,1.02.92,2.97.77,2.86.91,3.05,1.02,4.03.03.24.13,1.13.06,1.9.02.27.05.55.06.84.03.71,0,1.37-.04,1.99.8-.91,1.93-2.13,3.41-3.49.46-.75,1.43-1.78,2.45-2.53.23-.17.53-.35,1.15-.71,1.34-.79,2.08-1.1,3.17-1.55.49-.2.61-.24.64-.18.07.15-.68.82-2.08,2.17-2.04,1.97-2.14,2.19-2.91,2.71-.2.14-.99.68-1.7.92-.31.3-.69.68-1.11,1.13-1.2,1.29-1.82,2.16-2.54,3.07.78.21,1.67.53,2.61,1.02.06.03.11.06.17.09.82.1,1.99.45,3.01.97.25.13.55.32,1.15.71,1.31.84,1.93,1.37,2.86,2.16.41.35.5.45.47.5-.08.14-.99-.21-2.77-.82Z"/>
  <path class="cls-1" d="M36.27,52.87c2.72.22,2.93.15,3.81.38.11.03.38.1.7.21v-.04c.06.03.12.07.17.1.35.13.74.3,1.05.5.57.21,1.22.36,1.94.33.47-.02.91-.1,1.29-.2.82-1.46,1.61-2.46,2.26-3.28,1.17-1.47,3.19-3.64,6.36-5.6.12.34.25.68.37,1.02-.99.67-2.09,1.51-3.23,2.56-.91.84-2.1,1.95-3.27,3.61-.59.84-.89,1.41-1.26,2.16-.1.5-.19,1.11-.17,1.79.03,1.03.32,1.93.67,2.65.54.68,1.18,1.81,1.59,2.94.1.28.2.64.4,1.37.43,1.59.56,2.44.73,3.71.08.56.08.7.03.72-.15.04-.59-.89-1.51-2.67-1.35-2.59-1.52-2.74-1.83-3.67-.08-.22-.36-1.07-.46-1.84-.08-.26-.16-.52-.23-.8-.18-.69-.29-1.34-.38-1.95-.59,1.08-1.44,2.55-2.59,4.25-.29.84-1.02,2.09-1.86,3.07-.19.22-.45.47-.97.98-1.14,1.1-1.79,1.59-2.76,2.3-.43.32-.55.38-.58.33-.1-.13.49-.97,1.57-2.63,1.58-2.43,1.63-2.67,2.27-3.37.17-.18.82-.91,1.46-1.32.24-.37.53-.83.84-1.37.9-1.55,1.32-2.56,1.83-3.62-.81-.01-1.74-.1-2.76-.34-.06-.01-.12-.03-.18-.05-.82.11-2.04.06-3.13-.19-.27-.06-.6-.18-1.27-.4-1.45-.5-2.17-.86-3.23-1.4-.47-.24-.58-.31-.56-.37.05-.16,1.01-.04,2.87.11Z"/>
  <path class="cls-1" d="M125.11,86.64c-.81,2.85-.95,3.04-1.07,4.01-.02.12-.05.42-.08.79h-.03c0,.06.02.13.02.2-.02.4-.02.86.04,1.24-.03.66-.14,1.37-.42,2.09-.19.47-.42.89-.64,1.23-1.54.3-2.68.74-3.62,1.1-1.68.65-4.27,1.91-7.11,4.41.25.25.49.5.74.75.93-.76,2.05-1.57,3.37-2.34,1.05-.62,2.43-1.42,4.27-2,.94-.3,1.53-.39,2.3-.49.46.08,1.02.21,1.59.48.87.41,1.53,1.03,2.02,1.65.38.8,1.11,1.86,1.93,2.7.2.2.47.44,1.03.91,1.2,1.02,1.88,1.46,2.89,2.1.45.29.57.34.6.29.09-.14-.55-.93-1.72-2.51-1.72-2.31-1.78-2.55-2.46-3.2-.16-.16-.78-.76-1.4-1.13-.19-.18-.39-.35-.6-.53-.52-.43-1.03-.79-1.52-1.09,1.14-.2,2.7-.53,4.57-1.08.82,0,2.15-.27,3.3-.77.25-.11.56-.28,1.19-.63,1.36-.75,2.01-1.24,2.97-1.97.43-.32.52-.41.5-.47-.08-.15-1,.15-2.81.63-2.65.72-2.87.68-3.7,1.07-.22.1-1.07.51-1.66,1-.4.11-.9.23-1.48.35-1.65.35-2.67.41-3.75.54.28-.83.55-1.81.72-2.93.01-.07.02-.13.03-.2.4-.79.8-2.05.98-3.25.04-.29.07-.67.12-1.43.11-1.65.06-2.52-.01-3.79-.03-.57-.05-.7-.11-.71-.16,0-.4,1.01-.95,2.96Z"/>
  <path class="cls-1" d="M167.79,182.6c1.7,2.06,1.78,2.28,2.43,2.85.08.07.29.25.55.45l-.02.03c.05.02.11.05.16.08.29.21.62.43.93.56.47.34.94.78,1.33,1.37.26.39.45.79.6,1.15-.52,1.49-.74,2.7-.92,3.69-.32,1.78-.64,4.64-.16,8.32.3-.1.6-.19.9-.29-.11-1.18-.17-2.54-.11-4.06.05-1.21.12-2.8.57-4.69.23-.96.45-1.52.74-2.24.28-.37.64-.79,1.11-1.16.72-.56,1.49-.84,2.17-.98.77.05,1.9-.08,2.9-.4.24-.08.55-.21,1.15-.46,1.32-.56,1.97-.95,2.92-1.52.42-.26.52-.33.5-.39-.06-.15-.94.03-2.67.3-2.52.4-2.72.34-3.52.62-.19.07-.93.32-1.5.68-.22.08-.44.17-.67.27-.57.25-1.07.53-1.53.81.4-1.09.9-2.61,1.39-4.51.4-.71.83-2.01,1.01-3.25.04-.27.06-.63.11-1.34.09-1.54.05-2.35-.02-3.54-.03-.53-.05-.66-.11-.66-.15,0-.37.95-.88,2.76-.74,2.66-.87,2.83-.98,3.75-.03.24-.14,1.18-.06,1.93-.11.4-.26.9-.45,1.46-.53,1.61-.97,2.53-1.4,3.54-.47-.64-1.06-1.34-1.81-2.02-.05-.04-.09-.08-.14-.12-.39-.72-1.12-1.67-1.92-2.41-.19-.18-.46-.38-1-.79-1.16-.89-1.82-1.26-2.79-1.8-.43-.24-.54-.29-.57-.24-.08.13.55.84,1.72,2.25Z"/>
  <path class="cls-1" d="M56.88,144.38c1.86-1.01,2.03-1.02,2.59-1.47.07-.06.24-.19.44-.37v.02s.08-.08.11-.12c.21-.2.44-.44.61-.68.35-.33.77-.63,1.28-.84.34-.14.67-.21.96-.26.96.77,1.78,1.23,2.46,1.6,1.21.67,3.2,1.57,5.96,1.96,0-.28,0-.56,0-.84-.87-.16-1.87-.41-2.95-.79-.86-.31-1.99-.72-3.25-1.52-.64-.41-1-.72-1.45-1.13-.2-.32-.43-.72-.59-1.2-.25-.74-.28-1.46-.23-2.08.2-.65.35-1.65.35-2.57,0-.23-.03-.51-.08-1.09-.12-1.26-.25-1.9-.46-2.84-.09-.42-.12-.52-.17-.51-.12.02-.18.82-.36,2.35-.27,2.25-.35,2.41-.32,3.16,0,.18.03.87.16,1.44.01.21.03.42.05.64.06.54.14,1.03.25,1.49-.7-.58-1.68-1.35-2.94-2.18-.43-.5-1.27-1.15-2.12-1.58-.19-.09-.44-.19-.94-.38-1.09-.42-1.68-.56-2.55-.75-.39-.09-.48-.1-.5-.05-.04.12.6.53,1.8,1.36,1.75,1.22,1.85,1.37,2.48,1.66.16.08.82.38,1.38.47.27.19.59.42.95.7,1.04.81,1.61,1.39,2.24,1.97-.57.26-1.2.62-1.85,1.11-.04.03-.08.06-.12.09-.61.18-1.45.6-2.15,1.12-.17.13-.38.31-.79.68-.89.8-1.3,1.28-1.91,2-.27.32-.33.4-.3.44.08.1.72-.29,1.99-.98Z"/>
  <path class="cls-1" d="M73.7,180.66c-.13.11-.95-.58-2.56-1.87-2.37-1.89-2.6-1.95-3.28-2.7-.16-.19-.78-.88-1.18-1.58-.05-.07-.11-.12-.15-.19-.14-.16-.27-.31-.4-.48-.45-.58-.83-1.17-1.15-1.72-.14,1.31-.37,3.13-.79,5.3-.01.03-.01.07-.02.1.05.97-.15,2.54-.58,3.91-.09.29-.25.67-.56,1.41-.67,1.63-1.11,2.42-1.77,3.59-.3.52-.38.63-.43.61-.15-.08.08-1.19.46-3.33.57-3.13.52-3.39.85-4.39.09-.26.44-1.28.9-1.99,0-.02.01-.04.01-.08.08-.46.16-1.03.26-1.67.25-1.95.26-3.14.33-4.42-.8.37-1.75.74-2.84,1-.06.01-.1.02-.15.02-.01.01-.03.01-.04.01-.76.5-1.97,1.04-3.15,1.32-.28.07-.66.11-1.4.21-1.61.21-2.47.21-3.72.19-.56,0-.7-.02-.7-.09,0-.19.99-.54,2.85-1.28,2.76-1.09,2.93-1.27,3.89-1.46.12-.02.41-.09.77-.13,0-.01,0-.02-.01-.03.07,0,.14.01.21.01.37-.04.77-.07,1.12-.02.04-.01.07,0,.1,0,.65-.07,1.34-.24,2.04-.61.45-.24.84-.54,1.17-.82v-.03l1.53.47c.09.39.23.83.42,1.26.37.81.86,1.44,1.37,1.94.12.12.24.24.36.34.81.4,1.89,1.2,2.76,2.11.21.22.45.53.95,1.14,1.06,1.36,1.53,2.13,2.22,3.28.3.5.36.64.32.68Z"/>
  <path class="cls-1" d="M163.98,110.39c.12-.1.88.54,2.39,1.75,2.2,1.76,2.42,1.82,3.06,2.52.15.18.73.82,1.1,1.47.05.06.11.11.14.18.13.15.25.29.37.45.42.54.78,1.09,1.07,1.6.13-1.22.34-2.92.74-4.93,0-.03,0-.06.02-.09-.05-.9.14-2.36.54-3.64.09-.27.23-.63.52-1.32.62-1.52,1.03-2.26,1.65-3.35.28-.48.35-.59.4-.56.14.07-.08,1.11-.43,3.11-.53,2.92-.49,3.16-.8,4.09-.09.24-.41,1.19-.84,1.85,0,.02,0,.04,0,.07-.08.43-.15.96-.24,1.56-.23,1.82-.24,2.93-.31,4.12.75-.34,1.63-.69,2.64-.93.06-.01.1-.02.14-.02,0-.01.03-.01.04-.01.71-.47,1.84-.97,2.93-1.23.26-.06.61-.1,1.3-.2,1.5-.2,2.3-.2,3.47-.18.52,0,.65.02.65.08,0,.18-.92.5-2.65,1.19-2.57,1.01-2.73,1.18-3.62,1.36-.12.02-.38.08-.72.13,0,.01,0,.02,0,.03-.07,0-.13-.01-.19-.01-.34.04-.72.06-1.04.02-.04.01-.07,0-.1,0-.6.06-1.25.22-1.9.56-.42.22-.79.5-1.09.76v.03l-1.43-.44c-.09-.37-.21-.77-.39-1.17-.34-.75-.8-1.34-1.27-1.81-.11-.11-.22-.22-.34-.31-.76-.38-1.76-1.12-2.57-1.97-.19-.21-.42-.49-.88-1.07-.99-1.27-1.43-1.99-2.07-3.05-.28-.47-.34-.6-.3-.64Z"/>
  <path class="cls-1" d="M293.46,96.84c-.15-.03-.23-1.08-.43-3.1-.3-2.96-.41-3.18-.36-4.16.02-.24.06-1.14.25-1.88,0-.08,0-.16.02-.24,0-.21.03-.4.05-.6.08-.71.21-1.36.36-1.94-.92.72-2.2,1.69-3.83,2.74-.03.01-.05.03-.08.05-.57.65-1.69,1.48-2.82,2.03-.24.11-.58.24-1.24.47-1.44.52-2.22.69-3.37.94-.51.1-.64.11-.65.06-.05-.17.8-.69,2.39-1.75,2.33-1.55,2.46-1.74,3.3-2.12.22-.09,1.08-.47,1.82-.57.01-.01.03-.02.06-.04.34-.23.75-.53,1.21-.86,1.38-1.04,2.14-1.79,2.99-2.54-.74-.37-1.57-.84-2.42-1.5-.05-.04-.08-.06-.11-.1-.01,0-.03-.02-.03-.02-.8-.25-1.9-.82-2.81-1.52-.22-.17-.49-.42-1.01-.91-1.15-1.08-1.69-1.71-2.46-2.67-.35-.42-.43-.54-.38-.58.12-.12.96.4,2.6,1.33,2.42,1.38,2.64,1.4,3.37,1.99.09.08.32.25.57.49,0,0,.01-.01.01-.03.05.05.08.11.12.16.26.25.53.54.72.83.03.02.05.05.06.08.45.44.99.85,1.66,1.14.43.19.87.29,1.25.36l.02-.02.67,1.44c-.19.32-.38.69-.53,1.11-.28.79-.36,1.55-.36,2.25,0,.17,0,.33.01.48.26.86.44,2.17.41,3.39-.01.3-.05.67-.12,1.43-.19,1.65-.38,2.49-.66,3.73-.13.54-.18.67-.23.67Z"/>
  <path class="cls-1" d="M311.34,21.51c2.43.49,2.6.61,3.42.63.1,0,.36,0,.66,0v.03c.05-.02.11-.03.17-.04.33-.02.71-.07,1.02-.17.55-.04,1.15,0,1.77.2.41.13.78.32,1.09.5.41,1.48.89,2.56,1.29,3.44.71,1.58,2.02,4,4.38,6.52.18-.27.36-.53.54-.8-.72-.83-1.51-1.85-2.28-3.06-.62-.97-1.42-2.24-2.09-3.99-.34-.89-.48-1.46-.64-2.21.02-.46.07-1.02.23-1.61.25-.9.69-1.61,1.15-2.16.62-.46,1.42-1.29,2.02-2.18.15-.22.31-.51.64-1.1.72-1.29,1.01-2,1.43-3.06.19-.47.22-.59.18-.62-.12-.08-.71.63-1.89,1.95-1.73,1.93-1.91,2.02-2.38,2.75-.11.18-.54.85-.79,1.5-.12.2-.25.42-.37.64-.3.56-.54,1.1-.74,1.61-.28-1.1-.72-2.6-1.37-4.38-.08-.81-.45-2.09-.98-3.16-.12-.24-.29-.53-.64-1.1-.76-1.25-1.23-1.84-1.93-2.72-.31-.39-.4-.47-.44-.44-.12.09.22.97.82,2.7.87,2.53.86,2.75,1.27,3.52.11.2.53,1,1,1.53.13.38.29.86.45,1.42.46,1.59.62,2.58.84,3.63-.71-.19-1.55-.35-2.49-.4-.06,0-.11,0-.17,0-.7-.31-1.77-.57-2.78-.62-.25-.01-.56,0-1.2.03-1.38.07-2.08.2-3.13.41-.46.09-.58.13-.57.18.01.15.88.29,2.54.63Z"/>
  <path class="cls-7" d="M243.38,95.95c.33-.26.65-.32,1-.38,2.27-.4,4.25,1.8,4.65,2.24,1.12,1.24.98,1.82,2.84,6.73,1.28,3.36,2.07,5.01,1.58,5.44-.18.16-.46.1-1.43-.33-2.18-.96-3.64-1.63-5.83-3.45-1.01-.84-1.51-1.26-1.82-1.66-2.13-2.71-2.61-7.3-.98-8.6Z"/>
  <path class="cls-7" d="M240.07,93.39c.31.16.48.41.67.67,1.2,1.71.48,4.23.34,4.73-.4,1.43-.86,1.54-3.5,5.08-1.81,2.42-2.62,3.74-3.12,3.51-.19-.08-.26-.34-.35-1.31-.22-2.18-.35-3.66.02-6.21.17-1.17.26-1.76.4-2.18,1.01-2.86,3.99-5.11,5.55-4.3Z"/>
  <path class="cls-7" d="M244.78,90.18c-.05.38.05.66.15.97.66,2.03,2.99,2.75,3.45,2.9,1.32.41,1.65.06,5.81-.43,2.84-.33,4.3-.36,4.4-.94.04-.21-.12-.42-.81-1.04-1.56-1.39-2.61-2.32-4.78-3.37-.99-.48-1.49-.73-1.89-.82-2.75-.64-6.1.86-6.33,2.72Z"/>
  <path class="cls-1" d="M249.75,89.87c-2.36-.16-2.53-.25-3.31-.16-.1.01-.34.04-.63.09v-.03c-.05.02-.1.04-.16.06-.31.06-.66.16-.95.29-.51.11-1.08.15-1.69.03-.4-.07-.77-.2-1.08-.34-.54-1.35-1.11-2.31-1.58-3.1-.84-1.41-2.33-3.53-4.84-5.62-.14.28-.28.55-.43.83.77.7,1.63,1.56,2.49,2.61.69.84,1.58,1.94,2.4,3.51.42.8.61,1.32.84,2.01.03.44.05.98-.05,1.55-.14.88-.48,1.61-.86,2.19-.54.51-1.21,1.4-1.68,2.31-.12.22-.24.52-.49,1.12-.54,1.31-.74,2.02-1.03,3.08-.13.47-.15.59-.1.61.12.06.6-.69,1.59-2.09,1.43-2.05,1.6-2.15,1.97-2.91.09-.18.42-.87.59-1.52.1-.21.19-.43.28-.66.23-.57.4-1.11.53-1.62.39,1,.95,2.37,1.76,3.97.16.76.64,1.92,1.26,2.87.14.21.33.46.72.96.85,1.09,1.36,1.59,2.12,2.33.33.33.43.4.46.36.1-.1-.31-.89-1.06-2.45-1.09-2.29-1.11-2.49-1.58-3.18-.12-.18-.61-.88-1.11-1.32-.16-.35-.36-.78-.57-1.28-.6-1.44-.86-2.36-1.18-3.33.69.09,1.5.14,2.4.06.06,0,.11-.01.16-.02.69.2,1.74.32,2.7.24.24-.02.53-.07,1.13-.18,1.3-.24,1.95-.45,2.92-.78.43-.14.53-.19.52-.25-.03-.14-.86-.16-2.47-.28Z"/>
  <path class="cls-1" d="M153.07,226.29c-.09.07-.61-.37-1.64-1.2-1.52-1.21-1.67-1.25-2.1-1.73-.11-.12-.5-.56-.76-1.01-.03-.04-.07-.08-.1-.12-.09-.1-.17-.2-.26-.31-.29-.37-.53-.75-.74-1.1-.09.84-.24,2.01-.51,3.4,0,.02,0,.04-.01.06.03.62-.1,1.63-.37,2.5-.06.19-.16.43-.36.91-.43,1.04-.71,1.55-1.13,2.3-.19.33-.24.4-.28.39-.1-.05.05-.76.3-2.14.36-2.01.34-2.17.55-2.81.06-.17.28-.82.58-1.27,0-.01,0-.03,0-.05.05-.29.11-.66.16-1.07.16-1.25.16-2.01.21-2.83-.51.24-1.12.47-1.82.64-.04,0-.07.01-.1.01,0,0-.02,0-.03,0-.49.32-1.27.67-2.02.85-.18.04-.42.07-.9.14-1.03.14-1.58.14-2.39.12-.36,0-.45-.01-.45-.06,0-.12.63-.35,1.83-.82,1.77-.7,1.88-.81,2.49-.94.08-.01.26-.06.49-.09,0,0,0-.01,0-.02.05,0,.09,0,.13,0,.24-.03.49-.04.72-.01.03,0,.05,0,.07,0,.42-.04.86-.15,1.31-.39.29-.15.54-.35.75-.53v-.02l.98.3c.06.25.15.53.27.81.24.52.55.92.88,1.24.08.08.15.15.23.22.52.26,1.21.77,1.77,1.35.13.14.29.34.61.73.68.87.98,1.37,1.42,2.1.19.32.23.41.2.44Z"/>
  <path class="cls-1" d="M94.08,78.32c-.02,2.59-.1,2.78.03,3.64.02.11.06.37.12.69h-.03c.02.06.05.11.07.17.08.35.19.73.33,1.05.13.56.2,1.19.13,1.87-.05.44-.15.84-.26,1.19-1.25.59-2.13,1.22-2.85,1.74-1.29.92-3.21,2.56-5.05,5.31.27.16.54.31.81.47.62-.85,1.39-1.79,2.33-2.73.76-.76,1.75-1.74,3.19-2.64.73-.46,1.22-.67,1.86-.92.41-.04.92-.05,1.47.05.84.16,1.55.54,2.12.95.52.59,1.39,1.33,2.29,1.86.22.13.51.27,1.09.54,1.27.6,1.96.82,2.98,1.14.45.14.57.16.58.11.05-.14-.69-.67-2.07-1.75-2.02-1.58-2.13-1.77-2.86-2.17-.18-.1-.85-.47-1.47-.65-.2-.11-.41-.21-.64-.31-.55-.25-1.07-.44-1.56-.59.93-.42,2.19-1.05,3.66-1.92.71-.17,1.78-.7,2.65-1.38.19-.15.42-.36.87-.8.98-.94,1.43-1.5,2.09-2.33.29-.37.35-.47.32-.51-.1-.11-.83.34-2.26,1.16-2.1,1.19-2.3,1.21-2.92,1.73-.16.13-.8.67-1.19,1.22-.32.18-.72.4-1.18.63-1.33.66-2.19.94-3.09,1.29.05-.76.04-1.65-.07-2.64,0-.06-.02-.12-.03-.18.15-.76.2-1.91.07-2.97-.03-.26-.1-.59-.24-1.24-.3-1.43-.54-2.15-.9-3.22-.16-.47-.21-.59-.26-.57-.13.03-.11.95-.12,2.72Z"/>
  <path class="cls-7" d="M241.34,67.58c-.28,0-.47-.12-.67-.25-1.33-.8-1.42-2.81-1.43-3.21-.05-1.14.27-1.37,1.39-4.75.77-2.31,1.05-3.51,1.49-3.52.16,0,.28.15.59.8.71,1.46,1.17,2.45,1.53,4.37.16.88.24,1.32.23,1.67-.06,2.35-1.75,4.94-3.13,4.89Z"/>
  <path class="cls-7" d="M241.95,70.37c-.09-.22-.07-.42-.06-.64.11-1.42,1.54-2.41,1.82-2.6.81-.56,1.09-.42,3.93-1.08,1.94-.45,2.92-.78,3.08-.44.06.12-.01.29-.37.83-.81,1.23-1.36,2.05-2.63,3.21-.58.53-.87.8-1.12.95-1.72,1.03-4.2.88-4.65-.22Z"/>
  <path class="cls-7" d="M238.18,69.95c.18-.17.25-.37.33-.57.52-1.34-.37-2.75-.54-3.03-.5-.79-.82-.76-3.15-2.35-1.59-1.08-2.35-1.72-2.65-1.46-.11.09-.11.27-.02.9.21,1.41.36,2.36,1.02,3.86.3.69.46,1.03.62,1.26,1.14,1.54,3.48,2.25,4.39,1.39Z"/>
  <path class="cls-1" d="M235.51,67.91c1.14,1.13,1.19,1.25,1.62,1.55.05.04.19.13.36.23v.02s.06.02.09.04c.19.11.41.21.61.27.31.17.62.4.88.73.17.22.31.44.41.65-.29.94-.41,1.69-.5,2.3-.16,1.1-.3,2.86.1,5.05.19-.08.38-.16.57-.24-.1-.7-.17-1.53-.17-2.45,0-.74,0-1.71.25-2.88.12-.6.25-.95.42-1.41.17-.24.39-.53.68-.78.44-.39.93-.62,1.36-.75.49-.03,1.21-.19,1.84-.45.15-.06.34-.16.72-.37.83-.44,1.23-.72,1.83-1.14.26-.19.32-.24.31-.27-.04-.08-.6.09-1.69.38-1.6.43-1.73.41-2.23.64-.12.06-.58.26-.94.52-.14.07-.28.14-.42.21-.35.19-.67.4-.95.6.23-.69.51-1.65.78-2.83.24-.46.48-1.28.57-2.04.02-.17.02-.39.03-.82.02-.94-.03-1.43-.1-2.14-.03-.32-.05-.39-.08-.39-.09,0-.21.6-.49,1.74-.41,1.67-.49,1.78-.53,2.34-.01.15-.06.73.01,1.17-.06.25-.14.56-.25.92-.3,1.02-.56,1.6-.81,2.25-.32-.35-.71-.73-1.2-1.09-.03-.02-.06-.04-.09-.06-.27-.41-.76-.93-1.28-1.32-.13-.09-.3-.2-.65-.4-.76-.45-1.19-.63-1.82-.89-.28-.11-.35-.13-.37-.1-.05.09.37.47,1.15,1.24Z"/>
  <path class="cls-1" d="M54.63,29.23c-2.6-.89-2.83-.87-3.63-1.32-.1-.06-.35-.19-.64-.38v.04c-.06-.05-.11-.09-.16-.14-.32-.21-.66-.47-.91-.75-.51-.35-1.12-.65-1.82-.8-.46-.1-.91-.13-1.3-.12-1.1,1.22-2.08,1.99-2.89,2.63-1.45,1.14-3.86,2.75-7.36,3.88-.05-.36-.1-.72-.15-1.09,1.1-.4,2.35-.95,3.68-1.69,1.06-.6,2.45-1.38,3.93-2.7.75-.67,1.16-1.15,1.67-1.79.2-.46.42-1.03.54-1.7.18-1.02.09-1.96-.09-2.75-.39-.8-.77-2.06-.94-3.26-.04-.29-.06-.67-.1-1.44-.09-1.66-.03-2.52.06-3.79.04-.56.06-.7.12-.71.16,0,.39,1.02.92,2.97.77,2.86.91,3.05,1.02,4.03.03.24.13,1.13.06,1.9.02.27.05.55.06.84.03.71,0,1.37-.04,1.99.8-.91,1.93-2.13,3.41-3.49.46-.75,1.43-1.78,2.45-2.53.23-.17.53-.35,1.15-.71,1.34-.79,2.08-1.1,3.17-1.55.49-.2.61-.24.64-.18.07.15-.68.82-2.08,2.17-2.04,1.97-2.14,2.19-2.91,2.71-.2.14-.99.68-1.7.92-.31.3-.69.68-1.11,1.13-1.2,1.29-1.82,2.16-2.54,3.07.78.21,1.67.53,2.61,1.02.06.03.11.06.17.09.82.1,1.99.45,3.01.97.25.13.55.32,1.15.71,1.31.84,1.93,1.37,2.86,2.16.41.35.5.45.47.5-.08.14-.99-.21-2.77-.82Z"/>
  <path class="cls-1" d="M51.35,108.82c.62-2.52.74-2.68.82-3.55,0-.11.03-.37.04-.7h.03c0-.05-.02-.11-.03-.18,0-.36-.01-.76-.08-1.1,0-.58.08-1.21.31-1.84.15-.42.34-.79.53-1.09,1.35-.28,2.35-.68,3.17-1.01,1.47-.59,3.72-1.72,6.15-3.96-.22-.22-.45-.43-.67-.65-.8.68-1.77,1.41-2.9,2.1-.91.55-2.1,1.27-3.71,1.81-.82.27-1.34.36-2.02.45-.41-.06-.91-.17-1.42-.4-.78-.35-1.38-.89-1.84-1.43-.37-.7-1.04-1.63-1.79-2.35-.18-.18-.43-.38-.94-.79-1.09-.88-1.71-1.26-2.63-1.82-.41-.25-.51-.3-.54-.25-.08.12.51.81,1.6,2.19,1.59,2.02,1.66,2.22,2.28,2.79.15.14.72.66,1.28.98.17.15.35.31.55.46.47.37.94.68,1.38.95-1,.19-2.37.49-4.01,1-.73,0-1.9.26-2.89.71-.22.1-.49.26-1.03.57-1.18.68-1.74,1.11-2.57,1.76-.37.29-.45.37-.42.42.07.13.88-.14,2.47-.59,2.32-.66,2.52-.63,3.24-.99.19-.09.93-.46,1.44-.9.35-.1.79-.21,1.3-.33,1.45-.33,2.35-.39,3.31-.51-.22.73-.43,1.6-.54,2.59,0,.06-.01.12-.02.18-.32.7-.64,1.81-.76,2.87-.03.26-.04.59-.06,1.26-.04,1.46.02,2.22.13,3.34.05.5.07.62.12.62.14,0,.32-.9.75-2.62Z"/>
  <path class="cls-1" d="M22.83,38.84c.82-.86,1.23-1.29,1.47-1.68,1.63-2.64,1.62-6.76.07-7.79.48-1.5.48-2.78.45-3.34-.22-.02-.45-.04-.67-.06-.02.74-.14,1.88-.6,3.15-.05,0-.1,0-.15,0-2.08-.12-3.64,2.06-3.95,2.5-.88,1.23-.7,1.73-1.89,6.34-.81,3.15-1.36,4.71-.88,5.05.18.13.42.04,1.25-.45,1.86-1.09,3.1-1.84,4.89-3.72Z"/>
  <path class="cls-1" d="M76.75,107.65c-3.63-1.95-3.84-2.38-5.14-2.51-.45-.04-2.62-.24-3.8,1.15-.15-.04-.29-.09-.45-.12-.87-.19-1.65-.25-2.33-.25-1.4,1.03-1.68,1.36-1.63,1.45.08.14.98-.46,2.2-.52.63-.03,1.2.11,1.7.29,0,.02-.01.04-.02.07-.31,1.72,2.32,4.25,4.98,4.71.39.07.9.04,1.94-.02,2.25-.13,3.46-.55,5.25-1.2.79-.29.99-.41,1.02-.61.07-.55-1.25-1.1-3.73-2.44Z"/>
  <g>
    <path class="cls-8" d="M264.32,281.61c-11.15-.83-23.05-1.38-35.64-1.55-9.6-.12-18.86-.01-27.74.28,6.4-1.58,14.12-2.98,22.81-3.5,17.67-1.06,31.6,1.98,40.57,4.76Z"/>
    <path class="cls-8" d="M173.4,281.61c-11.15-.83-23.05-1.38-35.64-1.55-9.6-.12-18.86-.01-27.74.28,6.4-1.58,14.12-2.98,22.81-3.5,17.67-1.06,31.6,1.98,40.57,4.76Z"/>
  </g>
</svg>