<?xml version="1.0" encoding="UTF-8"?>
<svg id="Laag_1" xmlns="http://www.w3.org/2000/svg" width="7.8mm" height="11.05mm" viewBox="0 0 22.1 31.32">
  <defs>
    <style>
      .cls-1 {
        fill: #fcf1dd;
      }
    </style>
  </defs>
  <path class="cls-1" d="M21.88,9.92c-.78-3.34-2.55-6.07-5.37-8.04C14.01.12,11.26-.49,8.27.42c-2.04.62-3.7,1.83-5.06,3.48C1.25,6.25.12,8.95,0,12.04c-.01,1.41.29,2.75.79,4.03,1.51,3.8,3.32,7.47,5.32,11.03.68,1.22,1.49,2.36,2.58,3.27,1.53,1.28,3.36,1.26,4.87,0,.83-.7,1.47-1.54,2-2.46,2.26-3.98,4.19-8.12,5.82-12.4.68-1.8.95-3.69.5-5.58ZM13.98,7.95c.92.99,1.07,2.29.34,3.42-1.28,1.99-4.09,2.86-6.33,1.16-1.07-.82-1.38-1.97-.93-3.24.55-1.54,2.2-2.71,4.08-2.71h-.01c.95.05,2.01.46,2.86,1.37Z"/>
</svg>