<?xml version="1.0" encoding="UTF-8"?>
<svg xmlns="http://www.w3.org/2000/svg" version="1.1" viewBox="0 0 247.9 75.5">
  <defs>
    <style>
      .cls-1 {
        fill: #003129;
      }

      .cls-2 {
        fill: #f9f8d8;
      }
    </style>
  </defs>
  <!-- Generator: Adobe Illustrator 28.7.1, SVG Export Plug-In . SVG Version: 1.2.0 Build 142)  -->
  <g>
    <g id="Laag_1">
      <g>
        <path class="cls-1" d="M93.1,71.9c0,1.2-1.1,2.2-2.3,2.2h-3.1c-1.2,0-2.2-1-2.2-2.2V16.7c0-3.5-.4-6-2.1-7.6-1.4-1.5-3.2-2.1-5.2-2.1s-3.8.6-5.2,2.1c-1.5,1.6-2.1,4.1-2.1,7.6v55.3c0,1.2-1.1,2.2-2.3,2.2h-3.1c-1.2,0-2.2-1-2.2-2.2V16.7c0-3.5-.5-6-2-7.6-1.4-1.5-3.2-2.1-5.2-2.1s-3.8.6-5.2,2.1c-1.5,1.6-2.1,4.1-2.1,7.6v55.3c0,1.2-1.1,2.2-2.3,2.2h-3.1c-1.2,0-2.2-1-2.2-2.2V16.4c0-6.1,2.1-9.7,4.5-12.2C48.1,1.4,51.9,0,55.1,0s7,.8,9.9,3l.7.5c.5.4,1,.5,1.3.5s.9-.2,1.3-.5l.6-.5C71.9.4,75.5,0,78.9,0s7.3,1.4,9.9,4.2c2.3,2.5,4.2,6.1,4.2,12.2v55.5h0Z"/>
        <path class="cls-1" d="M3.8,70.7c-2.3-2.7-3.8-6.1-3.8-11.7V17.7c0-5.6,1.5-9,3.8-11.7C6.4,3.1,10.3,1.3,15.2,1.3s8.7,1.9,11.4,4.8c2.3,2.7,3.8,6.1,3.8,11.7v41.3c0,5.6-1.5,9-3.8,11.7-2.6,2.9-6.5,4.8-11.4,4.8s-8.8-1.9-11.4-4.8h0ZM20.6,66.4c1.7-1.7,2.2-4.3,2.2-8V18.4c0-3.6-.5-6.3-2.2-8-1.4-1.5-3.3-2.2-5.4-2.2s-4,.7-5.4,2.2c-1.7,1.7-2.2,4.3-2.2,8v40.1c0,3.6.5,6.3,2.2,8,1.4,1.5,3.3,2.2,5.4,2.2s4-.7,5.4-2.2Z"/>
        <path class="cls-1" d="M126.3,18.1c0-3.5-.6-6.1-2.1-7.8-1.5-1.4-3.4-2.1-5.3-2.1s-3.9.7-5.4,2.1c-1.5,1.7-2,4.2-2,7.8v6.5c0,3.1.4,4.9,1.3,6.2.8,1.2,2,2.2,4.8,3.5l7,3.2c3,1.3,5.3,2.9,7,5.3,1.8,2.5,2.6,5.3,2.6,10.2v6.2c0,6-1.9,10.2-5.2,12.8-2.7,2.1-6,3.4-9.9,3.4s-8.8-1.9-11.4-4.8c-2.3-2.7-3.8-6.1-3.8-11.7v-5.4c0-1.2,1.1-2.2,2.3-2.2h3.1c1.2,0,2.2,1,2.2,2.2v4.8c0,3.6.5,6.3,2,8,1.5,1.5,3.3,2.2,5.7,2.2s3.9-.7,5.3-2.1c1.5-1.7,2-4.2,2-7.8v-5c0-3.1-.3-4.9-1.3-6.3-.8-1.2-2-2.2-4.9-3.5l-7-3.1c-2.9-1.3-5.2-3.2-6.9-5.6-1.7-2.5-2.6-5.2-2.6-10.2v-7.5c0-6,2-10.2,5.2-12.8,2.7-2.1,6.1-3.4,10-3.4s8.7,1.9,11.1,4.7c2.4,2.6,3.7,6.1,3.7,11.6v4.9c0,1.2-1,2.2-2.3,2.2h-3c-1.3,0-2.3-1-2.3-2.2v-4.3h0Z"/>
        <path class="cls-1" d="M152.5,65.6c0,1.2.8,2,1.9,2h10.6c1.2,0,2.2,1,2.2,2.2v2.8c0,1.2-1,2.2-2.2,2.2h-17.9c-1.2,0-2.3-1-2.3-2.2V4.1c0-1.2,1.1-2.2,2.3-2.2h3.1c1.2,0,2.2,1,2.2,2.2v61.4h0Z"/>
        <path class="cls-1" d="M185.7,44.2c-1.1,0-1.9.9-1.9,1.9v26.5c0,1.2-1,2.2-2.2,2.2h-3.1c-1.2,0-2.3-1-2.3-2.2V17.7c0-5.6,1.5-9,3.8-11.7,2.6-2.9,6.5-4.8,11.4-4.8s8.8,1.9,11.4,4.8c2.3,2.6,3.8,6.1,3.8,11.7v54.9c0,1.2-1.1,2.2-2.3,2.2h-3.1c-1.2,0-2.2-1-2.2-2.2v-26.5c0-1.1-.9-1.9-1.9-1.9h-11.3,0ZM197,37.1c1.1,0,1.9-.9,1.9-2v-16.8c0-3.6-.5-6.3-2.2-8-1.4-1.5-3.3-2.2-5.4-2.2s-4,.7-5.4,2.2c-1.7,1.7-2.2,4.3-2.2,8v16.8c0,1.1.9,2,1.9,2h11.3,0Z"/>
        <path class="cls-1" d="M222.3,71.8c-2.7-2.9-4.8-5.7-4.8-12.8V17.7c0-5.6,1.5-9,3.8-11.7,2.6-2.9,6.5-4.8,11.4-4.8s8.8,1.9,11.4,4.8c2.4,2.6,3.8,6.1,3.8,11.7v4.7c0,1.2-1,2.2-2.2,2.2h-3.1c-1.2,0-2.3-1-2.3-2.2v-4.1c0-3.6-.5-6.3-2.1-8-1.4-1.5-3.4-2.2-5.5-2.2s-4,.7-5.4,2.2c-1.7,1.7-2.2,4.3-2.2,8v40c0,3.6.5,6.3,2.2,8,1.4,1.5,3.3,2.2,5.4,2.2s4.1-.7,5.5-2.2c1.6-1.7,2.1-4.3,2.1-8v-12.2c0-1.1-.7-2-1.9-2h-2.8c-1.2,0-2.2-1-2.2-2.2v-2.9c0-1.2,1-2.2,2.2-2.2h10.2c1.2,0,2.2,1,2.2,2.2v33.2c0,1.2-.4,1.9-.9,2.3-.5.4-1.1.6-1.9.6s-1.7-.4-2.4-1l-.4-.3c-.7-.5-1.1-.7-2-.7s-1.9.6-3.4,1.2c-1.6.5-3.2,1-5.4,1-3.4,0-7.2-1.6-9.2-3.6Z"/>
      </g>
      <g>
        <path class="cls-2" d="M85.5,68.2c-.4-.4-3.1-3.4-7.5-3.2-4.2.2-6.7,3.1-7,3.5,0-16.5,0-52.6,0-53.8,0-.3,0-.6,0-.6,0-.5.1-1.1.3-1.8.5-1.9,1.6-3.2,1.6-3.2,1.9-2.4,4.9-2.3,5.4-2.3.7,0,3.2.2,5.2,2.5,1.7,2,2,4.5,2.1,5.2v53.5h0Z"/>
        <path class="cls-2" d="M63.3,68.2c-.4-.4-3.1-3.2-7.4-3.1-4.2.1-6.8,3-7.1,3.4,0-16.5,0-52.6,0-53.8,0-.3,0-.6,0-.6,0-.5.1-1.1.3-1.8.5-1.9,1.6-3.2,1.6-3.2,1.9-2.4,4.9-2.3,5.4-2.3.7,0,3.2.2,5.2,2.5,1.7,2,2,4.5,2,5.2v53.5Z"/>
      </g>
    </g>
  </g>
</svg>