<?xml version="1.0" encoding="UTF-8"?>
<svg xmlns="http://www.w3.org/2000/svg" version="1.1" viewBox="0 0 374.9 434.8">
  <defs>
    <style>
      .cls-1 {
        fill: #9db3a1;
      }

      .cls-2 {
        fill: #352721;
      }

      .cls-3 {
        fill: #e06d65;
      }

      .cls-4 {
        fill: #f08a78;
      }

      .cls-5 {
        fill: #ed7b6d;
      }

      .cls-6 {
        fill: #003534;
      }

      .cls-7 {
        fill: #965059;
      }

      .cls-8 {
        fill: #e7e7c6;
      }

      .cls-9 {
        fill: #8aa494;
      }

      .cls-10 {
        fill: #a9b0ad;
      }

      .cls-11 {
        fill: #8da394;
      }

      .cls-12 {
        fill: #a5baad;
      }

      .cls-13 {
        fill: #7f796e;
      }

      .cls-14 {
        fill: #6f6a40;
      }

      .cls-15 {
        fill: #ede0cd;
      }

      .cls-16 {
        fill: #eed285;
      }

      .cls-17 {
        fill: #ffeed8;
      }

      .cls-18 {
        fill: #cbbeb5;
      }

      .cls-19 {
        fill: #b5d1c0;
      }

      .cls-20 {
        fill: #817e4d;
      }

      .cls-21 {
        fill: #f2988f;
      }

      .cls-22 {
        fill: #b4cfbe;
      }

      .cls-23 {
        fill: #8f371d;
      }

      .cls-24 {
        fill: #da5c31;
      }

      .cls-25 {
        fill: #e4aa44;
      }

      .cls-26 {
        fill: #78414d;
      }

      .cls-27 {
        fill: #004345;
      }

      .cls-28 {
        fill: #e3d2c0;
      }

      .cls-29 {
        fill: #cab9ab;
      }

      .cls-30 {
        fill: #dbcfc0;
      }

      .cls-31 {
        fill: #b7d3bd;
      }

      .cls-32 {
        fill: #dd8a40;
      }

      .cls-33 {
        fill: #d04c58;
      }

      .cls-34 {
        fill: #9ea3a1;
      }

      .cls-35 {
        fill: #ddd0c1;
      }

      .cls-36 {
        fill: #912028;
      }

      .cls-37 {
        fill: #be6519;
      }

      .cls-38 {
        fill: #f18b82;
      }

      .cls-39 {
        fill: #bea772;
      }

      .cls-40 {
        fill: #ed7b6c;
      }

      .cls-41 {
        fill: #efd388;
      }

      .cls-42 {
        fill: #999250;
      }

      .cls-43 {
        fill: #982431;
      }

      .cls-44 {
        fill: #77161f;
      }

      .cls-45 {
        fill: #fcecd8;
      }

      .cls-46 {
        fill: #aa9f8f;
      }

      .cls-47 {
        fill: #837a3c;
      }

      .cls-48 {
        fill: #706b62;
      }

      .cls-49 {
        fill: #99b2a2;
      }

      .cls-50 {
        fill: #809989;
      }

      .cls-51 {
        fill: #ef8275;
      }

      .cls-52 {
        fill: #a44421;
      }

      .cls-53 {
        fill: #cfc2ac;
      }
    </style>
  </defs>
  <!-- Generator: Adobe Illustrator 28.7.1, SVG Export Plug-In . SVG Version: 1.2.0 Build 142)  -->
  <g>
    <g id="Laag_1">
      <rect class="cls-20" x="187.4" width="187.6" height="217.4"/>
      <rect class="cls-41" width="187.4" height="217.4"/>
      <rect class="cls-31" x="187.6" y="215.4" width="187.4" height="219.4"/>
      <rect class="cls-7" y="215.4" width="187.6" height="219.4"/>
      <path class="cls-27" d="M77.3,267c15.1,0,26.2,0,37.3,0,4.9,0,9.8.7,14.6,1.8,2.8.6,4.1,2.6,3.9,6.4-.3,5.7-.3,11.4-.4,17.1-.2,11.6-.3,23.2,0,34.8.3,10.9,0,21.7,0,32.5,0,6.1-.1,12.1,0,18.2,0,8.3-3.1,11.9-11,11.6-11.7-.4-23.5-.6-35.2-.7-10.1,0-20.2.3-30.3.6-2.7,0-5.4.2-8.1-.2-4.7-.7-7.2-3.5-7.4-8.5-.2-4.4.4-8.7.4-13,0-14.8-.3-29.7,0-44.5.3-16.5,0-33,0-49.5,0-4.6,1.3-6.2,5.7-6.4,2.8-.1,5.7,0,8.5,0,8.7.2,17.5-.4,22.2-.4h0Z"/>
      <path class="cls-6" d="M32.1,342.8c38.2-21.1,76.3-42.3,114.5-63.5v-12.1c-38.2.5-76.3.9-114.5,1.4,0,24.8,0,49.5,0,74.2h0Z"/>
      <rect class="cls-52" x="53.2" y="369.2" width="82.7" height="13.5" rx=".9" ry=".9"/>
      <rect class="cls-12" x="42.6" y="316.8" width="17.1" height="70.8" rx="1.4" ry="1.4"/>
      <rect class="cls-43" x="43.6" y="297.2" width="83.6" height="10.9" rx=".9" ry=".9"/>
      <rect class="cls-32" x="43.5" y="286" width="67" height="11.2" rx=".9" ry=".9"/>
      <path class="cls-45" d="M32.1,250.2v143.4h114.5v-143.4H32.1ZM121.3,381.5c-4.6-.1-9.2-.2-13.8-.4-5.3-.1-10.6-.2-16-.2-1.2,0-2.3,0-3.5,0-6,0-12,0-18,.2-3.5.1-7.1.2-10.6.3-2.6,0-5.1.2-7.7-.1-4.5-.6-6.8-3.1-7-7.6-.2-3.9.4-7.8.3-11.7,0-13.4-.2-26.7,0-40,.3-14.8,0-29.6,0-44.5,0-4.1,1.3-5.6,5.4-5.8,2.7-.1,5.4,0,8,0,8.2.2,16.5-.3,21-.4,14.2,0,24.7,0,35.2,0,4.6,0,9.2.6,13.8,1.6,2.6.5,3.9,2.3,3.7,5.8-.3,4.2-.3,8.4-.3,12.7,0,.9,0,1.8,0,2.7-.2,10.4-.3,20.8,0,31.2.2,9.5.1,19,0,28.5v.8c0,5.5-.1,10.9,0,16.4,0,.5,0,1,0,1.4-.3,5.6-2.6,8.4-7.7,9-.8,0-1.7.1-2.6,0h0Z"/>
      <rect class="cls-53" x="24" y="388.9" width="133.4" height="5.4"/>
      <rect class="cls-46" x="24" y="394.2" width="133.4" height="2.1"/>
      <path class="cls-53" d="M150.1,400.8c-40.5,0-81,0-121.4,0-.4-.2-1.2-.7-1.9-1.7-.8-1.2-.8-2.3-.8-2.8h127.5c0,.5-.2,1.6-1,2.6-.8,1.2-1.9,1.7-2.4,1.9h0Z"/>
      <path class="cls-46" d="M149.5,403.4c-40,0-80,0-120-.1-.1-.3-.2-.6-.4-1-.2-.6-.4-1.2-.5-1.8,40.5,0,81,.2,121.5.2-.1.5-.2,1.1-.4,1.7,0,.4-.2.7-.3.9h0Z"/>
      <rect class="cls-26" x="43" y="403.3" width="93.2" height="4.3"/>
      <rect class="cls-46" x="29.4" y="402.1" width="13.2" height=".7"/>
      <rect class="cls-46" x="135.4" y="402.1" width="14" height=".7"/>
      <g>
        <ellipse class="cls-13" cx="139" cy="322.8" rx="4.4" ry="4.5" transform="translate(-210.4 284.3) rotate(-60.4)"/>
        <path class="cls-48" d="M135,320.6c.2.5.6,1.2,1.1,2,.4.4,1.8,2.2,4.3,2.6.5,0,1.3.1,2.3,0-.1.2-.4.6-.7.9-1,1-2.3,1.2-2.6,1.2-1.5.2-2.7-.5-3-.7-.2-.1-1.8-1.2-2.1-3.2-.2-1.4.4-2.5.6-2.9h0Z"/>
      </g>
      <rect class="cls-53" x="29.5" y="403.3" width="13.5" height="10.1"/>
      <rect class="cls-53" x="135.9" y="403.4" width="13.5" height="10.1"/>
      <g>
        <path class="cls-15" d="M146.6,258.5v20.9c-4.9,2.7-9.9,5.5-14.8,8.2,0-3.1,0-6.2.3-9.2.2-3-1.1-4.6-3.7-5.1-4.5-.9-9.2-1.4-13.8-1.4-10.5,0-20.9,0-35.2,0-4.5,0-12.7.5-21,.3-2.7,0-5.3-.2-8,0-4.1.1-5.4,1.4-5.4,5.1.1,13.2.3,26.4,0,39.6-.1,6.3-.1,12.7-.1,19-3.2,1.8-6.5,3.6-9.8,5.4-1.1.6-2.1,1.2-3.2,1.8v-84.1c38.2,0,76.3-.2,114.5-.3h0Z"/>
        <rect class="cls-15" x="32.1" y="256.7" width="114.5" height="2.1"/>
      </g>
      <g>
        <g>
          <rect class="cls-10" x="23.8" y="274.3" width="11" height="27.9" rx="1.6" ry="1.6"/>
          <g>
            <circle class="cls-13" cx="29.3" cy="279.3" r="1.5"/>
            <circle class="cls-13" cx="29.3" cy="297.1" r="1.5"/>
          </g>
          <circle class="cls-48" cx="29.3" cy="297.1" r=".6"/>
        </g>
        <g>
          <rect class="cls-10" x="24.4" y="345.8" width="11" height="27.9" rx="1.6" ry="1.6"/>
          <g>
            <circle class="cls-13" cx="29.8" cy="350.9" r="1.5"/>
            <circle class="cls-13" cx="29.8" cy="368.6" r="1.5"/>
          </g>
          <circle class="cls-48" cx="29.8" cy="368.6" r=".6"/>
        </g>
      </g>
      <path class="cls-34" d="M33,302.2h-.9v-27.9h.9c1,0,1.7.8,1.7,1.7v24.5c0,.9-.8,1.7-1.7,1.7Z"/>
      <g>
        <path class="cls-22" d="M98.4,353.6c.4-.9,1-2.1,2-3.3,1.4-1.7,3-2.7,3.9-3.2,0-.2,0-.5,0-.8,0,0,0-.1,0-.1-.2,0-.6,0-1-.1h0s-.8-.2-1.5-.9c-2-2-2.9-5.4-2.9-5.4-.3-1-.5-2.6-.4-4.6-.1,0-.3,0-.4,0-.2,0-.3-.1-.4-.2-.4-.3.4-2.1.6-2.4,1.2-2.7.5-3,1.3-4,1.4-1.8,4.4-1.5,6.2-1.4,1.1.1,2.4.2,3.8,1.1,1.9,1.2,2.8,2.9,3.1,3.7.3.8,1.4,3.2.3,5.7-.6,1.3-1.5,2.1-2,2.5-.4,0-.7.4-.8.8-.1.4,0,.9.3,1.2,0,.8,0,1.6,0,2.4.8,0,1.9.3,3.2.8,0,0,2.8,1.1,5.4,3.5,2.8,2.8,5.8,10.3,6.1,20.4-8.7,0-17.4.1-26.1.2-.2-5.2-.5-10.5-.7-15.7h0Z"/>
        <path class="cls-45" d="M89.4,355.1c-.3-.4-.7-.9-1.2-1.4-1.9-1.5-4.3-.9-4.7-.8,1.2,5.4,2.5,10.9,3.7,16.3.4,0,.9-.1,1.5,0,1.8.2,3.1,1.2,3.7,1.8.1.1.4.3.7.4.7.2,1.2-.1,1.4-.2.5-.3.8-.3,1.2-.5.7-.4,3.2-.8,9.8-.9-1.4-5.3-2.7-10.6-4.1-15.9-.6,0-1.5-.2-2.6-.3-1.8-.1-3.2-.2-4.7,0-1.1.2-2.7.6-4.6,1.7h0Z"/>
        <path class="cls-28" d="M89.3,354.8c-.1-.2-.3-.4-.3-.4,0,0,0,0,0,0,1.2,5.5,2.3,11.1,3.5,16.6.1.1.4.3.7.4.5.1,1,0,1.1-.1-1.2-5.6-2.3-11.2-3.5-16.8-.3.1-.6.3-1,.5-.1,0-.2.1-.3.2,0-.1-.1-.2-.2-.3Z"/>
        <path class="cls-16" d="M101.9,334.3c-.4.1-.4.4-1.2.7-.4.2-1.3.5-2.2.2-.2,0-1-.4-1-.7,0-.6,2.3-.3,2.9-1.5.7-1.3-1.3-3-.7-4.5.5-1.1,2.1-1.2,3.9-1.5.9-.1,3.2-.4,5.5.8.4.2,1.3.7,2.2,1.7.6.6,2.2,2.4,2.4,5.1.1,1.7-.4,3.1-.8,3.9-.5.2-1.3.5-2.3.5-2.3,0-4.1-1.2-4.9-1.8-2.1-1.5-2.8-3.1-3.9-2.8h0Z"/>
        <path class="cls-51" d="M98.6,335.2c0,.7,0,1.7,0,2.8,0,.8.1,1.6.3,2.6.3,1.3.7,2.9,2,4.1,1.5,1.3,3.2,1.4,3.8,1.3.4,0,2.9,0,4.6-2.1,1.2-1.4,1.4-3,1.5-3.6.2,0,.5-.1.8-.3.2-.1,1.1-.6,1.3-1.7.1-.6,0-1.6-.6-1.8-.6-.2-1.2.3-1.4.4-.3.2-.5.5-.6.6,0,.2,0,.5,0,.6-.2,0-.5-.2-.7-.5-.5-.8,0-1.5-.5-2.1-.2-.3-.4-.1-1-.6-.9-.6-.9-1.2-1.6-1.4-.5-.1-.6.1-1.6.4-1.6.5-1.9-.1-3.1.4-.8.4-.9.7-1.8.9-.6.1-1.1,0-1.5,0h0Z"/>
        <path class="cls-3" d="M104.4,346.1v1c.5,1,1.1,1.3,1.3,1.4,1.5.6,3.3-.7,4.1-2,.5-.8.7-1.6.8-2.1,0-1.2,0-2.4.1-3.7,0,.6-.4,1.9-1.4,3.1,0,0-1.2,1.4-3.1,2-.2,0-.3,0-.4,0-.6.1-1.2.2-1.5.1h0Z"/>
        <path class="cls-51" d="M113,361c.6.3,1.3.6,2.2.8,1.8.4,3.3.3,4.3.1-.1,1.1-.3,2.1-.4,2.8-.5,3.2-.9,4-1.2,4.6-.3.6-.7,1.3-1.3,1.6-.4.2-.8.2-1,.2-3.1-.2-4.7-.3-6.1-.6-1.2-.2-3-.5-5.2-.7-.3,0-.8,0-1.3,0-.5,0-.8-.1-1.6-.3-.9-.2-.8-.1-1.5-.3-1.2-.2-1.9-.4-2.4-.7-.6-.3-1.2-.7-1.4-1.5-.2-.6,0-1.4.5-1.9,0,0,.4-.4,1-.6,1.7-.4,3.4,1.1,3.7.8.1-.2-.2-.6,0-.8,0,0,.1-.1.4,0,.8.1,1,1,2.1,1.7.5.3.9.4,1,.4.7.2,1.3,0,1.5,0,1-.2,3.3-.4,6.7-.7,0-1.6.2-3.2.3-4.8h0Z"/>
        <path class="cls-9" d="M104.4,347.1l-.8.5c0,.2.2.6.5,1,.7.9,1.8,1,2.2,1,1.8.2,3.1-.9,3.3-1.1,1-.8,1.4-1.9,1.6-2.3.2-.6.3-1.2.4-1.6-.1,0-.3,0-.4,0-.2,0-.3,0-.5,0,0,.2,0,.5-.2.8,0,.2-.2.5-.4,1,0,.2-.5,1-1.4,1.7-.3.2-.6.5-1.1.7-.3.1-.7.2-1.2.2-.8,0-1.3-.6-1.5-.8-.3-.3-.4-.6-.5-.8h0Z"/>
        <path class="cls-9" d="M113,361.1c0-.4,0-.8,0-1.1.4.2,1,.5,1.7.7.7.2,1.4.4,2.4.5.6,0,1.4,0,2.4-.4,0,.4,0,.9-.2,1.3-.2,0-.4,0-.6.1-.5,0-1.4.1-2.7,0-1.3-.2-2.4-.6-3.2-.9h0Z"/>
        <path class="cls-16" d="M106.5,333.5c-.7-.2-.9.5-2,.7-1,.1-1.4-.4-2.2,0-.2,0-.5.2-.8.4-.4.2-.7.4-.8.5-.8.5-2.8.6-3.3-.2-.4-.7.6-1.3.6-3,0-1.2-.6-1.3-.4-2.1.3-1.3,2.1-2.1,3-2.4.2,0,.6-.1,1-.3.2-.1.4-.2,1.2-.6.2-.1.4-.3.6-.4,2-.9,4.9-.9,5.6.2.2.4.2.8.2,1.1,1.1-.5,1.7-.4,2-.2.9.5.3,1.8,1.3,3.6.7,1.4,1.3,1.4,1.7,2.4.4,1,.4,2.5-1.2,5.1,0-.3.4-1.2,0-1.8-.4-.5-1.1-.5-2.1-.4-1,0-1,.2-1.4,0-.2,0-.5-.2-1.7-1.6-.6-.6-.8-1-1.1-1.1h0Z"/>
        <path class="cls-49" d="M106,366.5c.7-.3,1.8-.8,3-1.5.5-.3.9-.5,1.3-.8.7-.5,1.8-1.5,2.7-3.1,0,1.6-.2,3.2-.3,4.7-2.2.2-4.5.5-6.7.7Z"/>
        <path class="cls-4" d="M85.7,362.8c.9.1,1.5.8,1.6,1.7,0,.7-.2,1.4-.8,1.8-.3-1.2-.5-2.3-.8-3.5h0Z"/>
      </g>
      <path class="cls-27" d="M271.9,272.6c15.3,0,26.6,0,37.9,0,5,0,10,.7,14.8,1.8,2.8.6,4.2,2.5,4,6.3-.4,5.6-.3,11.1-.4,16.7-.2,11.3-.3,22.6,0,34,.3,10.6.1,21.2,0,31.8,0,5.9-.1,11.9,0,17.8,0,8.1-3.1,11.6-11.1,11.4-11.9-.4-23.9-.6-35.8-.7-10.3,0-20.6.3-30.8.6-2.8,0-5.5.2-8.3-.2-4.8-.6-7.3-3.4-7.5-8.3-.2-4.3.4-8.5.4-12.8,0-14.5-.3-29,0-43.5.3-16.1.1-32.2,0-48.4,0-4.5,1.4-6.1,5.8-6.3,2.9-.1,5.8,0,8.6,0,8.9.2,17.7-.3,22.6-.4Z"/>
      <path class="cls-6" d="M233.5,337.9c32.4-19.7,64.8-39.5,97.2-59.2.1-3.9.2-7.9.3-11.8-7.9-.8-16.1-1.5-24.7-1.9-27.2-1.5-52.1-.6-74,1.4.4,23.9.7,47.7,1.1,71.6h0Z"/>
      <rect class="cls-36" x="318" y="309.5" width="15.7" height="93.5" rx="1.4" ry="1.4"/>
      <rect class="cls-42" x="236.7" y="309.8" width="13.3" height="86.2" rx="1.4" ry="1.4"/>
      <g>
        <path class="cls-45" d="M275.3,362.6c3.8-5.2,7.6-10.4,11.4-15.5,3.2,1.7,6.4,3.3,9.5,5-4,4.4-8,8.8-11.9,13.2-3-.9-6-1.8-9-2.7h0Z"/>
        <path class="cls-30" d="M296.2,352.1c.5.1.9.2,1.4.3-4.4,4.9-8.7,9.9-13.1,14.8-.2-.2-.5-.3-.7-.5,1.9-2.4,3.8-4.8,5.7-7.2,2.2-2.5,4.5-4.9,6.7-7.4h0Z"/>
        <path class="cls-38" d="M257.4,350.9c.8-1.6,1.1-2.4,1.3-3.4.3-1.9-.3-3.2-.6-4.4-.7-2.8-.3-6.9,1.7-9.1,3-3.2,10.1-3,12.6.5,1,1.4,1.8,4,1,6.3-.4,1.3-1.2,2-1,3.4.2,1.2.9,2,.5,2.5-.4.5-1.3.2-1.6.8-.1.3,0,.4-.2,1.1-.2.9-.7.9-1.1,1.9-.5,1.1-.4,1.4-.8,1.7-.5.4-1.1.4-1.5.3-1.7-.1-2.4-.7-2.8-.4-.3.3-.2.9-.1,1.4.4,1.7,1.5,2.8,1.6,3,1.2,1.3,1.8,3.7,2.8,8.5.5,2,.9,4.7,1,7.9.5-.2,1.3-.6,2.2-1.1,3.2-1.7,4.8-2.5,6-4,.6-.7,1.3-1.8,1.8-3.6.3,0,.7,0,1.2,0,1.6-.2,2.6-1.1,3.4-1.7,2.9-2.2,4.3-3.3,4.7-3,.4.3,0,1.9-.8,3.1-.9,1.4-1.6,1.3-2.1,2.6-.6,1.3,0,1.9-.4,2.9-.6,1.4-2.1,1.5-3.9,2.4-1.9,1-2,1.7-5.2,4.9-1.3,1.3-3.1,3.1-5.6,5.1-.1,1.5-.2,3-.4,4.6-2.2.7-5.2,1.4-8.8,1.5-4.9.2-8.9-.9-11.5-1.7-1.1-6.1-1.1-11.3-.8-14.9.5-6.7.7-10,2.8-12.7.2-.2.7-.7,1.4-1.5,1.6-1.9,2.4-3.6,3-4.8h0Z"/>
        <path class="cls-22" d="M264.8,353.5c-.5.1-1.2.2-1.9,0-3-.3-4.8-2.9-5.2-3.5-.1.2-.3.6-.5,1,0,0-.7,1.4-1.4,2.5-1,1.7-2.4,2.9-3.1,3.8-1.3,1.7-1.6,3.6-2.2,7.4-.4,2.2-.9,6.8-.4,13.3.2,2.8.6,5,.8,6.7.9.3,2.1.7,3.5,1,4.2.9,7.6.8,9.6.6,1.9-.2,4.4-.5,7.2-1.4.6-2.8.5-5,.3-6.5-.3-1.9-.8-2.8-1.2-5.6-.2-1.2-.1-1.5-.2-2.3,0-.3,0-.5,0-.7,0-.4,0-.7,0-.7-.1-.8.2-4.3.1-5.5,0-1-1-2.7-2.9-6-1-1.7-1.8-3.1-2.4-4.1h0Z"/>
        <path class="cls-22" d="M281.2,371.2c-.9-1.1-1.8-2.3-2.7-3.4-.2.3-.6.7-1.1,1.1-.8.6-1.4,1-1.9,1.3-2.2,1.2-4.9,2.5-5.3,2.7.1.3.2.8.4,1.3.4,1.9-.1,2.8.3,4.3.1.4.4,1.1.9,1.8.2-.1.5-.4.8-.6,1.7-1.4,2.9-2.6,4.4-4.1,1.7-1.8,3.2-3.2,4.2-4.4h0Z"/>
        <path class="cls-8" d="M273.7,337.2h0c0-.6.2-1.2,0-1.9-.2-.7-.7-1.6-3.3-3-2.5-1.4-4-2.2-6.2-2.1-.7,0-3.2.2-5.3,2.2-.9.8-1.3,1.7-1.6,2.3-.2-.2-.6-.5-1.1-.6-1.3-.3-2.5.7-2.8,1-.9.8-1.6,2.2-1.4,3.4,0,.4.2.5.3,1.2.2,1,0,1.2.1,1.8,0,.2.3,1.8,1.4,2.3.9.4,1.8-.3,2.5.3.2.2.2.3.5.7,0,0,.9,1.1,1.9,1.1,1,0,2-.8,2.4-2.1,0-.3-.1-.6-.2-1.1-.2-1.2-.3-1.9.2-2.4.4-.4,1-.6,1.7-.5.5.1.8.5.9.6.2,0,.6,0,1,.1.8,0,1.4,0,1.9-.2.3-.1.3-.2,1.2-1.2.4-.4.7-.7,1.1-1.1.9-.9,1.3-1.3,1.8-1.6.4-.3,1.2-.7,1.8-.4.2,0,.4.2.5.3.4.3.6.7.7.9h0Z"/>
        <path class="cls-9" d="M265.4,354.4c-.5,0-1.2.1-2,0-.6,0-2.1-.2-3.7-1.2-1.3-.8-2-1.8-2.4-2.4.1-.3.3-.5.4-.8.1.2.3.4.5.6.2.2.6.7,1.1,1.2.4.3,1.1.9,2.1,1.3.5.2,1.6.5,3,.4.2,0,.3,0,.4,0,0,.1.2.3.3.4.1.2.2.4.3.5h0Z"/>
        <path class="cls-18" d="M297.6,352.4c-2.3-2.6-4.5-5.1-6.8-7.7-.8,1.1-1.5,2.2-2.3,3.4,2.6,1.3,5.1,2.7,7.7,4,.5.1.9.2,1.4.3h0Z"/>
        <path class="cls-18" d="M292.4,353.4c-1.7-.9-3.3-1.8-5-2.8-.5.6-.9,1.2-1.4,1.9,1.6.8,3.3,1.7,4.9,2.5l1.5-1.6h0Z"/>
        <path class="cls-40" d="M265,352.1c-.7,0-2.3-.3-3.9-1.4-1.4-1-2.1-2.2-2.5-2.8l-.9,2.4c0,0,.1.2.2.3.4.5,1.1,1.5,2.4,2.2.4.2,1.2.7,2.5.9.9.1,1.6,0,2,0,0-.1,0-.3,0-.5,0-.4.1-.7.2-.9h0Z"/>
      </g>
      <rect class="cls-46" x="216.3" y="394" width="132.7" height="2"/>
      <rect class="cls-46" x="221.7" y="401.8" width="13.1" height=".7"/>
      <rect class="cls-46" x="327.1" y="401.8" width="13.9" height=".7"/>
      <path class="cls-45" d="M224.1,251.1v142.4h114.1v-142.4h-114.1,0ZM313,381.3c-4.6-.1-9.2-.2-13.7-.4-5.3-.1-10.6-.2-15.9-.2-1.2,0-2.3,0-3.5,0-6,0-12,0-18,.2-3.5.1-7,.2-10.6.3-2.6,0-5.1.2-7.6-.1-4.5-.6-6.7-3.1-7-7.6-.2-3.9.4-7.8.3-11.6,0-13.2-.2-26.5,0-39.7.3-14.7,0-29.4,0-44.1,0-4.1,1.2-5.6,5.3-5.7,2.7-.1,5.3,0,8,0,8.2.2,16.4-.3,20.9-.4,14.2,0,24.6,0,35,0,4.6,0,9.2.6,13.7,1.6,2.6.5,3.9,2.3,3.7,5.7-.3,4.2-.3,8.4-.3,12.6,0,.9,0,1.8,0,2.7-.2,10.3-.3,20.7,0,31,.2,9.4.1,18.8,0,28.2v.8c0,5.4-.1,10.8,0,16.2,0,.5,0,.9,0,1.4-.3,5.5-2.6,8.4-7.7,8.9-.8,0-1.7.1-2.6,0h0Z"/>
      <rect class="cls-53" x="216.3" y="388.7" width="132.7" height="5.3"/>
      <path class="cls-53" d="M341.8,400.5c-40.3,0-80.6,0-120.8,0-.4-.2-1.2-.7-1.9-1.7-.8-1.1-.8-2.3-.8-2.7h126.8c0,.5-.2,1.5-1,2.6-.8,1.1-1.9,1.7-2.3,1.8h0Z"/>
      <path class="cls-46" d="M341.1,403.3c-39.8,0-79.6,0-119.4-.1-.1-.3-.2-.6-.4-1-.2-.6-.4-1.3-.5-1.9,40.3,0,80.6.2,120.9.3-.1.6-.2,1.2-.4,1.9,0,.4-.2.7-.3,1h0Z"/>
      <g>
        <path class="cls-15" d="M338.4,259.5v20.7c-4.9,2.7-9.9,5.4-14.8,8.1,0-3.1,0-6.1.3-9.2.2-3-1.1-4.6-3.7-5.1-4.5-.9-9.1-1.4-13.8-1.4-10.5,0-20.9,0-35.1,0-4.5,0-12.7.5-20.9.3-2.7,0-5.3-.1-8,0-4.1.1-5.4,1.4-5.4,5.1.1,13.1.3,26.2,0,39.3-.1,6.3-.1,12.6-.1,18.9-3.2,1.8-6.5,3.6-9.7,5.4-1.1.6-2.1,1.2-3.2,1.8v-83.4c38.1,0,76.2-.2,114.3-.3h0Z"/>
        <rect class="cls-15" x="224.1" y="257.7" width="114.3" height="2.1"/>
      </g>
      <g>
        <g>
          <rect class="cls-10" x="334.3" y="273.5" width="10.9" height="27.7" rx="1.6" ry="1.6"/>
          <g>
            <circle class="cls-13" cx="339.7" cy="278.6" r="1.4"/>
            <circle class="cls-13" cx="339.7" cy="296.2" r="1.4"/>
          </g>
          <circle class="cls-48" cx="339.7" cy="296.2" r=".6"/>
        </g>
        <g>
          <rect class="cls-10" x="334.9" y="344.5" width="10.9" height="27.7" rx="1.6" ry="1.6"/>
          <g>
            <circle class="cls-13" cx="340.3" cy="349.5" r="1.4"/>
            <circle class="cls-13" cx="340.3" cy="367.2" r="1.4"/>
          </g>
          <circle class="cls-48" cx="340.3" cy="367.2" r=".6"/>
        </g>
      </g>
      <path class="cls-34" d="M336,273.5h2.5v6.6c-1.4.8-2.8,1.5-4.1,2.3v-7.2c0-.9.8-1.7,1.7-1.7h0Z"/>
      <g>
        <ellipse class="cls-13" cx="231" cy="324.3" rx="4.4" ry="4.5" transform="translate(-159.6 401.6) rotate(-65.7)"/>
        <path class="cls-48" d="M227,322.1c.2.5.5,1.2,1.1,1.9.4.4,1.8,2.2,4.3,2.6.5,0,1.3.1,2.3,0-.1.2-.4.6-.7.9-1,1-2.3,1.2-2.6,1.2-1.5.2-2.7-.5-3-.7-.2-.1-1.8-1.1-2.1-3.1-.2-1.4.4-2.5.6-2.8h0Z"/>
      </g>
      <rect class="cls-53" x="221.8" y="403.2" width="13.5" height="10"/>
      <rect class="cls-1" x="235.3" y="403.2" width="92.6" height="4.3"/>
      <rect class="cls-53" x="327.6" y="403.2" width="13.5" height="10"/>
      <rect class="cls-45" x="237.2" y="306.6" width="86.2" height="5"/>
      <rect class="cls-32" x="257.2" y="295.5" width="66.9" height="11.1" rx=".9" ry=".9"/>
      <path class="cls-27" d="M79.4,53.8c13.7,0,23.8,0,33.8,0,4.4,0,8.9.7,13.2,1.6,2.5.6,3.7,2.3,3.5,5.8-.3,5.2-.3,10.3-.4,15.5-.2,10.5-.2,21,0,31.6.2,9.8,0,19.7,0,29.6,0,5.5-.1,11,0,16.5,0,7.5-2.8,10.8-10,10.6-10.7-.3-21.3-.6-31.9-.6-9.2,0-18.4.3-27.5.6-2.5,0-4.9.2-7.4-.1-4.3-.6-6.5-3.1-6.7-7.7-.2-4,.3-7.9.3-11.8,0-13.5-.2-26.9,0-40.4.3-15,0-29.9,0-44.9,0-4.2,1.2-5.7,5.2-5.8,2.6,0,5.1,0,7.7,0,7.9.2,15.8-.3,20.2-.4h0Z"/>
      <path class="cls-6" d="M38.3,122.5c34.6-19.2,69.3-38.4,103.9-57.6v-11l-103.9,1.2c0,22.5,0,44.9,0,67.4h0Z"/>
      <rect class="cls-42" x="116.6" y="98.9" width="13.4" height="65.7" rx="1.4" ry="1.4"/>
      <rect class="cls-12" x="79.6" y="125.8" width="53.3" height="10.7" rx=".9" ry=".9" transform="translate(-43.4 209.2) rotate(-78.5)"/>
      <rect class="cls-52" x="48.8" y="81.2" width="75.9" height="9.9" rx=".8" ry=".8"/>
      <path class="cls-45" d="M38.3,38.5v130.2h103.9V38.5H38.3ZM119.3,157.6c-4.2-.1-8.3-.2-12.5-.3-4.8-.1-9.7-.2-14.5-.2-1.1,0-2.1,0-3.2,0-5.4,0-10.9,0-16.4.2-3.2,0-6.4.2-9.6.3-2.3,0-4.7.2-7-.1-4.1-.5-6.1-2.8-6.3-6.9-.2-3.6.3-7.1.3-10.6,0-12.1-.2-24.2,0-36.3.3-13.4,0-26.9,0-40.4,0-3.8,1.1-5.1,4.9-5.2,2.4,0,4.9,0,7.3,0,7.5.2,15-.3,19-.3,12.9,0,22.4,0,31.9,0,4.2,0,8.4.6,12.5,1.5,2.3.5,3.5,2.1,3.3,5.2-.2,3.8-.2,7.7-.3,11.5,0,.8,0,1.6,0,2.5-.2,9.4-.2,18.9,0,28.3.2,8.6,0,17.2,0,25.8v.7c0,4.9-.1,9.9,0,14.8,0,.4,0,.9,0,1.3-.2,5.1-2.3,7.6-7,8.1-.7,0-1.5.1-2.4,0h0Z"/>
      <rect class="cls-53" x="31" y="164.4" width="121.1" height="4.9"/>
      <rect class="cls-46" x="31" y="169.2" width="121.1" height="1.9"/>
      <path class="cls-53" d="M145.5,175.2c-36.8,0-73.5,0-110.2,0-.4-.2-1.1-.6-1.7-1.5-.7-1.1-.7-2.1-.7-2.5h115.7c0,.4-.2,1.4-.9,2.4-.8,1.1-1.7,1.5-2.1,1.7h0Z"/>
      <path class="cls-46" d="M144.9,177.6c-36.3,0-72.6,0-108.9-.1-.1-.2-.2-.5-.3-.9-.2-.5-.3-1.1-.5-1.6,36.8,0,73.5.1,110.3.2,0,.5-.2,1-.3,1.5,0,.3-.2.6-.2.8h0Z"/>
      <rect class="cls-39" x="48.3" y="177.5" width="84.6" height="4.6"/>
      <rect class="cls-46" x="35.9" y="176.4" width="12" height=".7"/>
      <rect class="cls-46" x="132.1" y="176.4" width="12.7" height=".7"/>
      <g>
        <ellipse class="cls-13" cx="135.4" cy="104.4" rx="4" ry="4.1" transform="translate(-22.2 170.6) rotate(-60.4)"/>
        <path class="cls-48" d="M131.8,102.4c.2.5.5,1.1,1,1.8.3.4,1.6,2,3.9,2.4.5,0,1.2.1,2.1,0-.1.2-.3.5-.6.8-.9.9-2.1,1.1-2.3,1.1-1.4.2-2.4-.4-2.7-.6-.2-.1-1.6-1.1-1.9-2.9-.2-1.3.3-2.3.5-2.6h0Z"/>
      </g>
      <rect class="cls-53" x="36" y="177.5" width="12.3" height="9.2"/>
      <rect class="cls-53" x="132.6" y="177.6" width="12.3" height="9.2"/>
      <g>
        <path class="cls-15" d="M142.3,46v19c-4.5,2.5-9,5-13.4,7.5,0-2.8,0-5.6.3-8.4.2-2.8-1-4.2-3.3-4.6-4.1-.8-8.3-1.3-12.5-1.3-9.5,0-19,0-31.9,0-4.1,0-11.6.4-19,.3-2.4,0-4.8-.1-7.3,0-3.7.1-4.9,1.3-4.9,4.6,0,12,.3,24,0,35.9-.1,5.8-.1,11.5-.1,17.2-3,1.6-5.9,3.3-8.9,4.9-1,.5-1.9,1.1-2.9,1.6V46.2c34.6,0,69.3-.2,103.9-.2h0Z"/>
        <rect class="cls-15" x="38.3" y="44.3" width="103.9" height="1.9"/>
      </g>
      <g>
        <g>
          <rect class="cls-10" x="30.8" y="60.3" width="10" height="25.4" rx="1.6" ry="1.6"/>
          <g>
            <circle class="cls-13" cx="35.8" cy="64.9" r="1.3"/>
            <circle class="cls-13" cx="35.8" cy="81.1" r="1.3"/>
          </g>
          <circle class="cls-48" cx="35.8" cy="81.1" r=".5"/>
        </g>
        <g>
          <rect class="cls-10" x="31.4" y="125.2" width="10" height="25.4" rx="1.6" ry="1.6"/>
          <g>
            <circle class="cls-13" cx="36.3" cy="129.8" r="1.3"/>
            <circle class="cls-13" cx="36.3" cy="146" r="1.3"/>
          </g>
          <circle class="cls-48" cx="36.3" cy="146" r=".5"/>
        </g>
      </g>
      <path class="cls-34" d="M39.2,85.7h-.8v-25.4h.8c.9,0,1.5.7,1.5,1.5v22.3c0,.8-.7,1.6-1.5,1.5Z"/>
      <g>
        <rect class="cls-53" x="218.3" y="247.6" width="126.3" height="7.1"/>
        <path class="cls-46" d="M342.6,257.3c-40.9.1-81.8.2-122.6.3-.6-1-1.1-2-1.7-3h126.3l-2,2.7h0Z"/>
        <path class="cls-53" d="M344.2,247.2c-41.9,0-83.8-.1-125.7-.2-.4-.5-1.3-1.7-2-4.2-.8-2.9-.8-5.7-.8-6.8h132c0,1.2-.2,3.9-1,6.5-.9,2.9-2,4.1-2.4,4.6h0Z"/>
        <path class="cls-46" d="M344.7,247.6c-42.1,0-84.2,0-126.3-.1-.1-.2-.2-.5-.4-.8-.2-.5-.4-1-.5-1.5,42.6,0,85.2.1,127.9.2-.1.4-.2.9-.4,1.4-.1.3-.2.6-.3.8h0Z"/>
      </g>
      <g>
        <rect class="cls-53" x="26.9" y="246.9" width="125.4" height="7"/>
        <path class="cls-46" d="M150.4,256.6c-40.6.1-81.2.2-121.8.3-.6-1-1.1-2-1.7-3h125.5l-2,2.7Z"/>
        <path class="cls-53" d="M152,246.6c-41.6,0-83.2-.1-124.9-.2-.4-.5-1.3-1.7-2-4.1-.8-2.8-.8-5.6-.8-6.8h131.1c0,1.2-.2,3.8-1,6.5-.9,2.9-1.9,4.1-2.4,4.6h0Z"/>
        <path class="cls-46" d="M152.4,247c-41.8,0-83.6,0-125.4-.1-.1-.2-.2-.5-.4-.8-.2-.5-.4-1-.5-1.5,42.3,0,84.7.1,127,.2-.1.4-.2.9-.4,1.4-.1.3-.2.6-.3.8h0Z"/>
      </g>
      <g>
        <rect class="cls-53" x="33" y="38.3" width="113.9" height="6.4"/>
        <path class="cls-46" d="M145.1,47.2c-36.8,0-73.7.2-110.6.3-.5-.9-1-1.8-1.5-2.7h113.9l-1.8,2.5h0Z"/>
        <path class="cls-53" d="M146.5,38c-37.8,0-75.6,0-113.3-.2-.4-.5-1.2-1.5-1.8-3.8-.7-2.6-.8-5.1-.8-6.1h119c0,1.1-.2,3.5-.9,5.9-.8,2.6-1.8,3.7-2.2,4.1h0Z"/>
        <path class="cls-46" d="M146.9,38.4c-37.9,0-75.9,0-113.9,0-.1-.2-.2-.4-.3-.7-.2-.5-.3-.9-.5-1.3,38.4,0,76.9.1,115.3.2,0,.4-.2.8-.4,1.3,0,.3-.2.5-.2.7Z"/>
      </g>
      <rect class="cls-37" x="51.9" y="286" width="3.3" height="11.2"/>
      <rect class="cls-37" x="95.8" y="286.1" width="4.2" height="11.2"/>
      <rect class="cls-37" x="60.5" y="287.8" width="32.1" height="7.8" rx="1.1" ry="1.1"/>
      <rect class="cls-33" x="56.4" y="297.3" width="5.6" height="10.9"/>
      <g>
        <path class="cls-42" d="M70.7,382.7h-10.1c-.5,0-.9-.4-.9-.9v-56.9c0-.5.4-.9.9-.9,1.4.3,3.1.5,5.1.5,1.9,0,3.6-.2,5-.5,0,0,.4,0,.6.2s.2.4.2.6v56.9c0,.5-.4.9-.9.9Z"/>
        <path class="cls-45" d="M61.4,382.7v-57.8c1.2.2,2.7.3,4.3.3s3.1-.1,4.3-.3v57.8h-8.6Z"/>
        <path class="cls-28" d="M62.6,381.3v-55.9c.2,0,.5.1.8.1.5,0,.8,0,1.2,0l-.4,55.8h-1.6Z"/>
        <path class="cls-28" d="M68.2,381.3v-55.5c-.2,0-.5.1-.8.1-.4,0-.8,0-1.2,0,.1,18.5.3,36.9.4,55.4h1.6Z"/>
      </g>
      <rect class="cls-33" x="112.9" y="297.2" width="3" height="10.9"/>
      <rect class="cls-50" x="45.1" y="320.4" width="14.6" height="2.4"/>
      <rect class="cls-50" x="44.9" y="366.3" width="14.8" height="3.8"/>
      <rect class="cls-50" x="46.7" y="332.1" width="11.1" height="27.4" rx="2.1" ry="2.1"/>
      <rect class="cls-23" x="76.8" y="369.2" width="3" height="11.5"/>
      <rect class="cls-23" x="121" y="369.2" width="3" height="12.1"/>
      <rect class="cls-45" x="45" y="308.1" width="87.9" height="5"/>
      <path class="cls-15" d="M102.3,308.1c-3,1.7-6.1,3.3-9.1,5h-48.3v-5h57.4Z"/>
      <path class="cls-12" d="M316.8,381.2h-11.6c-.5,0-1-.4-1-1v-65.6c0-.5.4-1,1-1,1.6.3,3.6.5,5.9.5,2.2,0,4.1-.2,5.7-.5,0,0,.4,0,.7.3.2.2.3.4.3.7v65.6c0,.5-.4,1-1,1h0Z"/>
      <path class="cls-45" d="M306.1,381.2v-66.6c1.4.2,3.1.4,4.9.4s3.5-.1,5-.4v66.5h-9.9Z"/>
      <path class="cls-28" d="M307.5,379.6v-64.4c.3,0,.6.1.9.1.5,0,1,0,1.4,0l-.5,64.3h-1.8Z"/>
      <path class="cls-28" d="M313.9,379.6v-63.9c-.3,0-.6.1-.9.1-.5,0-1,0-1.4,0,.2,21.3.3,42.5.5,63.8h1.8Z"/>
      <path class="cls-43" d="M324.1,282.8v11.6c0,.5-.4,1-.9,1h-62.3c-.5,0-.9-.4-.9-1,.3-1.6.5-3.6.5-5.9s-.2-4.1-.5-5.7c0,0,0-.4.3-.7.2-.2.4-.3.7-.3h62.3c.5,0,.9.4.9,1h0Z"/>
      <path class="cls-45" d="M324.1,293.4h-63.1c.2-1.4.3-3.1.3-4.9s-.1-3.5-.3-5h63.1v9.9h0Z"/>
      <path class="cls-28" d="M324.1,292h-62.1c0-.3.1-.6.1-.9,0-.5,0-1,0-1.4,20.7.2,41.3.3,62,.5v1.8h0Z"/>
      <path class="cls-28" d="M323.6,285.6h-61.6c0,.3.1.6.1.9,0,.5,0,1,0,1.4,20.5-.2,41-.3,61.5-.5v-1.8h0Z"/>
      <rect class="cls-37" x="265.8" y="295.4" width="3.3" height="11.2"/>
      <rect class="cls-37" x="309.7" y="295.4" width="4.2" height="11.2"/>
      <rect class="cls-37" x="274.4" y="296.7" width="32.1" height="8.7" rx="1.7" ry="1.7"/>
      <rect class="cls-47" x="237.2" y="317.2" width="12.7" height="5.1"/>
      <rect class="cls-47" x="237.1" y="360.5" width="12.9" height="3.3"/>
      <rect class="cls-47" x="239.2" y="328.8" width="8.7" height="25.8" rx="1.7" ry="1.7"/>
      <rect class="cls-44" x="318" y="322.8" width="5.4" height="3.3"/>
      <rect class="cls-44" x="318" y="361" width="5.4" height="3.3"/>
      <rect class="cls-43" x="50.2" y="60.9" width="56.1" height="10.1" rx=".8" ry=".8"/>
      <path class="cls-25" d="M49.8,80.3v-10.1c0-.5.4-.9.9-.9h56.9c.5,0,.9.4.9.9-.3,1.4-.5,3.1-.5,5.1,0,1.9.2,3.6.5,5,0,0,0,.4-.2.6s-.4.2-.6.2h-56.9c-.5,0-.9-.4-.9-.9Z"/>
      <path class="cls-45" d="M49.8,71.1h57.8c-.2,1.2-.3,2.7-.3,4.3s.1,3.1.3,4.3h-57.8v-8.6Z"/>
      <path class="cls-28" d="M51.2,72.2h55.9c0,.2,0,.5-.1.8,0,.4,0,.8,0,1.2-18.6-.1-37.2-.3-55.8-.4v-1.6Z"/>
      <path class="cls-28" d="M51.2,77.8h55.5c0-.2,0-.5-.1-.8,0-.4,0-.8,0-1.2-18.5.1-36.9.3-55.3.4,0,0,0,1.6,0,1.6Z"/>
      <rect class="cls-23" x="60.9" y="81.2" width="3.3" height="9.9"/>
      <rect class="cls-23" x="110.9" y="81.2" width="4.2" height="9.8"/>
      <rect class="cls-23" x="70.4" y="82.9" width="34.7" height="6.5" rx="1.2" ry="1.2"/>
      <rect class="cls-50" x="108.8" y="105" width="3.3" height="10.7" transform="translate(-19.6 196.7) rotate(-78.5)"/>
      <rect class="cls-50" x="92.5" y="125.7" width="28.2" height="7.6" rx="1.5" ry="1.5" transform="translate(-41.5 208.2) rotate(-78.5)"/>
      <rect class="cls-50" x="101" y="143.3" width="3.3" height="10.7" transform="translate(-63.4 219.8) rotate(-78.5)"/>
      <rect class="cls-33" x="59.1" y="60.9" width="1.8" height="8.5"/>
      <rect class="cls-33" x="92.4" y="60.9" width="1.8" height="8.5"/>
      <rect class="cls-45" x="49.5" y="91.1" width="79.7" height="4.5"/>
      <path class="cls-15" d="M101.5,91.1c-2.8,1.5-5.5,3-8.2,4.5h-43.9v-4.5h52.1Z"/>
      <rect class="cls-33" x="62.5" y="60.8" width="10.6" height="8.5"/>
      <rect class="cls-47" x="116.6" y="106.5" width="12.1" height="2.8"/>
      <rect class="cls-47" x="116.6" y="145.6" width="12.1" height="2.8"/>
      <g>
        <path class="cls-24" d="M69.8,111.7c-2.2,1-3.5,2.8-3.9,3.5-.6.8-.5,1.1-2,4.6-1.3,3.3-1.4,3.2-1.5,3.8-.4,2.9,1.5,3.5,1.2,6.1-.3,2.4-2.2,2.8-2.3,5.5,0,1.6.3,2.8.7,3.7,8,.2,15.9.4,23.9.6,1.2-1.2,1.5-2.2,1.6-2.9.2-1.9-1.3-2.6-1.4-5.2,0-1.5.4-1.8,0-2.7-.5-1.3-1.6-1.2-2.2-2.7-.3-.7-.3-1.3-.3-2.4,0-1.8.5-2.6-.3-4.8-1.7-4.8-6-6.8-6.3-7-.9-.4-4-1.8-7.4-.2Z"/>
        <path class="cls-19" d="M71.9,129.1c-.1.2-.2.6-.3,1.4-.1.9-.2,1.6-.2,2.2-1.2.4-2.9.9-5,1.6s-2.4.7-2.7.9c-1.5.7-3.5,3-4.7,10.4.4.7,5.6,9.9,14.8,9.9,8,0,12.8-7.1,13.4-8.1,0-1.2,0-2.9-.2-5-.4-3.4-.6-5.4-1.9-6.7,0,0-.1-.1-.2-.2-1.2-1.1-2.4-1.5-4.7-2.1-1.3-.4-2.4-.6-3.4-.8-.2-.9-.4-1.8-.6-2.8-.5-.2-3.6-1.7-4.4-.6h0Z"/>
        <path class="cls-17" d="M55.3,143.9c.3,5.4.6,10.8.9,16.1,6,2.4,12.1,4.9,18.2,7.4,5.6-2.6,11.2-5.3,16.9-7.9v-15.8c-5.3,2.2-10.6,4.4-15.9,6.6h-2.6c-5.8-2.1-11.6-4.3-17.4-6.5h0Z"/>
        <path class="cls-35" d="M72.7,150.3h2.6c.1,5.5.3,10.9.4,16.4-.4.2-.9.4-1.4.6-.5-.2-1.1-.4-1.6-.6,0-5.5,0-10.9,0-16.4h0Z"/>
        <path class="cls-5" d="M71.5,131.5v1.2c.3.3.6.5,1,.6,2,.8,4-.6,4.4-.8-.1-.8-.3-1.5-.4-2.3-1.7.4-3.3.8-4.9,1.2h0Z"/>
        <path class="cls-21" d="M55.8,152.8c-.6-.2-.9,0-1.1,0-.7.5-.6,2.1-.2,3.2.4,1,1.1,1.5,1.5,1.7,0-1.6-.2-3.3-.3-4.9h0Z"/>
        <path class="cls-21" d="M91.3,152c.6-.3.9-.2,1.1,0,.8.4.8,2.1.4,3.2-.3,1-1,1.6-1.4,1.8,0-1.6,0-3.3,0-4.9h0Z"/>
        <ellipse class="cls-21" cx="73.7" cy="123.5" rx="6.3" ry="8.4"/>
        <path class="cls-21" d="M79.6,124.1c.1-.1.6-.6.9-.5.5.1.6,1.1.4,1.8-.1.6-.6,1.2-1.1,1.4-.1,0-.3.1-.6,0-.3-.2-.3-.5-.3-.7,0-.3,0-.6,0-.7"/>
        <path class="cls-21" d="M67.8,124.1c-.1-.1-.6-.6-.9-.5-.5.1-.6,1.1-.4,1.8.1.6.6,1.2,1.1,1.4.1,0,.3.1.6,0,.3-.2.3-.5.3-.7,0-.3,0-.6,0-.7"/>
        <path class="cls-24" d="M73.4,113.7c-.6.7.6,2.5,1.3,3.7,2.2,3.6,5.6,5.3,7.3,5.9.3-.9.6-2.4.1-4.1-1.3-4.7-7.8-6.7-8.7-5.6h0Z"/>
        <path class="cls-24" d="M74.6,113.7c.6.7-.6,2.5-1.3,3.7-2.2,3.6-5.6,5.3-7.3,5.9-.3-.9-.6-2.4-.1-4.1,1.3-4.7,7.8-6.7,8.7-5.6h0Z"/>
        <path class="cls-35" d="M78.1,153.5c0,.9,0,1.8,0,2.7,3.6-1.5,7.1-3,10.7-4.5,0-.9,0-1.8,0-2.7-3.6,1.5-7.2,3-10.8,4.5h0Z"/>
        <path class="cls-11" d="M71.4,132.7c-.4.1-.8.3-1.2.4.3.3.8.9,1.6,1.3.9.5,1.7.5,2.1.5s1.3,0,2.4-.6c1-.5,1.6-1.1,1.9-1.5-.5-.1-.9-.2-1.4-.3-.1,0-.3.2-.5.3-.4.2-1.1.6-2,.7-.3,0-.9.1-1.7-.1-.6-.2-1-.5-1.3-.7h0Z"/>
        <path class="cls-35" d="M69.4,153.9c0,.9,0,1.8,0,2.7-3.6-1.5-7.1-3-10.7-4.5,0-.9,0-1.8,0-2.7,3.6,1.5,7.2,3,10.8,4.5h0Z"/>
        <path class="cls-29" d="M57,144.5c.8-.6,1.5-1.2,2.3-1.8,4.9,2.5,9.8,5.1,14.7,7.6h-1.3c-5.2-1.9-10.5-3.9-15.8-5.9h0Z"/>
        <path class="cls-29" d="M90.4,144c-.7-.6-1.4-1.2-2.2-1.8-4.7,2.7-9.5,5.4-14.2,8.1h1.3c5-2.1,10-4.2,15-6.3h0Z"/>
      </g>
      <path class="cls-27" d="M272.7,59.5c13.8,0,24,0,34.1,0,4.5,0,9,.6,13.4,1.6,2.5.5,3.8,2.3,3.6,5.7-.3,5-.3,10-.4,15.1-.2,10.2-.3,20.4,0,30.6.2,9.6,0,19.1,0,28.7,0,5.4-.1,10.7,0,16.1,0,7.3-2.8,10.5-10,10.2-10.8-.3-21.5-.6-32.2-.6-9.3,0-18.5.3-27.8.6-2.5,0-5,.2-7.5-.1-4.3-.6-6.6-3-6.8-7.5-.2-3.8.4-7.7.3-11.5,0-13.1-.2-26.2,0-39.2.3-14.5,0-29.1,0-43.6,0-4.1,1.2-5.5,5.2-5.7,2.6,0,5.2,0,7.8,0,8,.2,16-.3,20.4-.4Z"/>
      <path class="cls-6" d="M238,118.4c29.2-17.8,58.4-35.6,87.7-53.4.1-3.5.2-7.1.3-10.7-7.1-.7-14.5-1.3-22.2-1.8-24.6-1.3-47-.6-66.7,1.2.3,21.5.6,43,1,64.6h0Z"/>
      <rect class="cls-43" x="247.7" y="90.1" width="18.1" height="80.8" rx="1.4" ry="1.4"/>
      <rect class="cls-52" x="314.2" y="92.8" width="14.2" height="84.3" rx="1.4" ry="1.4"/>
      <rect class="cls-32" x="236.4" y="93.1" width="12" height="77.7" rx="1.4" ry="1.4"/>
      <rect class="cls-45" x="241.4" y="90.2" width="77.7" height="4.5"/>
      <rect class="cls-32" x="249.8" y="78.1" width="69.2" height="12" rx=".6" ry=".6"/>
      <rect class="cls-37" x="236.9" y="99.4" width="11.5" height="3.7"/>
      <rect class="cls-37" x="236.5" y="148.5" width="11.9" height="4.1"/>
      <path class="cls-45" d="M250.6,157.9v-61.2c2,.2,4.2.3,6.8.3s4.9-.1,6.9-.3v61.2h-13.6,0Z"/>
      <path class="cls-28" d="M252.5,156.5v-59.3c.4,0,.8.1,1.2.1.7,0,1.4,0,1.9,0-.2,19.7-.4,39.4-.7,59.1h-2.5Z"/>
      <path class="cls-28" d="M261.3,156.5v-58.8c-.4,0-.8.1-1.2.1-.7,0-1.4,0-1.9,0,.2,19.6.5,39.1.7,58.7h2.5Z"/>
      <rect class="cls-37" x="257.4" y="78.1" width="5" height="12.1"/>
      <rect class="cls-37" x="307.6" y="78.1" width="2.6" height="12.1"/>
      <rect class="cls-37" x="267.5" y="79.8" width="33.7" height="8.7" rx="1.7" ry="1.7"/>
      <g>
        <path class="cls-22" d="M305.6,127.9c-.9-.2-2.5-.4-3.9.4-1.3.7-2,1.9-2.5,3-2.1,4.6-2.9,11.6-3.1,13.5-.1,1.4-.2,3.1-.3,6.7-.2,5-.2,9.1-.2,11.9,7.7.2,15.4.5,23.1.7,0-5-.1-10-.2-15h0c0,0,.2-.1,1.3,0,.6-1.8,1.4-4.3,1.7-7.4.5-4.2,1.1-10.1-1.9-12.4-1-.7-1.6-.5-8.2-.9-2.5-.2-4.5-.3-5.8-.4h0Z"/>
        <path class="cls-40" d="M305.4,125.8c0,.7.1,1.4.2,2.1.3.2.6.3,1,.5,2.3.8,4.4.1,5.4-.3-.7-1.8-1.4-3.7-2.1-5.5-1.5,1.1-3,2.2-4.5,3.2Z"/>
        <path class="cls-38" d="M297.3,111.9c-.3.8-.4,2-.4,2.4,0,.3,0,1.4.2,2.8.5,2.9,2,4.9,2.7,5.7,1.2,1.5,2.1,2.6,3.6,2.9,2,.4,3.6-.6,4.2-1,2.2-1.4,4-4.3,3.4-6.7-.3-1.3-.9-.8-2-3.1-1.2-2.4-1.3-4.2-3.2-5.5,0,0-.1,0-.2,0-2.8-1.5-7.4.1-8.4,2.5h0Z"/>
        <path class="cls-2" d="M296.9,115.8c-.6-.3-.9-.6-1-.9-.2-.4-.1-.8-.4-1.5,0-.2-.2-.4-.2-.5-.2-1.3.7-2.5,2.4-4.3.6-.6,1.4-1.6,2.7-2.3.6-.4,3.6-2.2,7.3-1.4,3,.6,4.9,2.6,5.5,3.4,1.3,1.5,1.5,2.5,3.2,7.3,2.5,6.8,2.7,6.2,2.9,7.8.4,3.7-.6,7.2-1.4,9.7-.8,2.7-1.6,3.9-1.4,6.2.2,2.3,1.2,3.8.7,4.1-.5.4-2.4-1.3-3.7-2.9-.9-1.1-3.5-4.3-3.2-8.1.1-1.4.5-1.8.3-3.1-.3-1.8-1.1-2.1-1.8-4-.7-2.3.1-2.9-.4-4.8-.6-1.8-2-2.7-3.6-3.9-1.8-1.3-2.6-2-3.9-2.1-.6,0-1.4,0-2.1-.6-.6-.4-.9-1-1-1.5-.2.6-.4,1.1-.6,1.7"/>
        <path class="cls-30" d="M267.9,138.5c3.9-2.6,7.7-5.3,11.6-7.9,4.4,4.4,8.9,8.9,13.3,13.4-2.5.7-8.9,2.2-16.1-.3-4.1-1.4-7-3.6-8.8-5.2h0Z"/>
        <path class="cls-45" d="M278.9,132.2c-3.7,2.1-7.3,4.2-11,6.3l16.5,16.5c3.6-1.9,7.2-3.8,10.8-5.7-3.1-3.3-6.2-6.6-9.4-9.8-2.3-2.4-4.6-4.9-7-7.3h0Z"/>
        <path class="cls-38" d="M291.4,148.7c2.4,2.3,5.7,5,9.9,7.5,3.3,1.9,6.5,3.3,9.1,4.2.3,0,.7-.2,1.1-.5,1.2-.7,1.8-1.8,2-2.2.8-1.5,2.9-4.8,5.7-9.2-2.4-.6-4.8-1.1-7.2-1.7-1.5,2.3-2.6,4-3.1,5,0,.1-.2.4-.5.5-.8.4-2-.6-2.4-.8-1.4-1-5.1-3.1-12.2-6.6-1.8-.6-3.2-1.3-4-1.9-1.2-.8-2.2-1.7-2.7-2.2-.5-.5-1-1-1.3-1.4-.3-.3-.6-.6-.9-1-.8,1.5-.7,2.5-.5,3.1.4,1.1,1.1,1.1,2,2.5.9,1.4.4,2,1.1,3,.5.7,1.5,1.5,3.9,1.6h0Z"/>
        <path class="cls-38" d="M290.8,143.6c-1.3-1.2-1.6-1.8-1.6-2.1,0-.5,0-.9,0-1.2.9.9,1.8,1.9,2.9,2.9.8.7,1.6,1.4,2.4,2h-1.1c-1.3-.4-2.2-1.1-2.7-1.6h0Z"/>
        <path class="cls-18" d="M267.9,138.5c2.8-2.5,5.6-5.1,8.3-7.6.4.4.7.8,1.1,1.1-3.1,2.1-6.3,4.3-9.4,6.4h0Z"/>
        <path class="cls-9" d="M305.6,127.9c-.4,0-.7,0-1.1-.2.4.5.8.8,1,.9,1.5,1,3.1.9,3.9.8.5,0,1-.1,1.2-.2,0-.3-.1-.5-.2-.8-.2,0-.6.1-1,.1-1.1.1-1.9,0-2.1-.1-.8-.2-1.4-.4-1.9-.7h0Z"/>
        <path class="cls-9" d="M312,146.8c2.5.8,5,1.6,7.4,2.4.1,0,.2,0,.3,0,0-.2.2-.4.2-.6,0-.3.2-.5.2-.7-2.5-.8-5.1-1.7-7.6-2.5-.2.5-.4.9-.6,1.4h0Z"/>
        <path class="cls-2" d="M302.5,125.4c-.2.7-.4,1.6-.4,2.7,0,1.4.3,1.8.6,4.1.3,2.1.2,2.7.5,2.8.6.2,2-1.6,2.4-3.6.2-1.1.1-2.3,0-4,0-.7-.1-1.3-.2-1.7-.3,0-.8.2-1.3.1-.8,0-1.3-.3-1.7-.4h0Z"/>
        <path class="cls-9" d="M300.3,129.4c-1,1.2-2.2,2.6-3.2,4.4-2.1,3.5-3.2,6.9-3.8,9.4.9.5,1.8,1.1,2.7,1.6.2-1.5.5-3.2.8-4.9.9-4.1,2.1-7.6,3.4-10.5h0Z"/>
        <path class="cls-40" d="M293.3,143.2c0,.3-.1.6-.2,1,.3.3.8.7,1.4,1.1.5.3,1,.6,1.5.7,0-.4,0-.8.1-1.2-.9-.5-1.8-1.1-2.7-1.6h0Z"/>
        <path class="cls-40" d="M289.5,152.3c.4.5,1.1,1,2.1,1.4.7.3,1.8.7,2.9.3.9-.3,1.4-1,1.6-1.3-.9-.8-1.9-1.5-2.8-2.3-1.2.6-2.5,1.3-3.7,1.9h0Z"/>
        <path class="cls-18" d="M273.1,141.6c.4.4.8.9,1.1,1.3,2.4-1.6,4.8-3.1,7.2-4.7-.4-.4-.8-.9-1.2-1.3-2.4,1.6-4.8,3.2-7.2,4.7h0Z"/>
      </g>
      <rect class="cls-46" x="224" y="169" width="119.7" height="1.9"/>
      <rect class="cls-46" x="228.9" y="176" width="11.8" height=".7"/>
      <rect class="cls-46" x="323.9" y="176" width="12.6" height=".7"/>
      <path class="cls-45" d="M231.1,40.1v128.4h102.9V40.1h-102.9ZM311.2,157.5c-4.1-.1-8.3-.2-12.4-.3-4.8-.1-9.6-.2-14.4-.2-1,0-2.1,0-3.1,0-5.4,0-10.8,0-16.2.2-3.2,0-6.4.2-9.5.3-2.3,0-4.6.2-6.9-.1-4-.5-6.1-2.8-6.3-6.8-.2-3.5.3-7,.3-10.5,0-11.9-.2-23.9,0-35.8.3-13.3,0-26.5,0-39.8,0-3.7,1.1-5,4.8-5.1,2.4,0,4.8,0,7.2,0,7.4.2,14.8-.3,18.8-.3,12.8,0,22.2,0,31.6,0,4.2,0,8.3.6,12.4,1.5,2.3.5,3.5,2.1,3.3,5.1-.2,3.8-.2,7.6-.3,11.3,0,.8,0,1.6,0,2.4-.2,9.3-.2,18.6,0,27.9.2,8.5,0,17,0,25.5v.7c0,4.9-.1,9.8,0,14.6,0,.4,0,.9,0,1.2-.2,5-2.3,7.5-6.9,8-.7,0-1.5.1-2.4,0h0Z"/>
      <rect class="cls-53" x="224" y="164.2" width="119.7" height="4.8"/>
      <path class="cls-53" d="M337.2,174.9c-36.3,0-72.6,0-108.9,0-.4-.2-1.1-.6-1.7-1.5-.7-1-.7-2.1-.7-2.5h114.4c0,.4-.2,1.4-.9,2.4-.8,1-1.7,1.5-2.1,1.7h0Z"/>
      <path class="cls-46" d="M336.6,177.4c-35.9,0-71.8,0-107.6-.1-.1-.3-.2-.6-.3-.9-.2-.6-.3-1.2-.4-1.7,36.3,0,72.6.2,109,.2,0,.5-.2,1.1-.3,1.7,0,.4-.2.6-.2.9h0Z"/>
      <g>
        <path class="cls-15" d="M334.1,47.7v18.7c-4.4,2.4-8.9,4.9-13.3,7.3,0-2.8,0-5.5.3-8.3.2-2.7-1-4.1-3.3-4.6-4.1-.8-8.2-1.3-12.4-1.3-9.4,0-18.9,0-31.7,0-4,0-11.5.4-18.9.3-2.4,0-4.8-.1-7.2,0-3.7,0-4.9,1.3-4.8,4.6.1,11.8.3,23.6,0,35.4-.1,5.7-.1,11.3-.1,17-2.9,1.6-5.9,3.2-8.8,4.8-.9.5-1.9,1.1-2.9,1.6V47.9c34.4,0,68.7-.2,103.1-.2Z"/>
        <rect class="cls-15" x="231.1" y="46" width="103.1" height="1.9"/>
      </g>
      <g>
        <g>
          <rect class="cls-10" x="330.1" y="60.7" width="9.9" height="25" rx="1.6" ry="1.6"/>
          <g>
            <circle class="cls-13" cx="335.1" cy="65.2" r="1.3"/>
            <circle class="cls-13" cx="335.1" cy="81.1" r="1.3"/>
          </g>
          <circle class="cls-48" cx="335.1" cy="81.1" r=".5"/>
        </g>
        <g>
          <rect class="cls-10" x="330.7" y="124.7" width="9.9" height="25" rx="1.6" ry="1.6"/>
          <g>
            <circle class="cls-13" cx="335.6" cy="129.2" r="1.3"/>
            <circle class="cls-13" cx="335.6" cy="145.1" r="1.3"/>
          </g>
          <circle class="cls-48" cx="335.6" cy="145.1" r=".5"/>
        </g>
      </g>
      <path class="cls-34" d="M331.8,60.7h2.4v6c-1.3.7-2.7,1.4-4,2.1v-6.5c0-.8.7-1.5,1.6-1.5Z"/>
      <g>
        <ellipse class="cls-13" cx="237.3" cy="106.1" rx="4" ry="4" transform="translate(43 278.8) rotate(-65.7)"/>
        <path class="cls-48" d="M233.7,104.2c.2.5.5,1.1,1,1.8.3.4,1.6,2,3.9,2.3.5,0,1.2.1,2.1,0-.1.2-.3.5-.6.8-.9.9-2.1,1.1-2.3,1.1-1.4.2-2.4-.4-2.7-.6-.2-.1-1.6-1-1.9-2.8-.2-1.3.3-2.2.5-2.6Z"/>
      </g>
      <rect class="cls-53" x="229" y="177.3" width="12.2" height="9.1"/>
      <rect class="cls-14" x="241.2" y="177.3" width="83.5" height="4.5"/>
      <rect class="cls-53" x="324.4" y="177.3" width="12.2" height="9.1"/>
      <g>
        <rect class="cls-53" x="225.2" y="39.8" width="113.9" height="6.4"/>
        <path class="cls-46" d="M337.3,48.6c-36.9,0-73.7.2-110.6.3-.5-.9-1-1.8-1.5-2.7h113.9c-.6.8-1.2,1.6-1.8,2.5Z"/>
        <path class="cls-53" d="M338.7,39.5c-37.8,0-75.6,0-113.4-.2-.4-.5-1.2-1.5-1.8-3.8-.7-2.6-.8-5.1-.8-6.1h119c0,1.1-.2,3.5-.9,5.9-.8,2.6-1.8,3.7-2.2,4.1h0Z"/>
        <path class="cls-46" d="M339.1,39.8c-38,0-75.9,0-113.9,0-.1-.2-.2-.4-.4-.7-.2-.5-.4-.9-.5-1.3,38.4,0,76.9.1,115.3.2,0,.4-.2.8-.4,1.3,0,.3-.2.5-.2.7h0Z"/>
      </g>
    </g>
  </g>
</svg>