<?xml version="1.0" encoding="UTF-8"?>
<svg id="Laag_1" xmlns="http://www.w3.org/2000/svg" width="38.36mm" height="79.62mm" viewBox="0 0 108.74 225.68">
  <defs>
    <style>
      .cls-1 {
        fill: #d1beae;
      }

      .cls-2 {
        fill: #d8c8b2;
      }

      .cls-3 {
        fill: #ffebd3;
      }

      .cls-4 {
        fill: #ca5e00;
      }

      .cls-5 {
        fill: #c9c0c0;
      }

      .cls-6 {
        fill: #f2e2c9;
      }

      .cls-7 {
        fill: #7c7b7b;
      }

      .cls-8 {
        fill: #e98328;
      }

      .cls-9 {
        fill: #afa391;
      }

      .cls-10 {
        fill: #9a9999;
      }

      .cls-11 {
        fill: #f4e4c6;
      }

      .cls-12 {
        fill: #799987;
      }

      .cls-13 {
        fill: #faf1df;
      }

      .cls-14 {
        fill: #e6d0bc;
      }

      .cls-15 {
        fill: #ffead3;
      }

      .cls-16 {
        fill: #4b5c57;
      }

      .cls-17 {
        fill: #a40c2c;
      }

      .cls-18 {
        fill: #9fbaab;
      }

      .cls-19 {
        fill: #aa9f8f;
      }

      .cls-20 {
        fill: #f4e7d4;
      }

      .cls-21 {
        fill: #9a9145;
      }

      .cls-22 {
        fill: none;
        stroke: #d8c8b2;
        stroke-miterlimit: 10;
      }

      .cls-23 {
        fill: #cfc2ac;
      }
    </style>
  </defs>
  <path class="cls-13" d="M18.21,100.07h70.59v28.66c-1.16.25-2.6.36-4.19,0-5.92-1.35-8.67-8.06-9.05-9.05-.25-.3-.61-.72-1.1-1.16-1-.89-2.67-1.98-5.49-2.31-3.11-.36-4.46.58-8.78,1.42-2.31.45-5.22,1.02-8.86.8-1.71-.1-5.42-.49-9.8-1.69-2.16-.59-2.93-.96-4.39-.8-3.5.37-5.82,3.19-6.12,3.56-2.15,2.68-1.45,4.54-2.98,6.67-1.24,1.73-3.81,3.43-9.72,2.93-.03-9.68-.07-19.36-.1-29.04Z"/>
  <rect class="cls-20" x="11.8" y="49.9" width="6.41" height="175.6"/>
  <rect class="cls-23" x="14.09" y="42.02" width="79.3" height="3.01" transform="translate(107.48 87.05) rotate(180)"/>
  <path class="cls-19" d="M12.57,40.64c27.56-.07,55.13-.14,82.69-.21-.62.53-1.25,1.06-1.87,1.59H14.09c-.51-.46-1.01-.92-1.52-1.38Z"/>
  <path class="cls-9" d="M13.97,45.17c26.43.02,52.86.05,79.29.07.26.21.82.73,1.24,1.77.5,1.22.53,2.42.53,2.89H11.8c.03-.51.14-1.64.64-2.78.54-1.22,1.24-1.76,1.54-1.96Z"/>
  <path class="cls-19" d="M14.07,44.99c26.43.01,52.86.03,79.29.04.08.09.16.21.24.34.13.21.24.43.33.63-26.76-.03-53.52-.06-80.28-.09.06-.19.14-.39.24-.6.06-.13.12-.23.18-.33Z"/>
  <path class="cls-13" d="M12.57,41.1c13.07-10.83,26.14-21.66,39.21-32.49,14.49,10.77,28.98,21.54,43.48,32.31-27.56.06-55.13.12-82.69.18Z"/>
  <path class="cls-11" d="M104.21,40.28C86.85,26.89,69.49,13.5,52.14.1l-.04-.1-.06.05-.06-.05-.04.1C35.78,13.26,19.63,26.41,3.47,39.56c1.66,1.65,3.32,3.29,4.98,4.94,14.44-11.96,28.89-23.93,43.33-35.89,16.06,12.16,32.12,24.32,48.18,36.49,1.41-1.61,2.83-3.21,4.24-4.82Z"/>
  <path class="cls-1" d="M12.57,41.1c1.6.02,3.2.03,4.8.05,4.98-4.21,10.09-8.44,15.33-12.69,6.57-5.33,13.07-10.46,19.5-15.4,12.74,9.33,25.48,18.65,38.22,27.98,1.39,0,2.77-.02,4.16-.02-5.47-4.15-16.01-12.13-21.48-16.28-5.39-4.08-15.91-12.04-21.31-16.13-.32.26-18.81,15.58-19.13,15.85-.35.29-19.73,16.35-20.08,16.64Z"/>
  <rect class="cls-20" x="88.8" y="49.9" width="6.24" height="175.77"/>
  <path class="cls-2" d="M58.34,28.04v.32s-.03.04-.03.07c-.07.82-.39,1.54-.95,2.14-.56.6-1.13,1.2-1.69,1.8-1.14,1.21-2.28,2.41-3.41,3.62-.07.07-.11.08-.18,0-.24-.27-.49-.52-.74-.78-1.48-1.57-2.96-3.12-4.43-4.7-.71-.77-1-1.69-.87-2.73.2-1.64,1.64-3.17,3.86-2.85.79.11,1.46.47,1.99,1.07.08.09.17.25.26.26.11,0,.19-.16.28-.25.83-.89,1.85-1.24,3.05-1.09,1.38.17,2.54,1.3,2.78,2.67.03.16.02.33.08.48Z"/>
  <rect class="cls-7" x="18.21" y="49.9" width="70.59" height="50.17"/>
  <rect class="cls-5" x="18.21" y="73" width="70.59" height="3.1"/>
  <g>
    <rect class="cls-18" x="56.15" y="66.36" width="32.62" height="6.74" rx=".58" ry=".58"/>
    <g>
      <path class="cls-21" d="M88.37,61.45v4.91h-28.24c-.23,0-.42-.16-.42-.36.13-.58.23-1.3.22-2.12,0-.8-.11-1.5-.22-2.08,0-.02,0-.15.13-.25.07-.06.18-.11.3-.11h28.24Z"/>
      <path class="cls-15" d="M88.37,65.66h-28.22c.08-.52.15-1.11.15-1.78s-.06-1.27-.15-1.8h28.22v3.57h0Z"/>
      <path class="cls-14" d="M87.7,65.17h-27.31c.02-.1.05-.21.06-.33.02-.19.01-.35,0-.5,9.09.06,18.17.12,27.26.18v.65h-.01Z"/>
      <path class="cls-14" d="M87.7,62.85h-27.11c.02.1.05.21.06.33.02.19.01.35,0,.5,9.01-.06,18.03-.12,27.05-.18,0,0,0-.65,0-.65Z"/>
    </g>
    <rect class="cls-12" x="57.82" y="66.36" width="1.87" height="6.74"/>
    <rect class="cls-12" x="80.69" y="66.36" width="1.76" height="6.74"/>
    <rect class="cls-12" x="63.95" y="67.64" width="14.23" height="4.37" rx=".17" ry=".17"/>
    <rect class="cls-8" x="56.14" y="55.26" width="32.66" height="6.18" rx=".58" ry=".58"/>
    <rect class="cls-4" x="60.6" y="55.26" width="1.82" height="6.18"/>
    <rect class="cls-4" x="82.08" y="55.28" width="1.71" height="6.16"/>
  </g>
  <g>
    <rect class="cls-8" x="18.34" y="67.35" width="29.53" height="5.62" rx=".9" ry=".9"/>
    <path class="cls-17" d="M18.34,60.91v5.88c0,.28.19.51.41.51h27.49c.23,0,.41-.22.41-.51-.13-.82-.22-1.82-.22-2.97s.1-2.11.22-2.91c0-.03,0-.21-.13-.36-.07-.1-.18-.15-.3-.15h-27.49c-.23,0-.41.22-.41.51h.01Z"/>
    <path class="cls-15" d="M18.34,66.3h27.87c-.08-.72-.15-1.56-.15-2.49s.06-1.79.15-2.52h-27.87v5h0Z"/>
    <path class="cls-14" d="M18.34,65.61h27.43c-.02-.14-.05-.29-.06-.46-.02-.26-.01-.5,0-.69-9.12.08-18.25.16-27.36.24v.9Z"/>
    <path class="cls-14" d="M18.54,62.36h27.22c-.02.14-.05.29-.06.46-.02.26-.01.5,0,.69-9.05-.08-18.11-.16-27.15-.24v-.9Z"/>
    <rect class="cls-4" x="42.61" y="67.31" width="1.46" height="5.69"/>
    <rect class="cls-4" x="22.86" y="67.34" width="1.84" height="5.67"/>
    <rect class="cls-4" x="26.14" y="67.96" width="14.16" height="4.39" rx="1.77" ry="1.77"/>
  </g>
  <g>
    <rect class="cls-8" x="59.27" y="87.05" width="29.53" height="5.62" rx=".9" ry=".9"/>
    <path class="cls-17" d="M88.8,99.11v-5.88c0-.28-.19-.51-.41-.51h-27.49c-.23,0-.41.22-.41.51.13.82.22,1.82.22,2.97s-.1,2.11-.22,2.91c0,.03,0,.21.13.36.07.1.18.15.3.15h27.49c.23,0,.41-.22.41-.51h-.01Z"/>
    <path class="cls-15" d="M88.8,93.72h-27.87c.08.72.15,1.56.15,2.49s-.06,1.79-.15,2.52c9.29,0,18.59,0,27.87,0v-5s0-.01,0-.01Z"/>
    <path class="cls-14" d="M88.8,94.41h-27.43c.02.14.05.29.06.46.02.26.01.5,0,.69,9.12-.08,18.25-.16,27.36-.24v-.9Z"/>
    <path class="cls-14" d="M88.59,97.66h-27.22c.02-.14.05-.29.06-.46.02-.26.01-.5,0-.69,9.05.08,18.11.16,27.15.24v.9Z"/>
    <rect class="cls-4" x="63.06" y="87.03" width="1.46" height="5.69"/>
    <rect class="cls-4" x="82.43" y="87.01" width="1.84" height="5.67"/>
    <rect class="cls-4" x="66.84" y="87.66" width="14.16" height="4.39" rx="1.77" ry="1.77"/>
  </g>
  <g>
    <rect class="cls-18" x="18.24" y="82.08" width="32.62" height="6.74" rx=".58" ry=".58"/>
    <g>
      <path class="cls-21" d="M18.63,93.73v-4.91h28.24c.23,0,.42.16.42.36-.13.58-.23,1.3-.22,2.12,0,.8.11,1.5.22,2.08,0,.02,0,.15-.13.25-.07.06-.18.11-.3.11h-28.24Z"/>
      <path class="cls-15" d="M18.63,89.51h28.22c-.08.52-.15,1.11-.15,1.78s.06,1.27.15,1.8h-28.22v-3.57s0-.01,0-.01Z"/>
      <path class="cls-14" d="M19.3,90.01h27.31c-.02.1-.05.21-.06.33-.02.19-.01.35,0,.5-9.09-.06-18.17-.12-27.26-.18v-.65h.01Z"/>
      <path class="cls-14" d="M19.3,92.33h27.11c-.02-.1-.05-.21-.06-.33-.02-.19-.01-.35,0-.5-9.01.06-18.03.12-27.05.18,0,0,0,.65,0,.65Z"/>
    </g>
    <rect class="cls-12" x="47.31" y="82.08" width="1.87" height="6.74"/>
    <rect class="cls-12" x="24.55" y="82.08" width="1.76" height="6.74"/>
    <rect class="cls-12" x="28.82" y="83.16" width="14.23" height="4.37" rx=".17" ry=".17"/>
    <rect class="cls-8" x="18.21" y="93.73" width="32.66" height="6.18" rx=".58" ry=".58"/>
    <rect class="cls-4" x="44.58" y="93.73" width="1.82" height="6.18"/>
    <rect class="cls-4" x="23.22" y="93.74" width="1.71" height="6.16"/>
  </g>
  <rect class="cls-2" x="86.38" y="49.9" width="2.64" height="175.77"/>
  <rect class="cls-2" x="16.89" y="49.9" width="2.64" height="175.77"/>
  <g>
    <path class="cls-3" d="M19.45,49.9v50.01h66.99v-50.01H19.45ZM82.05,74.57c.07,3.14.02,6.27,0,9.41-.02,1.75-.04,3.51-.02,5.26.02,2.4-.79,3.43-2.82,3.36-.61-.02-1.22-.04-1.83-.06h0c-2.24-.07-4.48-.12-6.72-.14-.17,0-.33,0-.5,0-1.29,0-2.57.01-3.85.05-.35,0-.7.02-1.05.03-.97.03-1.94.07-2.9.1-.41.02-.82.03-1.23.02-.28,0-.57-.03-.86-.07-1.22-.19-1.84-1-1.9-2.46-.05-1.26.1-2.51.1-3.77-.02-4.29-.07-8.58,0-12.87.04-2.25.05-4.51.04-6.76,0-2.51-.03-5.02-.04-7.54,0-.38.02-.69.09-.94.16-.63.56-.88,1.37-.91.73-.03,1.46.01,2.18.03.12,0,.25,0,.37,0,2.12.03,4.19-.1,5.35-.12,3.88,0,6.73-.02,9.59.01,1.26.01,2.52.21,3.76.52.71.18,1.06.75,1,1.85-.01.26-.02.51-.03.77-.01.29-.02.58-.02.86-.02.88-.02,1.77-.03,2.65,0,.22,0,.44,0,.67,0,.39-.01.78-.01,1.17,0,.3,0,.6,0,.9-.03,2.66-.04,5.32.02,7.98ZM25.93,92.54c-1.21-.19-1.84-1-1.9-2.46-.05-1.26.1-2.51.09-3.77-.02-4.03-.06-8.06,0-12.1,0-.26,0-.52,0-.77v-.08c.03-1.51.04-3.02.04-4.53,0-.27,0-.53,0-.8,0-1.44,0-2.89-.02-4.33,0-1.52-.02-3.04-.03-4.56-.01-1.34.34-1.81,1.45-1.85.73-.03,1.45.01,2.18.03,2.24.05,4.48-.1,5.7-.12,3.86,0,6.71-.02,9.55.01,1.26.01,2.51.21,3.75.52.7.18,1.06.75,1,1.85-.09,1.65-.08,3.3-.1,4.94-.02,1.69-.04,3.38-.04,5.07,0,1.66.01,3.32.05,4.97.07,3.14.02,6.27,0,9.41-.02,1.75-.04,3.51-.02,5.26.01,1.88-.48,2.91-1.66,3.25h0c-.33.09-.71.13-1.15.11-1.18-.04-2.37-.08-3.55-.11-.82-.02-1.63-.04-2.45-.05h0c-.82-.01-1.63-.03-2.45-.03h0c-.19,0-.38,0-.56,0-2.59-.02-5.19.08-7.78.18h-.05c-.68.03-1.35.05-2.03-.05Z"/>
    <ellipse class="cls-16" cx="50.35" cy="75.31" rx="1.55" ry="1.6"/>
    <ellipse class="cls-16" cx="55.87" cy="75.31" rx="1.55" ry="1.6"/>
    <rect class="cls-6" x="52.27" y="49.9" width="1.67" height="50.01"/>
    <rect class="cls-10" x="85.52" y="55.66" width="2.55" height="9.33" rx="1.09" ry="1.09"/>
    <rect class="cls-10" x="85.48" y="85.61" width="2.55" height="9.33" rx="1.09" ry="1.09"/>
    <rect class="cls-10" x="17.52" y="55.56" width="2.55" height="9.33" rx="1.09" ry="1.09"/>
    <rect class="cls-10" x="17.48" y="85.51" width="2.55" height="9.33" rx="1.09" ry="1.09"/>
  </g>
  <rect class="cls-6" x="19.53" y="99.9" width="66.85" height="1.32"/>
  <path class="cls-22" d="M32.91,57.49c3.9,0,6.78-.02,9.65,0,1.27.01,2.53.21,3.78.51.71.18,1.07.74,1.01,1.83-.09,1.62-.07,3.25-.1,4.87-.05,3.3-.07,6.6,0,9.91.07,3.09.02,6.19,0,9.28-.02,1.73-.03,3.46-.02,5.19.02,2.36-.8,3.38-2.84,3.31-3.04-.1-6.08-.18-9.12-.2-2.62-.02-5.24.08-7.86.18-.7.03-1.41.06-2.11-.05-1.23-.19-1.86-.98-1.92-2.43-.05-1.24.1-2.48.1-3.72-.02-4.23-.07-8.46,0-12.69.08-4.7.02-9.4,0-14.1,0-1.32.35-1.78,1.47-1.83.73-.03,1.47.01,2.2.03,2.26.05,4.52-.1,5.75-.12Z"/>
  <path class="cls-22" d="M67.6,57.53c3.9,0,6.78-.02,9.65,0,1.27.01,2.53.21,3.78.51.71.18,1.07.74,1.01,1.83-.09,1.62-.07,3.25-.1,4.87-.05,3.3-.07,6.6,0,9.91.07,3.09.02,6.19,0,9.28-.02,1.73-.03,3.46-.02,5.19.02,2.36-.8,3.38-2.84,3.31-3.04-.1-6.08-.18-9.12-.2-2.62-.02-5.24.08-7.86.18-.7.03-1.41.06-2.11-.05-1.23-.19-1.86-.98-1.92-2.43-.05-1.24.1-2.48.1-3.72-.02-4.23-.07-8.46,0-12.69.08-4.7.02-9.4,0-14.1,0-1.32.35-1.78,1.47-1.83.73-.03,1.47.01,2.2.03,2.26.05,4.52-.1,5.75-.12Z"/>
</svg>