<?xml version="1.0" encoding="UTF-8"?>
<svg id="Laag_1" xmlns="http://www.w3.org/2000/svg" width="39.56mm" height="81.6mm" viewBox="0 0 112.14 231.31">
  <defs>
    <style>
      .cls-1 {
        fill: #d95500;
      }

      .cls-2 {
        fill: #ffe8cf;
      }

      .cls-3 {
        fill: #b30027;
      }

      .cls-4 {
        fill: none;
        stroke: #71826e;
        stroke-miterlimit: 10;
      }

      .cls-5 {
        fill: #f87c00;
      }

      .cls-6 {
        fill: #6d8768;
      }

      .cls-7 {
        fill: #60381e;
      }

      .cls-8 {
        fill: #8dad8c;
      }

      .cls-9 {
        fill: #857a1c;
      }

      .cls-10 {
        fill: #9b9036;
      }

      .cls-11 {
        fill: #b3cee2;
      }

      .cls-12 {
        fill: #121810;
      }

      .cls-13 {
        fill: #a42100;
      }

      .cls-14 {
        fill: #97baa9;
      }

      .cls-15 {
        fill: #eaceb8;
      }

      .cls-16 {
        fill: #529a61;
      }

      .cls-17 {
        fill: #f2244e;
      }

      .cls-18 {
        fill: #361f0f;
      }

      .cls-19 {
        fill: #759572;
      }

      .cls-20 {
        fill: #709985;
      }

      .cls-21 {
        fill: #97683f;
      }

      .cls-22 {
        fill: #43614a;
      }

      .cls-23 {
        fill: #482915;
      }

      .cls-24 {
        fill: #bd2e00;
      }

      .cls-25 {
        fill: #4a5d58;
      }
    </style>
  </defs>
  <rect class="cls-7" x="51.02" y="167.63" width="11.05" height="63.69"/>
  <rect class="cls-19" x="11.86" y="52.93" width="89.56" height="117.2"/>
  <rect class="cls-18" x="23.99" y="69.26" width="65.71" height="86.99"/>
  <path class="cls-8" d="M11.94,57.72c-.03-1.82-.06-3.65-.09-5.47,14.94-7.54,29.88-15.1,44.84-22.64,14.91,7.53,29.82,15.06,44.73,22.59v4.33c-29.83.4-59.65.79-89.47,1.18h0Z"/>
  <polygon class="cls-16" points="111.44 51.39 56.39 23.32 56.35 23.24 56.29 23.28 56.23 23.24 56.19 23.32 2.7 50.58 4.99 55.74 56.29 29.6 109.15 56.54 111.44 51.39"/>
  <rect class="cls-8" x="11.86" y="54.41" width="89.55" height="3.56"/>
  <polygon class="cls-12" points="111.44 51.39 56.39 23.32 56.35 23.24 56.29 23.28 56.23 23.24 56.19 23.32 2.7 50.58 4.99 55.74 56.29 29.6 109.15 56.54 111.44 51.39"/>
  <rect class="cls-10" x="24.98" y="79.49" width="5.82" height="24" rx=".68" ry=".68"/>
  <rect class="cls-5" x="30.8" y="75.89" width="5.82" height="27.6" rx=".68" ry=".68"/>
  <rect class="cls-14" x="36.61" y="78.23" width="3.99" height="25.25"/>
  <rect class="cls-3" x="40.59" y="78.23" width="3.99" height="25.25" rx=".68" ry=".68"/>
  <rect class="cls-24" x="44.58" y="79.49" width="5.82" height="24" rx=".68" ry=".68"/>
  <rect class="cls-1" x="30.79" y="78.81" width="5.82" height="1.98"/>
  <rect class="cls-1" x="31.69" y="84.03" width="4.03" height="11.55" rx=".96" ry=".96"/>
  <rect class="cls-1" x="30.79" y="99.08" width="5.82" height="1.98"/>
  <rect class="cls-17" x="40.59" y="80.36" width="3.99" height=".99"/>
  <rect class="cls-17" x="40.59" y="99.39" width="3.99" height=".99"/>
  <rect class="cls-13" x="45.47" y="85.7" width="4.03" height="11.55" rx=".96" ry=".96"/>
  <rect class="cls-13" x="44.58" y="81.35" width="5.82" height="1.98"/>
  <rect class="cls-13" x="44.58" y="100.37" width="5.82" height="1.98"/>
  <rect class="cls-20" x="36.61" y="80.11" width="3.99" height="1.58"/>
  <rect class="cls-20" x="36.61" y="100.25" width="3.99" height="1.58"/>
  <rect class="cls-9" x="25.87" y="85.64" width="4.03" height="11.55" rx=".96" ry=".96"/>
  <rect class="cls-9" x="24.98" y="81.35" width="5.82" height="1.98"/>
  <rect class="cls-9" x="24.98" y="99.49" width="5.82" height="1.98"/>
  <rect class="cls-5" x="69.1" y="79.7" width="5.82" height="25.25" rx=".52" ry=".52"/>
  <rect class="cls-10" x="74.9" y="81.84" width="3.99" height="23.12" rx=".52" ry=".52"/>
  <rect class="cls-3" x="78.88" y="81.84" width="3.99" height="23.12" rx=".52" ry=".52"/>
  <rect class="cls-24" x="82.87" y="82.99" width="5.82" height="21.96" rx=".52" ry=".52"/>
  <rect class="cls-1" x="69.09" y="82.37" width="5.82" height="1.81"/>
  <rect class="cls-1" x="69.98" y="87.16" width="4.03" height="10.57" rx=".96" ry=".96"/>
  <rect class="cls-1" x="69.09" y="100.91" width="5.82" height="1.81"/>
  <path class="cls-14" d="M63.95,104.84h4.73c.22,0,.41-.18.41-.41v-26.79c0-.22-.18-.41-.41-.41-.66.13-1.46.22-2.39.21-.9,0-1.7-.1-2.35-.21-.03,0-.17,0-.29.12-.08.08-.12.17-.12.29v26.79c0,.22.18.41.41.41h0Z"/>
  <path class="cls-2" d="M68.31,104.84v-27.17c-.58.09-1.25.15-2.01.15s-1.44-.06-2.03-.15v27.17h4.03Z"/>
  <path class="cls-15" d="M67.74,104.2v-26.3c-.11.03-.23.05-.37.06-.21.02-.4.02-.55,0,.07,8.75.14,17.49.19,26.24h.73Z"/>
  <path class="cls-15" d="M65.12,104.2v-26.09c.11.03.23.05.37.06.21.02.4.02.55,0-.07,8.68-.14,17.36-.19,26.03,0,0-.73,0-.73,0Z"/>
  <rect class="cls-9" x="74.9" y="83.27" width="3.99" height="1.58"/>
  <rect class="cls-9" x="74.9" y="101.02" width="3.99" height="1.58"/>
  <rect class="cls-17" x="78.88" y="83.39" width="3.99" height=".99"/>
  <rect class="cls-17" x="78.88" y="102.4" width="3.99" height=".99"/>
  <rect class="cls-13" x="83.75" y="88.18" width="4.03" height="11.55" rx=".96" ry=".96"/>
  <rect class="cls-13" x="82.87" y="84.5" width="5.82" height="1.98"/>
  <rect class="cls-13" x="82.87" y="102.12" width="5.82" height="1.98"/>
  <rect class="cls-14" x="23.62" y="139.96" width="25.21" height="5.92" rx="1.34" ry="1.34"/>
  <g>
    <path class="cls-10" d="M23.92,149.89v-3.69c0-.17.15-.32.33-.32h21.51c.18,0,.33.15.33.32-.1.51-.17,1.14-.17,1.86s.08,1.32.17,1.82c0,.02,0,.14-.1.22-.06.06-.14.1-.23.1h-21.51c-.18,0-.33-.15-.33-.32h0Z"/>
    <path class="cls-2" d="M23.92,146.51h21.81c-.07.46-.12.98-.12,1.56s.05,1.12.12,1.58h-21.81v-3.14Z"/>
    <path class="cls-15" d="M24.42,146.94h21.11c-.02.09-.04.18-.05.29-.02.16,0,.31,0,.44-7.02-.05-14.04-.11-21.06-.16v-.57Z"/>
    <path class="cls-15" d="M24.42,148.98h20.94c-.02-.09-.04-.18-.05-.29-.02-.16,0-.31,0-.44-6.96.05-13.93.11-20.9.16,0,0,0,.57,0,.57Z"/>
  </g>
  <rect class="cls-20" x="46.07" y="139.96" width="1.45" height="5.92"/>
  <rect class="cls-20" x="28.49" y="139.96" width="1.36" height="5.92"/>
  <rect class="cls-20" x="31.79" y="140.91" width="11" height="3.85" rx=".96" ry=".96"/>
  <rect class="cls-5" x="23.58" y="150.2" width="25.24" height="5.44" rx="1.34" ry="1.34"/>
  <rect class="cls-1" x="43.96" y="150.21" width="1.41" height="5.44"/>
  <rect class="cls-1" x="27.46" y="150.22" width="1.32" height="5.42"/>
  <rect class="cls-21" x="24.73" y="103.76" width="63.05" height="2.71"/>
  <rect class="cls-21" x="24.83" y="130.28" width="63.05" height="2.71"/>
  <rect class="cls-14" x="25.72" y="114.53" width="25.21" height="5.92" rx=".7" ry=".7"/>
  <g>
    <path class="cls-10" d="M26.03,124.46v-3.69c0-.17.15-.32.33-.32h21.51c.18,0,.33.15.33.32-.1.51-.17,1.14-.17,1.86s.08,1.32.17,1.82c0,.02,0,.14-.1.22-.06.06-.14.1-.23.1h-21.51c-.18,0-.33-.15-.33-.32h0Z"/>
    <path class="cls-2" d="M26.03,121.07h21.81c-.07.46-.12.98-.12,1.56s.05,1.12.12,1.58h-21.81v-3.14Z"/>
    <path class="cls-15" d="M26.53,121.51h21.11c-.02.09-.04.18-.05.29-.02.16,0,.31,0,.44-7.02-.05-14.04-.11-21.06-.16v-.57Z"/>
    <path class="cls-15" d="M26.53,123.55h20.94c-.02-.09-.04-.18-.05-.29-.02-.16,0-.31,0-.44-6.96.05-13.93.11-20.9.16,0,0,0,.57,0,.57Z"/>
  </g>
  <rect class="cls-20" x="32.19" y="115.57" width="11" height="3.85" rx=".96" ry=".96"/>
  <rect class="cls-5" x="25.69" y="124.77" width="25.24" height="5.44" rx=".7" ry=".7"/>
  <rect class="cls-1" x="48.2" y="124.78" width="1.41" height="5.44"/>
  <rect class="cls-1" x="28.19" y="124.77" width="1.41" height="5.44"/>
  <rect class="cls-20" x="47.63" y="114.54" width="1.41" height="5.9"/>
  <rect class="cls-20" x="27.62" y="114.53" width="1.41" height="5.9"/>
  <rect class="cls-14" x="60.67" y="124.53" width="25.21" height="5.92" rx=".7" ry=".7"/>
  <rect class="cls-20" x="67.78" y="125.56" width="11" height="3.85" rx=".96" ry=".96"/>
  <rect class="cls-20" x="82.58" y="124.54" width="1.41" height="5.9"/>
  <rect class="cls-20" x="62.57" y="124.53" width="1.41" height="5.9"/>
  <rect class="cls-6" x="11.86" y="57.93" width="89.56" height="1.55"/>
  <rect class="cls-10" x="66.18" y="136.07" width="4.98" height="20.53" rx=".58" ry=".58"/>
  <rect class="cls-5" x="71.16" y="132.99" width="4.98" height="23.6" rx=".58" ry=".58"/>
  <rect class="cls-14" x="76.13" y="134.99" width="3.41" height="21.6"/>
  <rect class="cls-3" x="79.54" y="134.99" width="3.41" height="21.6" rx=".58" ry=".58"/>
  <rect class="cls-24" x="82.95" y="136.07" width="4.98" height="20.53" rx=".58" ry=".58"/>
  <rect class="cls-1" x="71.15" y="135.49" width="4.98" height="1.69"/>
  <rect class="cls-1" x="71.92" y="139.95" width="3.45" height="9.88" rx=".82" ry=".82"/>
  <rect class="cls-17" x="79.54" y="136.81" width="3.41" height=".85"/>
  <rect class="cls-13" x="83.71" y="141.38" width="3.45" height="9.88" rx=".82" ry=".82"/>
  <rect class="cls-13" x="82.95" y="137.66" width="4.98" height="1.69"/>
  <rect class="cls-20" x="76.13" y="136.6" width="3.41" height="1.35"/>
  <rect class="cls-9" x="66.94" y="141.33" width="3.45" height="9.88" rx=".82" ry=".82"/>
  <rect class="cls-9" x="66.18" y="137.66" width="4.98" height="1.69"/>
  <g>
    <path class="cls-8" d="M20.01,64.03v97.44h72.55v-97.44H20.01ZM87.33,77.07c-.23,3.9-.19,7.81-.27,11.71-.13,7.94-.18,15.88.01,23.83.18,7.44.06,14.87-.01,22.31-.04,4.17-.09,8.32-.05,12.48.05,5.69-2.07,8.14-7.39,7.97-7.91-.25-15.82-.44-23.72-.48-6.82-.03-13.63.2-20.45.44-1.82.06-3.66.15-5.48-.11-3.2-.46-4.83-2.37-4.99-5.84-.14-2.98.26-5.96.25-8.94-.04-10.17-.17-20.35.01-30.5.21-11.31.06-22.62-.02-33.92-.02-3.18.91-4.28,3.84-4.39,1.91-.07,3.82.02,5.72.06,5.88.13,11.76-.25,14.96-.28,10.16,0,17.64-.05,25.12.02,3.3.03,6.59.5,9.84,1.24,1.85.42,2.77,1.77,2.62,4.39Z"/>
    <g>
      <rect class="cls-11" x="16.47" y="76.26" width="6.4" height="8.02" rx="1.19" ry="1.19"/>
      <rect class="cls-11" x="90.39" y="110.3" width="6.42" height="3.96"/>
      <g>
        <circle class="cls-25" cx="17.59" cy="78.08" r=".56"/>
        <circle class="cls-25" cx="21.5" cy="78.08" r=".56"/>
        <circle class="cls-25" cx="17.71" cy="82.95" r=".56"/>
        <circle class="cls-25" cx="21.63" cy="82.95" r=".56"/>
      </g>
      <g>
        <rect class="cls-11" x="16.47" y="142.54" width="6.4" height="8.02" rx="1.19" ry="1.19"/>
        <g>
          <circle class="cls-25" cx="17.55" cy="144.11" r=".56"/>
          <circle class="cls-25" cx="21.47" cy="144.11" r=".56"/>
          <circle class="cls-25" cx="17.67" cy="148.99" r=".56"/>
          <circle class="cls-25" cx="21.58" cy="148.99" r=".56"/>
        </g>
      </g>
    </g>
  </g>
  <path class="cls-4" d="M49.74,71.42c10.14,0,17.61-.05,25.08.02,3.3.03,6.58.5,9.82,1.24,1.85.43,2.77,1.78,2.62,4.42-.23,3.94-.19,7.87-.26,11.81-.13,8-.19,16,0,24.01.18,7.49.06,14.99,0,22.48-.04,4.19-.09,8.38-.05,12.57.05,5.73-2.07,8.2-7.38,8.03-7.89-.25-15.79-.44-23.68-.48-6.81-.04-13.61.2-20.41.44-1.83.06-3.65.15-5.48-.11-3.19-.46-4.82-2.38-4.98-5.88-.14-3.01.26-6,.25-9.01-.04-10.25-.17-20.5.01-30.74.21-11.39.06-22.78-.02-34.17-.02-3.19.9-4.32,3.82-4.42,1.9-.07,3.81.03,5.72.07,5.88.12,11.74-.24,14.95-.28Z"/>
  <rect class="cls-23" x="51.02" y="170.13" width="11.05" height="19.3"/>
  <path class="cls-22" d="M11.86,52.25c0,1.28,0,2.56,0,3.84,14.7-7.74,29.4-15.47,44.1-23.21,15.16,7.89,30.31,15.77,45.47,23.66v-3.93c-15.04-7.69-30.08-15.39-45.12-23.08-14.82,7.57-29.63,15.15-44.45,22.72Z"/>
</svg>