<?xml version="1.0" encoding="UTF-8"?>
<svg id="Laag_1" xmlns="http://www.w3.org/2000/svg" width="38.97mm" height="81.65mm" viewBox="0 0 110.47 231.44">
  <defs>
    <style>
      .cls-1 {
        fill: #847a2f;
      }

      .cls-2 {
        fill: none;
        stroke: #f7e1c7;
        stroke-miterlimit: 10;
        stroke-width: 2px;
      }

      .cls-3 {
        fill: #ca5e00;
      }

      .cls-4 {
        fill: #d3c1ad;
      }

      .cls-5 {
        fill: #aa9e8f;
      }

      .cls-6 {
        fill: #ede0cd;
      }

      .cls-7 {
        fill: #e98328;
      }

      .cls-8 {
        fill: #df3d53;
      }

      .cls-9 {
        fill: #fcecd7;
      }

      .cls-10 {
        fill: #004345;
      }

      .cls-11 {
        fill: #799987;
      }

      .cls-12 {
        fill: #e6d0bc;
      }

      .cls-13 {
        fill: #982e10;
      }

      .cls-14 {
        fill: #ffead3;
      }

      .cls-15 {
        fill: #a40c2c;
      }

      .cls-16 {
        fill: #26632d;
      }

      .cls-17 {
        fill: #248035;
      }

      .cls-18 {
        fill: #af3b0b;
      }

      .cls-19 {
        fill: #9fbaab;
      }

      .cls-20 {
        fill: #fffaf1;
      }

      .cls-21 {
        fill: #9a9145;
      }
    </style>
  </defs>
  <rect class="cls-9" x="5.26" y="9.17" width="100.69" height="216.96"/>
  <g>
    <rect class="cls-10" x="17.98" y="39.98" width="79.57" height="35.47"/>
    <rect class="cls-10" x="17.98" y="79.23" width="79.57" height="35.47"/>
    <rect class="cls-10" x="17.98" y="118.47" width="79.57" height="35.47"/>
    <rect class="cls-10" x="18.07" y="158.86" width="79.57" height="35.47"/>
  </g>
  <rect class="cls-17" x="17.23" y="20.97" width="79.57" height="15.53"/>
  <rect class="cls-6" x="1.79" y="2.9" width="108.67" height="9.82"/>
  <g>
    <path class="cls-20" d="M38.14,25.7v1.76h1.43v1.14h-1.43v2.93c0,.18.04.32.12.4.08.08.22.13.42.13h.89v1.14h-1.28c-.54,0-.95-.11-1.23-.33-.28-.22-.42-.61-.42-1.19v-3.09h-.99v-1.14h.99v-1.76h1.5Z"/>
    <path class="cls-20" d="M41.52,32.94c-.43-.26-.76-.61-.99-1.07-.23-.46-.34-.97-.34-1.54s.11-1.09.34-1.54c.23-.46.56-.81.99-1.07.43-.26.95-.39,1.54-.39s1.11.13,1.54.39c.43.26.76.62.99,1.09.23.47.34,1.02.34,1.65v.33h-4.27c.06.43.21.77.45,1.02.24.24.56.36.95.36.63,0,1.07-.25,1.31-.74h1.46c-.19.58-.53,1.04-1.01,1.38-.49.34-1.07.51-1.75.51-.6,0-1.11-.13-1.54-.39ZM44.43,29.75c-.07-.4-.23-.71-.46-.93-.24-.22-.54-.34-.9-.34s-.68.11-.92.34c-.24.22-.39.53-.46.93h2.75Z"/>
    <path class="cls-20" d="M48.33,25.25v6.28c0,.18.04.32.12.4s.22.13.42.13h.75v1.14h-1.14c-.54,0-.95-.11-1.23-.33-.28-.22-.42-.61-.42-1.19v-6.43h1.5Z"/>
    <path class="cls-20" d="M51.57,32.94c-.43-.26-.76-.61-.99-1.07-.23-.46-.34-.97-.34-1.54s.11-1.09.34-1.54c.23-.46.56-.81.99-1.07.43-.26.95-.39,1.54-.39s1.11.13,1.54.39c.43.26.76.62.99,1.09.23.47.34,1.02.34,1.65v.33h-4.27c.06.43.21.77.45,1.02.24.24.56.36.95.36.63,0,1.07-.25,1.31-.74h1.46c-.19.58-.53,1.04-1.01,1.38-.49.34-1.07.51-1.75.51-.6,0-1.11-.13-1.54-.39ZM54.48,29.75c-.07-.4-.23-.71-.46-.93-.24-.22-.54-.34-.9-.34s-.68.11-.92.34c-.24.22-.39.53-.46.93h2.75Z"/>
    <path class="cls-20" d="M57.89,25.57c.28-.21.69-.32,1.23-.32h1.28v1.14h-.89c-.2,0-.34.04-.42.12-.08.08-.12.21-.12.4v.55h1.43v1.14h-1.43v4.6h-1.5v-4.6h-.99v-1.14h.99v-.71c0-.57.14-.97.42-1.18Z"/>
    <path class="cls-20" d="M62.36,32.94c-.44-.26-.78-.61-1.01-1.07-.23-.46-.35-.97-.35-1.54s.12-1.09.35-1.54.57-.81,1.01-1.07c.44-.26.97-.39,1.58-.39s1.14.13,1.58.39c.44.26.78.61,1.01,1.07s.35.97.35,1.54-.12,1.09-.35,1.54c-.23.46-.57.81-1.01,1.07-.44.26-.97.39-1.58.39s-1.14-.13-1.58-.39ZM62.88,31.62c.23.31.59.47,1.06.47s.83-.16,1.06-.47c.23-.31.35-.74.35-1.3s-.12-.98-.35-1.3c-.23-.31-.59-.47-1.06-.47s-.83.16-1.06.47c-.23.31-.35.74-.35,1.3s.12.98.35,1.3Z"/>
    <path class="cls-20" d="M68.89,32.94c-.44-.26-.78-.61-1.01-1.07-.23-.46-.35-.97-.35-1.54s.12-1.09.35-1.54.57-.81,1.01-1.07c.44-.26.97-.39,1.58-.39s1.14.13,1.58.39c.44.26.78.61,1.01,1.07s.35.97.35,1.54-.12,1.09-.35,1.54c-.23.46-.57.81-1.01,1.07-.44.26-.97.39-1.58.39s-1.14-.13-1.58-.39ZM69.41,31.62c.23.31.59.47,1.06.47s.83-.16,1.06-.47c.23-.31.35-.74.35-1.3s-.12-.98-.35-1.3c-.23-.31-.59-.47-1.06-.47s-.83.16-1.06.47c-.23.31-.35.74-.35,1.3s.12.98.35,1.3Z"/>
    <path class="cls-20" d="M77.88,28.94c-.17-.21-.43-.31-.8-.31-.32,0-.61.11-.87.34-.26.23-.39.59-.39,1.08h-.01v3.14h-1.5v-5.74h1.46v.79c.21-.29.47-.51.78-.68.31-.16.65-.25,1.04-.25.65,0,1.15.2,1.51.61.36.41.53.97.53,1.69v3.57h-1.5v-3.4c0-.36-.08-.65-.25-.85Z"/>
  </g>
  <rect class="cls-5" x="13.03" y="110.39" width="2" height="18.44"/>
  <rect class="cls-2" x="9.73" y="14.42" width="91.57" height="207.9"/>
  <rect class="cls-6" x="3.66" y="224.02" width="106.81" height="7.41"/>
  <rect class="cls-4" x="3.63" y="221.28" width="106.83" height="2.74"/>
  <rect class="cls-16" x="17.23" y="20.97" width="79.57" height="1.9"/>
  <rect class="cls-5" x="99.39" y="22.33" width="3.82" height="12.8" rx="1.56" ry="1.56"/>
  <rect class="cls-5" x="99.39" y="200.93" width="3.82" height="12.8" rx="1.56" ry="1.56"/>
  <rect class="cls-19" x="29.29" y="164.94" width="6.87" height="29.23" rx="1.38" ry="1.38" transform="translate(212.28 146.83) rotate(90)"/>
  <g>
    <path class="cls-21" d="M18.46,187.64v-4.28c0-.2.17-.37.38-.37h24.94c.21,0,.38.16.38.37-.11.6-.2,1.33-.2,2.16,0,.82.09,1.53.2,2.12,0,.02,0,.15-.11.26-.07.07-.16.11-.27.11h-24.94c-.21,0-.38-.16-.38-.37Z"/>
    <path class="cls-14" d="M18.46,183.71h25.29c-.08.53-.14,1.13-.14,1.81,0,.69.06,1.3.14,1.83h-25.29v-3.64Z"/>
    <path class="cls-12" d="M19.05,184.21h24.48c-.02.1-.04.21-.06.33-.02.19-.01.36,0,.5-8.14-.06-16.28-.12-24.42-.18v-.66Z"/>
    <path class="cls-12" d="M19.05,186.58h24.29c-.02-.1-.04-.21-.06-.33-.02-.19-.01-.36,0-.5-8.08.06-16.16.12-24.24.18v.66Z"/>
  </g>
  <rect class="cls-11" x="44.15" y="176.12" width="1.68" height="6.87" transform="translate(89.99 359.11) rotate(180)"/>
  <rect class="cls-11" x="23.76" y="176.12" width="1.57" height="6.87" transform="translate(49.09 359.11) rotate(180)"/>
  <rect class="cls-11" x="27.59" y="177.23" width="12.75" height="4.46" rx=".99" ry=".99" transform="translate(67.94 358.92) rotate(180)"/>
  <rect class="cls-7" x="29.55" y="176.52" width="6.31" height="29.27" rx="1.38" ry="1.38" transform="translate(223.86 158.45) rotate(90)"/>
  <rect class="cls-3" x="41.71" y="188" width="1.63" height="6.31" transform="translate(85.05 382.31) rotate(180)"/>
  <rect class="cls-3" x="22.57" y="188.01" width="1.53" height="6.29" transform="translate(46.67 382.31) rotate(180)"/>
  <rect class="cls-16" x="17.23" y="35.62" width="79.57" height="1.41"/>
  <path class="cls-4" d="M108.76,15.31c-35.17.1-70.34.21-105.51.31-.48-.97-.97-1.94-1.45-2.9h108.67l-1.71,2.59Z"/>
  <rect class="cls-18" x="23.68" y="126.96" width="7.52" height="27.11" rx="1.38" ry="1.38"/>
  <rect class="cls-13" x="23.68" y="149.57" width="7.52" height="2.75"/>
  <rect class="cls-15" x="17.93" y="123.86" width="5.75" height="30.21" rx=".85" ry=".85" transform="translate(41.61 277.92) rotate(-180)"/>
  <rect class="cls-8" x="20.08" y="125.59" width="1.5" height="5.79" transform="translate(149.31 107.66) rotate(90)"/>
  <rect class="cls-8" x="19.87" y="146.56" width="1.89" height="5.76" transform="translate(170.25 128.62) rotate(90)"/>
  <rect class="cls-8" x="13.55" y="136.59" width="14.49" height="4.49" rx="1.67" ry="1.67" transform="translate(159.63 118.05) rotate(90)"/>
  <rect class="cls-13" x="23.68" y="129.6" width="7.48" height="2.75"/>
  <rect class="cls-13" x="21.48" y="138.32" width="11.93" height="4.3" rx=".99" ry=".99" transform="translate(167.91 113.03) rotate(90)"/>
  <rect class="cls-21" x="17.98" y="81.44" width="5.85" height="33.22" rx="1.38" ry="1.38" transform="translate(41.81 196.1) rotate(-180)"/>
  <path class="cls-19" d="M33.68,114.78l3.72-1.17c.46-.14.73-.62.59-1.04l-8.91-27.78c-.13-.41-.6-.63-1.04-.49l-3.72,1.17c-.46.14-.73.62-.59,1.04l8.91,27.78c.13.41.6.63,1.04.49Z"/>
  <rect class="cls-18" x="44.45" y="84.93" width="5.67" height="30.03" rx="1.08" ry="1.08" transform="translate(94.57 199.89) rotate(-180)"/>
  <path class="cls-11" d="M24.33,88.4c1.76-.66,3.51-1.32,5.27-1.98-.13-.39-.25-.78-.38-1.17-1.77.63-3.53,1.26-5.3,1.9.13.42.27.84.4,1.25Z"/>
  <path class="cls-7" d="M38.48,114.76h5.49c.26,0,.47-.21.47-.47v-31.07c0-.26-.21-.47-.47-.47-.76.14-1.7.25-2.78.25-1.05,0-1.97-.11-2.72-.25-.03,0-.2,0-.33.14-.09.09-.14.2-.14.33v31.07c0,.26.21.47.47.47Z"/>
  <path class="cls-14" d="M43.52,114.76v-31.5c-.67.1-1.46.17-2.32.17-.88,0-1.67-.07-2.35-.17,0,10.5,0,21,0,31.5h4.68Z"/>
  <path class="cls-12" d="M42.88,114.03v-30.5c-.13.03-.27.05-.43.07-.24.02-.46.02-.65,0,.08,10.14.15,20.28.23,30.43h.84Z"/>
  <path class="cls-12" d="M39.84,114.03v-30.27c.13.03.27.05.43.07.24.02.46.02.65,0-.08,10.07-.15,20.13-.23,30.2h-.84Z"/>
  <rect class="cls-13" x="44.45" y="88.21" width="5.67" height="1.36" transform="translate(94.57 177.78) rotate(-180)"/>
  <rect class="cls-13" x="44.45" y="107.41" width="5.67" height="1.36" transform="translate(94.57 216.18) rotate(-180)"/>
  <path class="cls-11" d="M31.44,110.65c1.76-.66,3.51-1.32,5.27-1.98-.13-.39-.25-.78-.38-1.17-1.77.63-3.53,1.26-5.3,1.9.13.42.27.84.4,1.25Z"/>
  <rect class="cls-1" x="17.98" y="84.54" width="5.85" height="2.29" transform="translate(41.81 171.37) rotate(-180)"/>
  <rect class="cls-1" x="14.21" y="95.27" width="13.39" height="4.06" rx=".99" ry=".99" transform="translate(118.21 76.4) rotate(90)"/>
  <rect class="cls-1" x="17.98" y="108.05" width="5.85" height="2.29" transform="translate(41.81 218.38) rotate(-180)"/>
  <g>
    <rect class="cls-7" x="77.28" y="86.41" width="6.51" height="34.2" rx=".85" ry=".85" transform="translate(-22.97 184.04) rotate(-90)"/>
    <path class="cls-15" d="M97.63,114.21v-6.81c0-.32-.22-.58-.48-.58h-31.84c-.27,0-.48.26-.48.58.15.95.26,2.11.26,3.44,0,1.3-.12,2.44-.26,3.37,0,.04,0,.25.14.41.09.11.21.17.34.17h31.84c.27,0,.48-.26.48-.58Z"/>
    <path class="cls-14" d="M97.63,107.96h-32.29c.1.84.17,1.8.17,2.88,0,1.09-.07,2.07-.17,2.92,10.76,0,21.53,0,32.29,0v-5.8Z"/>
    <path class="cls-12" d="M97.63,108.77h-31.77c.03.16.06.34.07.53.02.3.02.57,0,.8,10.57-.09,21.13-.19,31.7-.28v-1.05Z"/>
    <path class="cls-12" d="M97.39,112.53h-31.53c.03-.16.06-.34.07-.53.02-.3.02-.57,0-.8,10.49.09,20.97.19,31.46.28v1.05Z"/>
    <rect class="cls-3" x="67.83" y="100.21" width="1.7" height="6.59"/>
    <rect class="cls-3" x="90.26" y="100.21" width="2.14" height="6.57"/>
    <rect class="cls-3" x="72.2" y="100.95" width="16.4" height="5.09" rx="1.67" ry="1.67"/>
  </g>
  <rect class="cls-9" x="17.47" y="114.66" width="80.76" height="3.71"/>
  <rect class="cls-21" x="91.78" y="161.11" width="5.85" height="33.22" rx="1.38" ry="1.38"/>
  <path class="cls-15" d="M81.93,194.44l-3.72-1.17c-.46-.14-.73-.62-.59-1.04l8.91-27.78c.13-.41.6-.63,1.04-.49l3.72,1.17c.46.14.73.62.59,1.04l-8.91,27.78c-.13.41-.6.63-1.04.49Z"/>
  <path class="cls-8" d="M91.28,168.06c-1.76-.66-3.51-1.32-5.27-1.98.13-.39.25-.78.38-1.17,1.77.63,3.53,1.26,5.3,1.9-.13.42-.27.84-.4,1.25Z"/>
  <rect class="cls-8" x="85.56" y="167.66" width="5.61" height=".64" transform="translate(62.29 -20.02) rotate(19.85)"/>
  <path class="cls-8" d="M84.17,190.31c-1.76-.66-3.51-1.32-5.27-1.98.13-.39.25-.78.38-1.17,1.77.63,3.53,1.26,5.3,1.9-.13.42-.27.84-.4,1.25Z"/>
  <rect class="cls-1" x="91.78" y="164.2" width="5.85" height="2.29"/>
  <rect class="cls-1" x="88.01" y="174.94" width="13.39" height="4.06" rx=".99" ry=".99" transform="translate(271.67 82.26) rotate(90)"/>
  <rect class="cls-1" x="91.78" y="187.71" width="5.85" height="2.29"/>
  <rect class="cls-21" x="17.98" y="47.62" width="6.74" height="27.83" rx=".7" ry=".7"/>
  <rect class="cls-7" x="24.72" y="43.45" width="6.74" height="32" rx=".7" ry=".7"/>
  <rect class="cls-19" x="31.47" y="46.16" width="4.62" height="29.29"/>
  <rect class="cls-15" x="36.09" y="46.16" width="4.62" height="29.29" rx=".7" ry=".7"/>
  <rect class="cls-18" x="40.7" y="47.62" width="6.74" height="27.83" rx=".7" ry=".7"/>
  <rect class="cls-3" x="24.72" y="46.83" width="6.74" height="2.29" transform="translate(56.19 95.96) rotate(-180)"/>
  <rect class="cls-3" x="21.4" y="57.26" width="13.39" height="4.68" rx=".99" ry=".99" transform="translate(87.69 31.51) rotate(90)"/>
  <rect class="cls-3" x="24.72" y="70.34" width="6.74" height="2.29" transform="translate(56.19 142.98) rotate(-180)"/>
  <rect class="cls-7" x="74.82" y="124.65" width="6.74" height="29.29" rx=".54" ry=".54"/>
  <rect class="cls-21" x="81.56" y="127.14" width="4.62" height="26.81" rx=".54" ry=".54"/>
  <rect class="cls-15" x="86.18" y="127.14" width="4.62" height="26.81" rx=".54" ry=".54"/>
  <rect class="cls-18" x="90.8" y="128.47" width="6.74" height="25.47" rx=".54" ry=".54"/>
  <rect class="cls-3" x="74.82" y="127.75" width="6.74" height="2.1" transform="translate(156.38 257.6) rotate(-180)"/>
  <rect class="cls-3" x="72.06" y="137.09" width="12.25" height="4.68" rx=".99" ry=".99" transform="translate(217.62 61.24) rotate(90)"/>
  <rect class="cls-3" x="74.82" y="149.27" width="6.74" height="2.1" transform="translate(156.38 300.63) rotate(-180)"/>
  <rect class="cls-8" x="36.09" y="48.64" width="4.62" height="1.15" transform="translate(76.79 98.42) rotate(-180)"/>
  <rect class="cls-8" x="36.09" y="70.7" width="4.62" height="1.15" transform="translate(76.79 142.55) rotate(-180)"/>
  <rect class="cls-13" x="37.38" y="59.2" width="13.39" height="4.68" rx=".99" ry=".99" transform="translate(105.61 17.46) rotate(90)"/>
  <rect class="cls-13" x="40.7" y="49.78" width="6.74" height="2.29" transform="translate(88.15 101.86) rotate(-180)"/>
  <rect class="cls-13" x="40.7" y="71.85" width="6.74" height="2.29" transform="translate(88.15 145.99) rotate(-180)"/>
  <path class="cls-19" d="M68.85,153.82h5.49c.26,0,.47-.21.47-.47v-31.07c0-.26-.21-.47-.47-.47-.76.14-1.7.25-2.78.25-1.05,0-1.97-.11-2.72-.25-.03,0-.2,0-.33.14-.09.09-.14.2-.14.33v31.07c0,.26.21.47.47.47Z"/>
  <path class="cls-14" d="M73.89,153.82v-31.5c-.67.1-1.46.17-2.32.17-.88,0-1.67-.07-2.35-.17,0,10.5,0,21,0,31.5h4.68Z"/>
  <path class="cls-12" d="M73.25,153.08v-30.5c-.13.03-.27.05-.43.07-.24.02-.46.02-.65,0,.08,10.14.15,20.28.23,30.43h.84Z"/>
  <path class="cls-12" d="M70.21,153.08v-30.27c.13.03.27.05.43.07.24.02.46.02.65,0-.08,10.07-.15,20.13-.23,30.2h-.84Z"/>
  <rect class="cls-11" x="31.47" y="48.34" width="4.62" height="1.84"/>
  <rect class="cls-11" x="31.47" y="71.72" width="4.62" height="1.84"/>
  <rect class="cls-1" x="14.66" y="59.11" width="13.39" height="4.68" rx=".99" ry=".99" transform="translate(82.8 40.1) rotate(90)"/>
  <rect class="cls-1" x="17.98" y="49.78" width="6.74" height="2.29" transform="translate(42.7 101.86) rotate(-180)"/>
  <rect class="cls-1" x="17.98" y="70.83" width="6.74" height="2.29" transform="translate(42.7 143.94) rotate(-180)"/>
  <rect class="cls-1" x="81.56" y="128.8" width="4.62" height="1.84"/>
  <rect class="cls-1" x="81.56" y="149.4" width="4.62" height="1.84"/>
  <rect class="cls-8" x="86.18" y="128.93" width="4.62" height="1.15" transform="translate(176.98 259.01) rotate(-180)"/>
  <rect class="cls-8" x="86.18" y="151" width="4.62" height="1.15" transform="translate(176.98 303.14) rotate(-180)"/>
  <rect class="cls-13" x="87.48" y="138.86" width="13.39" height="4.68" rx=".99" ry=".99" transform="translate(235.38 47.03) rotate(90)"/>
  <rect class="cls-13" x="90.8" y="130.23" width="6.74" height="2.29" transform="translate(188.34 262.76) rotate(-180)"/>
  <rect class="cls-13" x="90.8" y="150.67" width="6.74" height="2.29" transform="translate(188.34 303.62) rotate(-180)"/>
  <rect class="cls-19" x="68.13" y="48.66" width="6.74" height="26.79" rx=".7" ry=".7"/>
  <rect class="cls-7" x="74.87" y="44.64" width="6.74" height="30.81" rx=".7" ry=".7"/>
  <rect class="cls-18" x="81.62" y="47.25" width="4.62" height="28.2"/>
  <rect class="cls-15" x="86.24" y="47.25" width="4.62" height="28.2" rx=".7" ry=".7"/>
  <rect class="cls-19" x="90.86" y="48.66" width="6.74" height="26.79" rx=".7" ry=".7"/>
  <rect class="cls-3" x="74.87" y="47.9" width="6.74" height="2.21" transform="translate(156.49 98) rotate(-180)"/>
  <rect class="cls-3" x="71.8" y="57.85" width="12.89" height="4.68" rx=".99" ry=".99" transform="translate(138.43 -18.06) rotate(90)"/>
  <rect class="cls-8" x="86.24" y="49.63" width="4.62" height="1.1" transform="translate(177.09 100.37) rotate(-180)"/>
  <rect class="cls-11" x="87.78" y="59.71" width="12.89" height="4.68" rx=".99" ry=".99" transform="translate(156.28 -32.18) rotate(90)"/>
  <rect class="cls-11" x="90.86" y="50.74" width="6.74" height="2.21" transform="translate(188.46 103.68) rotate(-180)"/>
  <rect class="cls-13" x="81.62" y="49.35" width="4.62" height="1.77"/>
  <rect class="cls-11" x="65.06" y="59.63" width="12.89" height="4.68" rx=".99" ry=".99" transform="translate(133.47 -9.53) rotate(90)"/>
  <rect class="cls-11" x="68.13" y="50.74" width="6.74" height="2.21" transform="translate(143 103.68) rotate(-180)"/>
  <rect class="cls-13" x="81.62" y="69.69" width="4.62" height="1.77"/>
  <rect class="cls-8" x="86.24" y="71.95" width="4.62" height="1.1" transform="translate(177.09 145.01) rotate(-180)"/>
  <rect class="cls-11" x="90.86" y="70.85" width="6.74" height="2.21" transform="translate(188.46 143.9) rotate(-180)"/>
  <rect class="cls-3" x="74.87" y="70.85" width="6.74" height="2.21" transform="translate(156.49 143.9) rotate(-180)"/>
  <rect class="cls-11" x="68.13" y="70.85" width="6.74" height="2.21" transform="translate(143 143.9) rotate(-180)"/>
</svg>