<?xml version="1.0" encoding="UTF-8"?>
<svg id="Laag_1" xmlns="http://www.w3.org/2000/svg" width="38.97mm" height="81.65mm" viewBox="0 0 110.47 231.44">
  <defs>
    <style>
      .cls-1 {
        fill: #582200;
      }

      .cls-2 {
        fill: #98683f;
      }

      .cls-3 {
        fill: #847a2f;
      }

      .cls-4 {
        stroke: #8c694f;
      }

      .cls-4, .cls-5, .cls-6 {
        fill: none;
      }

      .cls-4, .cls-5, .cls-6, .cls-7 {
        stroke-miterlimit: 10;
      }

      .cls-8 {
        fill: #ca5e00;
      }

      .cls-9 {
        fill: #e98328;
      }

      .cls-10 {
        fill: #df3d53;
      }

      .cls-11 {
        fill: #e63821;
      }

      .cls-12 {
        fill: #799987;
      }

      .cls-13 {
        fill: #e6d0bc;
      }

      .cls-14 {
        fill: #982e10;
      }

      .cls-15 {
        fill: #ffead3;
      }

      .cls-5 {
        stroke: #291b15;
        stroke-width: 2px;
      }

      .cls-6 {
        stroke: #986940;
        stroke-width: 3px;
      }

      .cls-16 {
        fill: #a40c2c;
      }

      .cls-17 {
        fill: #af3b0b;
      }

      .cls-18 {
        fill: #dfd8b0;
      }

      .cls-19 {
        fill: #9fbaab;
      }

      .cls-20, .cls-7 {
        fill: #361f0f;
      }

      .cls-21 {
        fill: #9a9145;
      }

      .cls-7 {
        stroke: #351f12;
        stroke-width: .75px;
      }
    </style>
  </defs>
  <path class="cls-20" d="M88.69,54.78c-1.05-20.45-15.21-36.66-32.54-36.66s-31.49,16.2-32.54,36.66h-.07v174.77h65.21V54.78h-.07Z"/>
  <rect class="cls-2" x="23.45" y="108" width="65.21" height="4.19"/>
  <rect class="cls-2" x="23.45" y="162.59" width="65.21" height="3.48"/>
  <rect class="cls-19" x="70.77" y="175.1" width="17.07" height="23.85"/>
  <path class="cls-6" d="M88.59,54.81c-1.05-20.45-15.21-36.66-32.54-36.66s-31.49,16.2-32.54,36.66h-.07v174.77h65.21V54.81h-.07Z"/>
  <rect class="cls-2" x="23.45" y="202.09" width="65.21" height="27.49"/>
  <rect class="cls-12" x="73.39" y="177.69" width="11.73" height="5.16" rx="1.35" ry="1.35"/>
  <rect class="cls-19" x="24.65" y="133.69" width="6.8" height="28.96" rx="1.38" ry="1.38"/>
  <g>
    <path class="cls-21" d="M36.05,162.31h-4.24c-.2,0-.36-.17-.36-.37v-24.71c0-.21.16-.37.36-.37.59.11,1.31.2,2.14.2.81,0,1.52-.09,2.1-.2.02,0,.15,0,.26.11.07.07.11.16.11.26v24.71c0,.21-.16.37-.36.37Z"/>
    <path class="cls-15" d="M32.16,162.31v-25.05c.52.08,1.12.13,1.79.14.68,0,1.29-.06,1.82-.14v25.05h-3.61Z"/>
    <path class="cls-13" d="M32.66,161.72v-24.25c.1.02.21.04.33.06.19.02.36.01.5,0-.06,8.07-.12,16.13-.18,24.2h-.65Z"/>
    <path class="cls-13" d="M35.01,161.72v-24.07c-.1.02-.21.04-.33.06-.19.02-.36.01-.5,0,.06,8,.12,16.01.18,24.01h.65Z"/>
  </g>
  <rect class="cls-12" x="27.56" y="132.27" width=".97" height="6.8" transform="translate(163.72 107.62) rotate(90)"/>
  <rect class="cls-12" x="27.27" y="152.87" width="1.56" height="6.8" transform="translate(184.32 128.23) rotate(90)"/>
  <rect class="cls-12" x="21.63" y="144.73" width="12.63" height="4.42" rx=".99" ry=".99" transform="translate(174.89 118.99) rotate(90)"/>
  <rect class="cls-9" x="36.42" y="133.69" width="6.25" height="29" rx="1.38" ry="1.38"/>
  <rect class="cls-8" x="38.73" y="135.34" width="1.61" height="6.25" transform="translate(178.01 98.93) rotate(90)"/>
  <rect class="cls-8" x="38.78" y="154.36" width="1.52" height="6.23" transform="translate(197.02 117.94) rotate(90)"/>
  <g>
    <rect class="cls-9" x="67.31" y="142.54" width="6.45" height="33.88" rx=".85" ry=".85" transform="translate(230.01 88.94) rotate(90)"/>
    <path class="cls-16" d="M87.47,148.87v6.74c0,.32-.21.58-.48.58h-31.54c-.26,0-.48-.26-.48-.58.14-.94.26-2.09.26-3.41,0-1.29-.11-2.41-.26-3.34,0-.04,0-.24.14-.41.09-.1.21-.17.34-.17h31.54c.26,0,.48.26.48.58Z"/>
    <path class="cls-15" d="M87.47,155.06h-31.99c.1-.83.17-1.79.17-2.85,0-1.08-.07-2.05-.17-2.89h31.99v5.74Z"/>
    <path class="cls-13" d="M87.47,154.26h-31.47c.03-.16.06-.33.07-.53.02-.3.02-.57,0-.79,10.47.09,20.93.19,31.4.28v1.04Z"/>
    <path class="cls-13" d="M87.24,150.54h-31.24c.03.16.06.33.07.53.02.3.02.57,0,.79,10.39-.09,20.78-.19,31.16-.28v-1.04Z"/>
    <rect class="cls-8" x="57.95" y="156.21" width="1.68" height="6.53"/>
    <rect class="cls-8" x="80.16" y="156.24" width="2.12" height="6.5"/>
    <rect class="cls-8" x="62.27" y="156.97" width="16.25" height="5.04" rx="1.67" ry="1.67"/>
  </g>
  <rect class="cls-16" x="24.61" y="169.4" width="5.7" height="29.93" rx=".85" ry=".85" transform="translate(54.91 368.74) rotate(-180)"/>
  <rect class="cls-10" x="26.72" y="171.11" width="1.49" height="5.77" transform="translate(201.45 146.53) rotate(90)"/>
  <rect class="cls-10" x="26.51" y="191.87" width="1.87" height="5.75" transform="translate(222.19 167.3) rotate(90)"/>
  <rect class="cls-10" x="20.27" y="182.02" width="14.35" height="4.45" rx="1.67" ry="1.67" transform="translate(211.69 156.8) rotate(90)"/>
  <g>
    <path class="cls-11" d="M45.27,94.01c0,1.35.1,2.71-.02,4.06-.23,2.62-.88,3.15-3.52,3.17-2.29.02-2.78-.35-2.93-2.61-.21-3.17-.17-6.34.17-9.51.08-.76.43-1.21,1.22-1.25.05,0,.09,0,.14-.01,5.36-.18,4.85-.05,5.03,4.33.03.61,0,1.21,0,1.82-.03,0-.06,0-.1,0Z"/>
    <rect class="cls-17" x="33.85" y="77.36" width="6.93" height="26.02" rx="1.38" ry="1.38" transform="translate(127.69 53.06) rotate(90)"/>
    <path class="cls-19" d="M24.74,99.6v-5.3c0-.25.2-.45.45-.45h30c.25,0,.45.2.45.45-.14.74-.25,1.64-.24,2.68,0,1.01.11,1.9.24,2.62,0,.03,0,.19-.13.32-.08.08-.2.13-.32.13h-30c-.25,0-.45-.2-.45-.45Z"/>
    <path class="cls-15" d="M24.74,94.73h30.42c-.1.65-.16,1.41-.16,2.24,0,.85.07,1.61.16,2.27h-30.42v-4.52Z"/>
    <path class="cls-13" d="M25.44,95.36h29.45c-.03.12-.05.26-.07.41-.02.24-.02.45,0,.62-9.79-.07-19.59-.15-29.38-.22v-.82Z"/>
    <path class="cls-13" d="M25.44,98.29h29.23c-.03-.12-.05-.26-.07-.41-.02-.24-.02-.45,0-.62-9.72.07-19.44.15-29.16.22v.82Z"/>
    <rect class="cls-14" x="44.72" y="86.9" width="1.82" height="6.93" transform="translate(91.25 180.74) rotate(180)"/>
    <rect class="cls-14" x="29.34" y="86.9" width="1.4" height="6.93" transform="translate(60.08 180.74) rotate(180)"/>
    <rect class="cls-21" x="37.96" y="86.35" width="7.82" height="35.22" rx="1.38" ry="1.38" transform="translate(145.83 62.09) rotate(90)"/>
    <rect class="cls-3" x="52.7" y="100.05" width="3.92" height="7.82" transform="translate(109.33 207.92) rotate(180)"/>
    <rect class="cls-3" x="37.64" y="101.21" width="11.35" height="5.53" rx=".99" ry=".99" transform="translate(86.62 207.94) rotate(180)"/>
  </g>
  <rect class="cls-9" x="79.82" y="73.48" width="7.42" height="34.52" rx="1.38" ry="1.38"/>
  <path class="cls-16" d="M72.98,107.99l-4.46-.86c-.45-.09-.74-.5-.65-.92l5.8-27.18c.09-.42.53-.7.97-.61l4.46.86c.45.09.74.5.65.92l-5.8,27.18c-.09.42-.53.7-.97.61Z"/>
  <polygon class="cls-10" points="73.02 82.06 73.4 80.27 79.49 81.44 79.11 83.24 73.02 82.06"/>
  <path class="cls-10" d="M70.54,97.99l2.61-12.21c.18-.82,1.02-1.35,1.89-1.19l1.2.23c.87.17,1.43.97,1.25,1.79l-2.61,12.21c-.18.82-1.02,1.35-1.89,1.19l-1.2-.23c-.87-.17-1.43-.97-1.25-1.79Z"/>
  <polygon class="cls-10" points="68.52 103.16 68.91 101.37 74.99 102.54 74.61 104.33 68.52 103.16"/>
  <rect class="cls-8" x="82.78" y="95.02" width="1.48" height="7.42" transform="translate(182.26 15.21) rotate(90)"/>
  <rect class="cls-8" x="82.78" y="74.2" width="1.48" height="7.42" transform="translate(161.43 -5.62) rotate(90)"/>
  <path class="cls-8" d="M81.41,94.64l-.18-12.49c-.01-.84.69-1.55,1.57-1.58l1.22-.04c.88-.03,1.61.63,1.62,1.47l.18,12.49c.01.84-.69,1.55-1.57,1.58l-1.22.04c-.88.03-1.61-.63-1.62-1.47Z"/>
  <g>
    <path class="cls-21" d="M70.52,198.94h-4.24c-.2,0-.36-.17-.36-.37v-24.71c0-.21.16-.37.36-.37.59.11,1.31.2,2.14.2.81,0,1.52-.09,2.1-.2.02,0,.15,0,.26.11.07.07.11.16.11.26v24.71c0,.21-.16.37-.36.37Z"/>
    <path class="cls-15" d="M66.63,198.94v-25.05c.52.08,1.12.13,1.79.14.68,0,1.29-.06,1.82-.14v25.05h-3.61Z"/>
    <path class="cls-13" d="M67.13,198.36v-24.25c.1.02.21.04.33.06.19.02.36.01.5,0-.06,8.07-.12,16.13-.18,24.2h-.65Z"/>
    <path class="cls-13" d="M69.47,198.36v-24.07c-.1.02-.21.04-.33.06-.19.02-.36.01-.5,0,.06,8,.12,16.01.18,24.01h.65Z"/>
  </g>
  <rect class="cls-21" x="30.3" y="172.47" width="7.45" height="26.86" rx="1.38" ry="1.38"/>
  <rect class="cls-3" x="30.3" y="174.13" width="7.45" height="2.73"/>
  <rect class="cls-3" x="30.3" y="194.88" width="7.45" height="2.73"/>
  <rect class="cls-3" x="28.12" y="183.74" width="11.82" height="4.26" rx=".99" ry=".99" transform="translate(219.89 151.84) rotate(90)"/>
  <rect class="cls-1" x="24.57" y="198.94" width="62.9" height="3.48"/>
  <circle class="cls-18" cx="56.05" cy="49.76" r="20.05"/>
  <circle class="cls-4" cx="56.05" cy="49.55" r="20.05"/>
  <circle class="cls-5" cx="55.92" cy="49.4" r="19.01"/>
  <g>
    <rect class="cls-20" x="52.57" y="41.01" width=".71" height="8.61" transform="translate(-16.75 45.26) rotate(-40.52)"/>
    <rect class="cls-20" x="55.32" y="48.64" width=".67" height="9.73"/>
    <circle class="cls-20" cx="55.66" cy="48.54" r="1.2"/>
    <path class="cls-20" d="M54.48,57.39c-.09-.17.08-.35.26-.27.05.02.1.04.16.06.56.22,1.12.2,1.68-.04,0,0,0,0,0,0,.17-.07.34.1.25.27l-.99,1.92c-.07.14-.28.14-.35,0-.34-.65-.67-1.3-1.01-1.95Z"/>
    <path class="cls-20" d="M51.42,41.64c.17.07.16.32-.02.37-.05.02-.11.03-.16.05-.57.2-.98.58-1.25,1.12,0,0,0,0,0,0-.08.17-.33.14-.37-.04l-.5-2.1c-.04-.16.12-.29.27-.23.68.28,1.36.55,2.03.82Z"/>
  </g>
  <g>
    <path class="cls-7" d="M55.97,65.63c0,.22-.13.32-.33.32-.23,0-.39-.08-.39-.34,0-.62.02-1.25.04-1.87,0-.2.11-.32.33-.33.25-.01.38.11.38.35,0,.62-.01,1.25-.02,1.87Z"/>
    <path class="cls-7" d="M64.56,35.83c-.26.42-.62,1.01-1,1.59-.09.14-.25.13-.39.02-.16-.11-.27-.24-.16-.43.34-.58.68-1.15,1.03-1.72.09-.14.25-.15.4-.06.16.09.29.21.12.61Z"/>
    <path class="cls-7" d="M56.57,34.99c-.03.21-.08.4-.35.4-.28,0-.4-.16-.39-.43.01-.57.02-1.15.03-1.72,0-.29.17-.4.43-.39.25.01.32.19.32.42-.01.57-.02,1.15-.03,1.73Z"/>
    <path class="cls-7" d="M43.99,41.96c-.12.27-.27.45-.54.3-.57-.32-1.12-.66-1.67-1-.19-.12-.13-.3-.04-.47.08-.15.23-.24.37-.16.61.35,1.2.72,1.79,1.09.06.04.07.17.09.23Z"/>
    <path class="cls-7" d="M48.78,61.79c-.35.57-.69,1.13-1.03,1.68-.12.19-.29.16-.46.08-.19-.1-.24-.27-.14-.44.32-.56.66-1.12,1-1.68.12-.19.3-.17.46-.07.16.1.24.25.18.43Z"/>
    <path class="cls-7" d="M70.25,50.1c-.24-.01-.37-.13-.37-.37,0-.24.14-.37.38-.36.6,0,1.2.02,1.79.03.24,0,.37.11.37.37,0,.24-.13.37-.37.37-.6,0-1.2-.02-1.8-.02Z"/>
    <path class="cls-7" d="M62.82,61.63c.17.02.25.15.32.28.27.48.54.96.81,1.44.13.22.15.43-.11.57-.26.14-.42,0-.54-.23-.26-.48-.55-.96-.79-1.45-.17-.34,0-.66.32-.62Z"/>
    <path class="cls-7" d="M68.42,42.87c-.13-.03-.22-.11-.27-.24-.06-.16-.05-.32.09-.4.58-.34,1.18-.66,1.77-.97.16-.09.28.02.38.15.08.11.09.23.04.35-.07.16-1.85,1.14-2.01,1.1Z"/>
    <path class="cls-7" d="M70.12,57.82c-.13.31-.31.45-.59.29-.54-.31-1.07-.63-1.59-.95-.17-.1-.23-.26-.11-.44.1-.15.23-.31.42-.2.6.34,1.19.71,1.77,1.08.07.04.08.17.11.23Z"/>
    <path class="cls-7" d="M43.64,56.44c-.07.06-.16.15-.26.21-.48.27-.96.54-1.44.81-.21.12-.42.19-.57-.09-.14-.26-.04-.42.2-.54.51-.27,1-.56,1.51-.83.14-.07.28-.11.42,0,.13.11.16.24.15.45Z"/>
    <path class="cls-7" d="M49.37,36.87c-.07.14-.16.25-.32.29-.17.03-.29-.02-.38-.17-.31-.55-.61-1.09-.91-1.64-.08-.14-.07-.29.07-.4.12-.1.26-.15.42-.08.15.06,1.15,1.86,1.12,2.02Z"/>
    <path class="cls-7" d="M41.39,48.79c.18.03.33.06.36.3.03.26-.2.3-.32.34-.61.16-1.23.04-1.84.02-.2,0-.28-.18-.24-.38.03-.2.13-.32.34-.31.57.01,1.14.03,1.71.04Z"/>
  </g>
</svg>