<?xml version="1.0" encoding="UTF-8"?>
<svg id="Laag_1" xmlns="http://www.w3.org/2000/svg" width="38.81mm" height="81.6mm" viewBox="0 0 110 231.31">
  <defs>
    <style>
      .cls-1 {
        fill: #847a2f;
      }

      .cls-2 {
        fill: #bd191e;
      }

      .cls-3 {
        fill: #d5101d;
      }

      .cls-4 {
        fill: #881915;
      }

      .cls-5 {
        fill: #ca5e00;
      }

      .cls-6 {
        fill: #e98328;
      }

      .cls-7 {
        fill: #df3d53;
      }

      .cls-8 {
        fill: #4f1115;
      }

      .cls-9 {
        fill: #799987;
      }

      .cls-10 {
        fill: #e6d0bc;
      }

      .cls-11 {
        fill: #982e10;
      }

      .cls-12 {
        fill: #b81e1d;
      }

      .cls-13 {
        fill: #ffead3;
      }

      .cls-14 {
        fill: #a40c2c;
      }

      .cls-15 {
        fill: #af3b0b;
      }

      .cls-16 {
        fill: #9fbaab;
      }

      .cls-17 {
        fill: #cf1c1e;
      }

      .cls-18 {
        fill: #9a9145;
      }
    </style>
  </defs>
  <rect class="cls-8" x="24.2" y="21.91" width="64.57" height="169.93"/>
  <rect class="cls-3" x="18.95" y="33.15" width="6.83" height="187.67"/>
  <rect class="cls-3" x="88.77" y="33.15" width="6.83" height="187.67"/>
  <rect class="cls-3" x="24.2" y="62.76" width="66.41" height="4.79"/>
  <rect class="cls-3" x="22.36" y="111.82" width="66.41" height="4.79"/>
  <rect class="cls-3" x="24.2" y="144.25" width="66.41" height="4.79"/>
  <rect class="cls-2" x="25.78" y="191.83" width="62.99" height="28.99"/>
  <circle class="cls-4" cx="56.53" cy="207.5" r="2.59"/>
  <path class="cls-3" d="M18.94,33.15c2.24,0,4.5,0,6.77,0,.93,0,1.86,0,2.78.02,1.57-1.46,3.86-3.36,6.87-5.18,6.97-4.19,13.47-5.27,16.48-5.62,8.13-.93,14.41.82,16.69,1.54,8.05,2.54,13.38,7.07,16.04,9.69h11.02v-15.24H18.88c.02,4.93.04,9.86.07,14.79Z"/>
  <rect class="cls-3" x="12.59" y="13.95" width="86.99" height="4.41"/>
  <path class="cls-2" d="M84.17,12.45c-.36-.98-1.71-1.63-3.27-1.33-.1.03-.25.05-.39,0-.37-.16-.46-.77-.38-1.15.11-.54.61-.98,1.28-1.15-.92-.85-1.94-1.69-3.07-2.5C70.89.99,62.67.03,57.41,0c-5.26.03-13.48.99-20.94,6.32-1.12.8-2.14,1.64-3.07,2.5.66.17,1.17.61,1.28,1.15.07.38,0,.99-.38,1.15-.14.06-.28.04-.39,0-1.56-.3-2.91.34-3.27,1.33-.22.59-.03,1.19.1,1.5,8.89,0,17.78,0,26.67,0,8.89,0,17.78,0,26.67,0,.13-.31.32-.9.1-1.5Z"/>
  <g>
    <ellipse class="cls-17" cx="24.2" cy="227.73" rx="4.5" ry="3.58"/>
    <rect class="cls-17" x="20.5" y="223.12" width="7.41" height="3.88"/>
  </g>
  <g>
    <ellipse class="cls-17" cx="88.77" cy="227.73" rx="4.5" ry="3.58"/>
    <rect class="cls-17" x="85.07" y="223.12" width="7.41" height="3.88"/>
  </g>
  <rect class="cls-2" x="17.74" y="220.82" width="79.38" height="2.81"/>
  <circle class="cls-4" cx="57.39" cy="6.96" r="3.36"/>
  <rect class="cls-12" x="12.59" y="17.26" width="86.99" height="1.1"/>
  <rect class="cls-18" x="25.78" y="82.58" width="7.11" height="29.32" rx=".7" ry=".7"/>
  <rect class="cls-6" x="32.89" y="78.19" width="7.11" height="33.72" rx=".7" ry=".7"/>
  <rect class="cls-16" x="39.99" y="81.04" width="4.87" height="30.86"/>
  <rect class="cls-14" x="44.86" y="81.04" width="4.87" height="30.86" rx=".7" ry=".7"/>
  <rect class="cls-15" x="49.73" y="82.58" width="7.11" height="29.32" rx=".7" ry=".7"/>
  <rect class="cls-5" x="32.89" y="81.75" width="7.11" height="2.42" transform="translate(72.88 165.92) rotate(-180)"/>
  <rect class="cls-5" x="29.38" y="92.74" width="14.11" height="4.93" rx=".99" ry=".99" transform="translate(131.64 58.76) rotate(90)"/>
  <rect class="cls-5" x="32.89" y="106.52" width="7.11" height="2.42" transform="translate(72.88 215.46) rotate(-180)"/>
  <rect class="cls-7" x="44.86" y="83.65" width="4.87" height="1.21" transform="translate(94.59 168.51) rotate(-180)"/>
  <rect class="cls-7" x="44.86" y="106.9" width="4.87" height="1.21" transform="translate(94.59 215.01) rotate(-180)"/>
  <rect class="cls-11" x="46.23" y="94.78" width="14.11" height="4.93" rx=".99" ry=".99" transform="translate(150.52 43.96) rotate(90)"/>
  <rect class="cls-11" x="49.73" y="84.86" width="7.11" height="2.42" transform="translate(106.56 172.13) rotate(-180)"/>
  <rect class="cls-11" x="49.73" y="108.11" width="7.11" height="2.42" transform="translate(106.56 218.63) rotate(-180)"/>
  <rect class="cls-9" x="39.99" y="83.34" width="4.87" height="1.94"/>
  <rect class="cls-9" x="39.99" y="107.97" width="4.87" height="1.94"/>
  <rect class="cls-1" x="22.28" y="94.69" width="14.11" height="4.93" rx=".99" ry=".99" transform="translate(126.48 67.82) rotate(90)"/>
  <rect class="cls-1" x="25.78" y="84.86" width="7.11" height="2.42" transform="translate(58.66 172.13) rotate(-180)"/>
  <rect class="cls-1" x="25.78" y="107.03" width="7.11" height="2.42" transform="translate(58.66 216.48) rotate(-180)"/>
  <g>
    <rect class="cls-16" x="37.6" y="31.96" width="7.24" height="30.8" rx="1.38" ry="1.38" transform="translate(88.58 6.14) rotate(90)"/>
    <g>
      <path class="cls-18" d="M26.19,55.88v-4.51c0-.21.18-.39.4-.39h26.28c.22,0,.4.17.4.39-.12.63-.22,1.4-.21,2.28,0,.86.1,1.61.21,2.23,0,.03,0,.16-.12.27-.07.07-.17.11-.28.11h-26.28c-.22,0-.4-.17-.4-.39Z"/>
      <path class="cls-13" d="M26.19,51.74h26.65c-.08.55-.14,1.2-.14,1.91,0,.72.06,1.37.14,1.93h-26.65v-3.84Z"/>
      <path class="cls-10" d="M26.81,52.27h25.79c-.02.1-.05.22-.06.35-.02.2-.01.38,0,.53-8.58-.06-17.16-.13-25.74-.19v-.69Z"/>
      <path class="cls-10" d="M26.81,54.76h25.6c-.02-.1-.05-.22-.06-.35-.02-.2-.01-.38,0-.53-8.51.06-17.03.13-25.54.19v.69Z"/>
    </g>
    <rect class="cls-9" x="53.26" y="43.75" width="1.77" height="7.24" transform="translate(108.3 94.73) rotate(180)"/>
    <rect class="cls-9" x="31.78" y="43.75" width="1.66" height="7.24" transform="translate(65.21 94.73) rotate(180)"/>
    <rect class="cls-9" x="35.82" y="44.91" width="13.44" height="4.7" rx=".99" ry=".99" transform="translate(85.07 94.52) rotate(180)"/>
    <rect class="cls-6" x="37.88" y="44.16" width="6.65" height="30.84" rx="1.38" ry="1.38" transform="translate(100.79 18.39) rotate(90)"/>
    <rect class="cls-5" x="50.69" y="56.26" width="1.72" height="6.65" transform="translate(103.09 119.17) rotate(180)"/>
    <rect class="cls-5" x="30.52" y="56.27" width="1.61" height="6.63" transform="translate(62.65 119.17) rotate(180)"/>
  </g>
  <g>
    <rect class="cls-6" x="83.34" y="83.87" width="5.31" height="27.88" rx=".85" ry=".85"/>
    <path class="cls-14" d="M77.26,111.75h5.55c.26,0,.48-.18.48-.39v-25.96c0-.22-.21-.39-.48-.39-.77.12-1.72.21-2.8.21-1.06,0-1.99-.09-2.75-.21-.03,0-.2,0-.34.12-.09.07-.14.17-.14.28v25.96c0,.22.21.39.48.39Z"/>
    <path class="cls-13" d="M82.35,111.75v-26.32c-.68.08-1.47.14-2.35.14-.89,0-1.69-.06-2.38-.14,0,8.77,0,17.55,0,26.32h4.72Z"/>
    <path class="cls-10" d="M81.7,111.75v-25.9c-.13.02-.27.05-.43.06-.25.02-.47.01-.65,0,.08,8.61.15,17.23.23,25.84h.85Z"/>
    <path class="cls-10" d="M78.63,111.56v-25.7c.13.02.27.05.43.06.25.02.47.01.65,0-.08,8.55-.15,17.1-.23,25.64h-.85Z"/>
    <rect class="cls-5" x="85.29" y="85.46" width="1.38" height="5.37" transform="translate(174.13 2.16) rotate(90)"/>
    <rect class="cls-5" x="85.13" y="103.93" width="1.74" height="5.35" transform="translate(192.61 20.61) rotate(90)"/>
    <rect class="cls-5" x="79.32" y="95.63" width="13.37" height="4.15" rx="1.67" ry="1.67" transform="translate(183.7 11.7) rotate(90)"/>
  </g>
  <g>
    <rect class="cls-16" x="70.15" y="125.68" width="6.36" height="30.8" rx=".55" ry=".55" transform="translate(-67.75 214.41) rotate(-90)"/>
    <g>
      <path class="cls-18" d="M88.36,133.26v4.64h-26.67c-.22,0-.4-.15-.4-.34.12-.55.22-1.23.21-2,0-.76-.1-1.42-.21-1.96,0-.02,0-.14.12-.24.07-.06.17-.1.28-.1h26.67Z"/>
      <path class="cls-13" d="M88.36,137.24h-26.65c.08-.49.14-1.05.14-1.68,0-.63-.06-1.2-.14-1.7h26.65v3.37Z"/>
      <path class="cls-10" d="M87.73,136.77h-25.79c.02-.09.05-.2.06-.31.02-.18.01-.33,0-.47,8.58.06,17.16.11,25.74.17v.61Z"/>
      <path class="cls-10" d="M87.73,134.58h-25.6c.02.09.05.2.06.31.02.18.01.33,0,.47,8.51-.06,17.03-.11,25.54-.17v-.61Z"/>
    </g>
    <rect class="cls-9" x="59.51" y="137.9" width="1.77" height="6.36"/>
    <rect class="cls-9" x="81.11" y="137.9" width="1.66" height="6.36"/>
    <rect class="cls-9" x="65.3" y="139.11" width="13.44" height="4.13" rx=".16" ry=".16"/>
    <rect class="cls-6" x="70.43" y="114.92" width="5.84" height="30.84" rx=".55" ry=".55" transform="translate(-57 203.69) rotate(-90)"/>
    <rect class="cls-5" x="62.14" y="127.42" width="1.72" height="5.84"/>
    <rect class="cls-5" x="82.42" y="127.43" width="1.61" height="5.82"/>
  </g>
  <rect class="cls-18" x="84.25" y="37.86" width="4.4" height="24.97" rx="1.38" ry="1.38"/>
  <path class="cls-14" d="M76.85,62.91l-2.8-.88c-.35-.11-.55-.46-.45-.78l6.7-20.88c.1-.31.45-.47.78-.37l2.8.88c.35.11.55.46.45.78l-6.7,20.88c-.1.31-.45.47-.78.37Z"/>
  <path class="cls-7" d="M78.53,59.81c-1.32-.5-2.64-.99-3.96-1.49.09-.29.19-.59.28-.88,1.33.48,2.65.95,3.98,1.43-.1.31-.2.63-.3.94Z"/>
  <rect class="cls-1" x="81.42" y="48.25" width="10.06" height="3.05" rx=".99" ry=".99" transform="translate(136.23 -36.67) rotate(90)"/>
  <rect class="cls-1" x="84.25" y="57.85" width="4.4" height="1.72"/>
  <rect class="cls-18" x="25.78" y="119.26" width="5.62" height="24.97" rx=".77" ry=".77" transform="translate(57.18 263.48) rotate(-180)"/>
  <path class="cls-14" d="M39.63,144.24l3.07-.95c.38-.12.6-.5.49-.85l-7.35-22.74c-.11-.34-.49-.52-.86-.4l-3.07.95c-.38.12-.6.5-.49.85l7.35,22.74c.11.34.49.52.86.4Z"/>
  <path class="cls-7" d="M37.79,140.86c1.45-.54,2.9-1.08,4.34-1.62-.1-.32-.21-.64-.31-.96-1.46.52-2.91,1.04-4.37,1.55.11.34.22.68.33,1.03Z"/>
  <rect class="cls-1" x="23.56" y="130.21" width="10.06" height="3.05" rx=".72" ry=".72" transform="translate(160.33 103.15) rotate(90)"/>
  <rect class="cls-1" x="25.78" y="139.18" width="5.62" height="1.72" transform="translate(57.18 280.09) rotate(-180)"/>
  <path class="cls-7" d="M32.77,125.27c1.45-.54,2.9-1.08,4.34-1.62-.1-.32-.21-.64-.31-.96-1.46.52-2.91,1.04-4.37,1.55.11.34.22.68.33,1.03Z"/>
  <rect class="cls-1" x="25.78" y="122.01" width="5.62" height="1.72" transform="translate(57.18 245.74) rotate(-180)"/>
  <g>
    <rect class="cls-16" x="81.65" y="163.6" width="7.11" height="28.23" rx=".7" ry=".7" transform="translate(170.41 355.44) rotate(-180)"/>
    <rect class="cls-6" x="74.55" y="159.37" width="7.11" height="32.46" rx=".7" ry=".7" transform="translate(156.2 351.2) rotate(-180)"/>
    <rect class="cls-15" x="69.68" y="162.12" width="4.87" height="29.71" transform="translate(144.22 353.96) rotate(-180)"/>
    <rect class="cls-14" x="64.81" y="162.12" width="4.87" height="29.71" rx=".7" ry=".7" transform="translate(134.49 353.96) rotate(-180)"/>
    <rect class="cls-5" x="74.55" y="162.8" width="7.11" height="2.33"/>
    <rect class="cls-5" x="71.31" y="173.29" width="13.58" height="4.93" rx=".99" ry=".99" transform="translate(253.85 97.65) rotate(90)"/>
    <rect class="cls-7" x="64.81" y="164.63" width="4.87" height="1.16"/>
    <rect class="cls-11" x="69.68" y="164.33" width="4.87" height="1.86" transform="translate(144.22 330.52) rotate(-180)"/>
    <rect class="cls-9" x="78.41" y="175.16" width="13.58" height="4.93" rx=".99" ry=".99" transform="translate(262.84 92.43) rotate(90)"/>
    <rect class="cls-9" x="81.65" y="165.79" width="7.11" height="2.33"/>
    <rect class="cls-11" x="69.68" y="185.76" width="4.87" height="1.86" transform="translate(144.22 373.39) rotate(-180)"/>
    <rect class="cls-7" x="64.81" y="188.15" width="4.87" height="1.16"/>
    <rect class="cls-5" x="74.55" y="186.99" width="7.11" height="2.33"/>
    <rect class="cls-9" x="81.65" y="186.99" width="7.11" height="2.33"/>
  </g>
  <g>
    <rect class="cls-6" x="32.33" y="163.78" width="5.31" height="27.88" rx=".85" ry=".85"/>
    <path class="cls-14" d="M26.25,191.66h5.55c.26,0,.48-.18.48-.39v-25.96c0-.22-.21-.39-.48-.39-.77.12-1.72.21-2.8.21-1.06,0-1.99-.09-2.75-.21-.03,0-.2,0-.34.12-.09.07-.14.17-.14.28v25.96c0,.22.21.39.48.39Z"/>
    <path class="cls-13" d="M31.35,191.66v-26.32c-.68.08-1.47.14-2.35.14-.89,0-1.69-.06-2.38-.14,0,8.77,0,17.55,0,26.32h4.72Z"/>
    <path class="cls-10" d="M30.69,191.65v-25.9c-.13.02-.27.05-.43.06-.25.02-.47.01-.65,0,.08,8.61.15,17.23.23,25.84h.85Z"/>
    <path class="cls-10" d="M27.63,191.46v-25.7c.13.02.27.05.43.06.25.02.47.01.65,0-.08,8.55-.15,17.1-.23,25.64h-.85Z"/>
    <rect class="cls-5" x="34.29" y="165.37" width="1.38" height="5.37" transform="translate(203.03 133.07) rotate(90)"/>
    <rect class="cls-5" x="34.12" y="183.84" width="1.74" height="5.35" transform="translate(221.51 151.52) rotate(90)"/>
    <rect class="cls-5" x="28.31" y="175.53" width="13.37" height="4.15" rx="1.67" ry="1.67" transform="translate(212.6 142.61) rotate(90)"/>
  </g>
</svg>