<?xml version="1.0" encoding="UTF-8"?>
<svg id="Laag_1" xmlns="http://www.w3.org/2000/svg" width="39.56mm" height="81.74mm" viewBox="0 0 112.14 231.7">
  <defs>
    <style>
      .cls-1 {
        fill: #847a2f;
      }

      .cls-2 {
        fill: #fcf1dd;
      }

      .cls-3 {
        fill: #ca5e00;
      }

      .cls-4 {
        fill: #e98328;
      }

      .cls-5 {
        fill: #df3d53;
      }

      .cls-6 {
        fill: #004345;
      }

      .cls-7 {
        fill: #799987;
      }

      .cls-8 {
        fill: #e6d0bc;
      }

      .cls-9 {
        fill: #982e10;
      }

      .cls-10 {
        fill: #ffead3;
      }

      .cls-11 {
        fill: #a40c2c;
      }

      .cls-12 {
        fill: #af3b0b;
      }

      .cls-13 {
        fill: #9fbaab;
      }

      .cls-14 {
        fill: #5a3a23;
      }

      .cls-15 {
        fill: #9a9145;
      }

      .cls-16 {
        fill: #482915;
      }
    </style>
  </defs>
  <rect class="cls-6" x="19.87" y="84.55" width="77.41" height="97.42"/>
  <rect class="cls-14" x="32.73" y="183.79" width="8.16" height="47.91"/>
  <rect class="cls-14" x="73.26" y="183.79" width="8.16" height="47.91"/>
  <rect class="cls-13" x="34.53" y="112.64" width="4" height="25.39"/>
  <rect class="cls-11" x="38.53" y="112.64" width="4" height="25.39" rx=".79" ry=".79"/>
  <rect class="cls-12" x="42.53" y="113.91" width="5.84" height="24.11" rx=".79" ry=".79"/>
  <rect class="cls-5" x="38.52" y="114.8" width="4" height=".99"/>
  <rect class="cls-5" x="38.52" y="133.92" width="4" height=".99"/>
  <rect class="cls-9" x="43.42" y="120.16" width="4.06" height="11.6" rx="1.12" ry="1.12"/>
  <rect class="cls-9" x="42.53" y="115.79" width="5.84" height="1.98"/>
  <rect class="cls-9" x="42.53" y="134.91" width="5.84" height="1.98"/>
  <rect class="cls-7" x="34.53" y="114.53" width="4" height="1.59"/>
  <rect class="cls-7" x="34.53" y="134.8" width="4" height="1.59"/>
  <g>
    <rect class="cls-13" x="67.24" y="121.64" width="25.33" height="5.95" rx="1.56" ry="1.56"/>
    <g>
      <path class="cls-15" d="M67.54,131.62v-3.71c0-.18.15-.32.33-.32h21.61c.18,0,.33.15.33.32-.1.52-.18,1.15-.18,1.87s.08,1.33.18,1.84c0,.02,0,.14-.09.23-.06.06-.15.09-.24.09h-21.61c-.18,0-.33-.15-.33-.32h0Z"/>
      <path class="cls-10" d="M67.54,128.21h21.91c-.07.45-.11.98-.12,1.57,0,.6.05,1.13.12,1.59h-21.91s0-3.16,0-3.16Z"/>
      <path class="cls-8" d="M68.06,128.65h21.22c-.02.09-.03.18-.05.29-.01.17-.01.32,0,.44-7.06-.06-14.11-.1-21.16-.16v-.57h-.01Z"/>
      <path class="cls-8" d="M68.06,130.69h21.05c-.02-.09-.03-.18-.05-.29-.01-.17-.01-.32,0-.44-7,.06-14,.1-21,.16,0,0,0,.57,0,.57Z"/>
    </g>
    <rect class="cls-7" x="89.81" y="121.63" width="1.45" height="5.95"/>
    <rect class="cls-7" x="72.13" y="121.63" width="1.36" height="5.95"/>
    <rect class="cls-7" x="75.47" y="122.6" width="11.05" height="3.87" rx="1.12" ry="1.12"/>
    <rect class="cls-4" x="67.21" y="131.93" width="25.36" height="5.47" rx="1.56" ry="1.56"/>
    <rect class="cls-3" x="87.7" y="131.93" width="1.41" height="5.47"/>
    <rect class="cls-3" x="71.11" y="131.94" width="1.33" height="5.44"/>
  </g>
  <g>
    <rect class="cls-15" x="65.95" y="147.24" width="5.07" height="28.79" rx="1.56" ry="1.56"/>
    <path class="cls-13" d="M79.57,176.13l3.22-1.01c.41-.12.63-.53.52-.9l-7.72-24.07c-.11-.36-.52-.54-.9-.43l-3.22,1.01c-.41.12-.63.53-.52.9l7.72,24.07c.11.36.52.54.9.43Z"/>
    <rect class="cls-12" x="88.89" y="150.27" width="4.92" height="26.03" rx="1.22" ry="1.22"/>
    <path class="cls-7" d="M71.47,153.27c1.52-.57,3.04-1.14,4.57-1.71-.11-.34-.21-.68-.33-1.01-1.53.55-3.05,1.09-4.59,1.65.11.36.24.72.35,1.08h0Z"/>
    <path class="cls-4" d="M83.73,176.12h4.76c.23,0,.41-.18.41-.41v-26.92c0-.23-.18-.41-.41-.41-.67.12-1.48.23-2.4.21-.91,0-1.7-.1-2.36-.21-.02,0-.17,0-.29.12-.08.08-.12.18-.12.29v26.92c0,.23.18.41.41.41h.01-.01Z"/>
    <path class="cls-10" d="M88.09,176.12v-27.3c-.59.09-1.26.15-2.02.15s-1.44-.06-2.04-.15v27.3h4.06Z"/>
    <path class="cls-8" d="M87.54,175.49v-26.44c-.11.02-.24.05-.37.06-.21.02-.41,0-.56,0,.07,8.79.14,17.57.2,26.37h.73Z"/>
    <path class="cls-8" d="M84.9,175.49v-26.23c.11.02.24.05.37.06.21.02.41,0,.56,0-.07,8.73-.14,17.45-.2,26.16h-.73Z"/>
    <rect class="cls-9" x="88.91" y="153.11" width="4.92" height="1.18"/>
    <rect class="cls-9" x="88.89" y="169.75" width="4.92" height="1.18"/>
    <path class="cls-7" d="M77.63,172.56c1.52-.57,3.04-1.14,4.57-1.71-.11-.34-.21-.68-.33-1.01-1.53.55-3.05,1.09-4.59,1.65.11.36.24.72.35,1.08h0Z"/>
    <rect class="cls-1" x="65.95" y="149.93" width="5.07" height="1.98"/>
    <rect class="cls-1" x="66.74" y="155.19" width="3.52" height="11.6" rx="1.12" ry="1.12"/>
    <rect class="cls-1" x="65.95" y="170.31" width="5.07" height="1.98"/>
  </g>
  <rect class="cls-12" x="34.58" y="151.96" width="4" height="24.44"/>
  <rect class="cls-11" x="38.58" y="151.96" width="4" height="24.44" rx=".79" ry=".79"/>
  <rect class="cls-5" x="38.58" y="154.04" width="4" height=".96"/>
  <rect class="cls-9" x="34.58" y="153.78" width="4" height="1.53"/>
  <rect class="cls-9" x="34.58" y="171.41" width="4" height="1.53"/>
  <rect class="cls-5" x="38.58" y="173.38" width="4" height=".96"/>
  <g>
    <rect class="cls-4" x="49.3" y="148.42" width="5.33" height="28.04" rx=".96" ry=".96"/>
    <path class="cls-11" d="M43.19,176.46h5.58c.26,0,.47-.18.47-.39v-26.11c0-.21-.21-.39-.47-.39-.78.12-1.72.21-2.82.21s-2-.09-2.76-.21c-.03,0-.2,0-.34.11-.09.07-.14.17-.14.28v26.11c0,.21.21.39.47.39h0Z"/>
    <path class="cls-10" d="M48.31,176.46v-26.47c-.69.08-1.48.15-2.36.15s-1.7-.06-2.39-.15v26.47h4.75Z"/>
    <path class="cls-8" d="M47.66,176.46v-26.05c-.12.02-.27.05-.44.06-.25.02-.47,0-.65,0,.08,8.66.16,17.33.24,25.98h.86-.01Z"/>
    <path class="cls-8" d="M44.57,176.27v-25.85c.12.02.27.05.44.06.25.02.47,0,.65,0-.08,8.6-.16,17.19-.24,25.79h-.86.01Z"/>
    <rect class="cls-3" x="49.27" y="152.03" width="5.4" height="1.4"/>
    <rect class="cls-3" x="49.3" y="170.41" width="5.38" height="1.75"/>
    <rect class="cls-3" x="49.9" y="155.61" width="4.17" height="13.45" rx="1.88" ry="1.88"/>
  </g>
  <rect class="cls-16" x="32.73" y="183.82" width="8.16" height="19.87"/>
  <rect class="cls-16" x="73.31" y="183.82" width="8.16" height="19.87"/>
  <rect class="cls-4" x="24.78" y="151.96" width="5.75" height="24.44"/>
  <rect class="cls-13" x="30.53" y="151.96" width="4" height="24.44" rx=".79" ry=".79"/>
  <rect class="cls-7" x="30.53" y="154.04" width="4" height=".96"/>
  <rect class="cls-3" x="24.78" y="153.78" width="5.75" height="1.53"/>
  <rect class="cls-3" x="24.65" y="171.41" width="5.88" height="1.53"/>
  <rect class="cls-7" x="30.53" y="173.38" width="4" height=".96"/>
  <rect class="cls-15" x="29.64" y="112" width="4.92" height="26.03" rx="1.22" ry="1.22"/>
  <path class="cls-4" d="M24.48,137.85h4.76c.23,0,.41-.18.41-.41v-26.92c0-.23-.18-.41-.41-.41-.67.12-1.48.23-2.4.21-.91,0-1.7-.1-2.36-.21-.02,0-.17,0-.29.12-.08.08-.12.18-.12.29v26.92c0,.23.18.41.41.41h.01-.01Z"/>
  <path class="cls-10" d="M28.84,137.85v-27.3c-.59.09-1.26.15-2.02.15s-1.44-.06-2.04-.15v27.3h4.06Z"/>
  <path class="cls-8" d="M28.29,137.22v-26.44c-.11.02-.24.05-.37.06-.21.02-.41,0-.56,0,.07,8.79.14,17.57.2,26.37h.73Z"/>
  <path class="cls-8" d="M25.65,137.22v-26.23c.11.02.24.05.37.06.21.02.41,0,.56,0-.07,8.73-.14,17.45-.2,26.16h-.73Z"/>
  <rect class="cls-1" x="29.66" y="114.84" width="4.92" height="1.18"/>
  <rect class="cls-1" x="29.64" y="131.48" width="4.92" height="1.18"/>
  <path class="cls-2" d="M91.55,63.87c-.48-2.71-.7-5.23-.72-7.51h-9.58c.09,4.04-.24,9.29-1.92,15.22-1.05,3.7-2.39,6.91-3.73,9.56h-6.74v-12.51c-.52-.25-3.9-1.92-4.44-5.24-.14-.77-.09-1.48.05-2.09h0c.05-.27.07-.55.07-.83,0-3.27-2.71-5.93-6.04-5.93s-6.05,2.65-6.05,5.93c0,.29.02.56.08.85h0c.09.52.36,2.46-.81,4.44-1.19,2.01-3.09,2.72-3.58,2.89v12.51h-5.51v-7.49h-2.42v-6.14h-2.46v-4.37h-2c.15,0,.26-.11.26-.25v-3.87c0-.15-.11-.26-.26-.26h-2.31v-2.59c0-.35-.29-.65-.67-.65h-3.12c-.37,0-.67.29-.67.65v2.59h-1.94c-.14,0-.25.11-.25.26v3.87c0,.14.1.25.25.25h-1.94v4.37h-2.53v6.14h-2.15v7.49h-1.71v102.63h79.62v-102.63h.12c-2.59-4.08-5.51-9.92-6.84-17.27h-.05v-.02ZM28.85,68.19h4.59v7.37h-4.59v-7.37ZM25.58,96.45h13.62v15.43h-13.62s0-15.43,0-15.43ZM39.2,175.2h-13.62v-13.36h13.62v13.36ZM39.2,155.33h-13.62v-15.42h13.62v15.42ZM39.43,133.38h-13.85v-15.42h13.85v15.42ZM62.95,133.92h.02v21.07h-8.66v-21.07h.02c.29-1.74,2.11-3.08,4.31-3.08s4.01,1.34,4.31,3.08ZM56.16,68.19h4.59v7.37h-4.59v-7.37ZM54.08,101.42h.02c.29-1.74,2.1-3.08,4.31-3.08s4.02,1.34,4.31,3.08h.02v21.07h-8.66s0-21.07,0-21.07ZM48.09,102.44c-1.01,0-1.84-.81-1.84-1.8s.82-1.8,1.84-1.8,1.83.81,1.83,1.8-.81,1.8-1.83,1.8ZM67.47,175.32h-17.26v-13.02h17.26s0,13.02,0,13.02ZM67.85,102.44c-1.03,0-1.84-.81-1.84-1.8s.81-1.8,1.84-1.8,1.84.81,1.84,1.8-.81,1.8-1.84,1.8ZM92.03,96.23v14.09h-6.27v-14.09s6.27,0,6.27,0ZM92.32,118.68v13.97h-6.26v-13.97h6.26ZM84.25,67.61h4.59v7.37h-4.59v-7.37ZM77.62,96.23h6.26v14.09h-6.26v-14.09ZM77.62,118.68h6.26v13.97h-6.26v-13.97ZM77.9,141.96h6.27v13.2h-6.27v-13.2ZM92.5,175.32h-13.62v-13.36h13.62v13.36ZM92.88,155.17h-6.26v-13.2h6.26v13.2Z"/>
</svg>