<?xml version="1.0" encoding="UTF-8"?>
<svg id="Laag_1" xmlns="http://www.w3.org/2000/svg" width="24.35mm" height="60.49mm" viewBox="0 0 69.02 171.48">
  <defs>
    <style>
      .cls-1 {
        fill: #847a2f;
      }

      .cls-2 {
        fill: #fcf1dd;
      }

      .cls-3 {
        fill: #ca5e00;
      }

      .cls-4 {
        fill: #e98328;
      }

      .cls-5 {
        fill: #df3d53;
      }

      .cls-6 {
        fill: #004345;
      }

      .cls-7 {
        fill: #799987;
      }

      .cls-8 {
        fill: #e6d0bc;
      }

      .cls-9 {
        fill: #982e10;
      }

      .cls-10 {
        fill: #ffead3;
      }

      .cls-11 {
        fill: #a40c2c;
      }

      .cls-12 {
        fill: #af3b0b;
      }

      .cls-13 {
        fill: #9fbaab;
      }

      .cls-14 {
        fill: #5a3a23;
      }

      .cls-15 {
        fill: #9a9145;
      }

      .cls-16 {
        fill: #482915;
      }
    </style>
  </defs>
  <rect class="cls-6" x="1.01" y="25.98" width="67.01" height="84.33"/>
  <rect class="cls-14" x="12.14" y="111.88" width="7.06" height="59.6"/>
  <rect class="cls-14" x="47.22" y="111.88" width="7.06" height="59.6"/>
  <rect class="cls-13" x="13.7" y="50.3" width="3.46" height="21.98"/>
  <rect class="cls-11" x="17.16" y="50.3" width="3.46" height="21.98" rx=".68" ry=".68"/>
  <rect class="cls-12" x="20.62" y="51.4" width="5.06" height="20.87" rx=".68" ry=".68"/>
  <rect class="cls-5" x="17.15" y="52.17" width="3.46" height=".86"/>
  <rect class="cls-5" x="17.15" y="68.72" width="3.46" height=".86"/>
  <rect class="cls-9" x="21.39" y="56.81" width="3.51" height="10.04" rx=".97" ry=".97"/>
  <rect class="cls-9" x="20.62" y="53.02" width="5.06" height="1.71"/>
  <rect class="cls-9" x="20.62" y="69.57" width="5.06" height="1.71"/>
  <rect class="cls-7" x="13.7" y="51.93" width="3.46" height="1.38"/>
  <rect class="cls-7" x="13.7" y="69.48" width="3.46" height="1.38"/>
  <g>
    <rect class="cls-13" x="42.01" y="58.09" width="21.93" height="5.15" rx="1.35" ry="1.35"/>
    <g>
      <path class="cls-15" d="M42.27,66.73v-3.21c0-.16.13-.28.29-.28h18.71c.16,0,.29.13.29.28-.09.45-.16,1-.16,1.62s.07,1.15.16,1.59c0,.02,0,.12-.08.2-.05.05-.13.08-.21.08h-18.71c-.16,0-.29-.13-.29-.28h0Z"/>
      <path class="cls-10" d="M42.27,63.77h18.97c-.06.39-.1.85-.1,1.36,0,.52.04.98.1,1.38h-18.97s0-2.74,0-2.74Z"/>
      <path class="cls-8" d="M42.72,64.16h18.37c-.02.08-.03.16-.04.25,0,.15,0,.28,0,.38-6.11-.05-12.21-.09-18.32-.14v-.49h0Z"/>
      <path class="cls-8" d="M42.72,65.92h18.22c-.02-.08-.03-.16-.04-.25,0-.15,0-.28,0-.38-6.06.05-12.12.09-18.18.14,0,0,0,.49,0,.49Z"/>
    </g>
    <rect class="cls-7" x="61.55" y="58.08" width="1.26" height="5.15"/>
    <rect class="cls-7" x="46.25" y="58.08" width="1.18" height="5.15"/>
    <rect class="cls-7" x="49.14" y="58.92" width="9.57" height="3.35" rx=".97" ry=".97"/>
    <rect class="cls-4" x="41.99" y="66.99" width="21.95" height="4.73" rx="1.35" ry="1.35"/>
    <rect class="cls-3" x="59.72" y="66.99" width="1.22" height="4.73"/>
    <rect class="cls-3" x="45.36" y="67" width="1.15" height="4.71"/>
  </g>
  <g>
    <rect class="cls-15" x="40.9" y="80.25" width="4.39" height="24.92" rx="1.35" ry="1.35"/>
    <path class="cls-13" d="M52.69,105.26l2.79-.87c.35-.1.55-.46.45-.78l-6.68-20.84c-.1-.31-.45-.47-.78-.37l-2.79.87c-.35.1-.55.46-.45.78l6.68,20.84c.1.31.45.47.78.37Z"/>
    <rect class="cls-12" x="60.75" y="82.87" width="4.26" height="22.53" rx="1.06" ry="1.06"/>
    <path class="cls-7" d="M45.67,85.47c1.32-.49,2.63-.99,3.96-1.48-.1-.29-.18-.59-.29-.87-1.32.48-2.64.94-3.97,1.43.1.31.21.62.3.93h0Z"/>
    <path class="cls-4" d="M56.29,105.25h4.12c.2,0,.35-.16.35-.35v-23.3c0-.2-.16-.35-.35-.35-.58.1-1.28.2-2.08.18-.79,0-1.47-.09-2.04-.18-.02,0-.15,0-.25.1-.07.07-.1.16-.1.25v23.3c0,.2.16.35.35.35h0,0Z"/>
    <path class="cls-10" d="M60.06,105.25v-23.63c-.51.08-1.09.13-1.75.13s-1.25-.05-1.77-.13v23.63h3.51Z"/>
    <path class="cls-8" d="M59.59,104.7v-22.89c-.1.02-.21.04-.32.05-.18.02-.35,0-.48,0,.06,7.61.12,15.21.17,22.83h.63Z"/>
    <path class="cls-8" d="M57.3,104.7v-22.71c.1.02.21.04.32.05.18.02.35,0,.48,0-.06,7.56-.12,15.11-.17,22.64h-.63Z"/>
    <rect class="cls-9" x="60.77" y="85.33" width="4.26" height="1.02"/>
    <rect class="cls-9" x="60.75" y="99.73" width="4.26" height="1.02"/>
    <path class="cls-7" d="M51.01,102.16c1.32-.49,2.63-.99,3.96-1.48-.1-.29-.18-.59-.29-.87-1.32.48-2.64.94-3.97,1.43.1.31.21.62.3.93h0Z"/>
    <rect class="cls-1" x="40.9" y="82.58" width="4.39" height="1.71"/>
    <rect class="cls-1" x="41.58" y="87.13" width="3.05" height="10.04" rx=".97" ry=".97"/>
    <rect class="cls-1" x="40.9" y="100.22" width="4.39" height="1.71"/>
  </g>
  <rect class="cls-12" x="13.74" y="84.33" width="3.46" height="21.16"/>
  <rect class="cls-11" x="17.2" y="84.33" width="3.46" height="21.16" rx=".68" ry=".68"/>
  <rect class="cls-5" x="17.2" y="86.13" width="3.46" height=".83"/>
  <rect class="cls-9" x="13.74" y="85.91" width="3.46" height="1.32"/>
  <rect class="cls-9" x="13.74" y="101.17" width="3.46" height="1.32"/>
  <rect class="cls-5" x="17.2" y="102.87" width="3.46" height=".83"/>
  <g>
    <rect class="cls-4" x="26.48" y="81.27" width="4.61" height="24.27" rx=".83" ry=".83"/>
    <path class="cls-11" d="M21.19,105.54h4.83c.23,0,.41-.16.41-.34v-22.6c0-.18-.18-.34-.41-.34-.68.1-1.49.18-2.44.18s-1.73-.08-2.39-.18c-.03,0-.17,0-.29.1-.08.06-.12.15-.12.24v22.6c0,.18.18.34.41.34h0Z"/>
    <path class="cls-10" d="M25.63,105.54v-22.91c-.6.07-1.28.13-2.04.13s-1.47-.05-2.07-.13v22.91h4.11Z"/>
    <path class="cls-8" d="M25.06,105.54v-22.55c-.1.02-.23.04-.38.05-.22.02-.41,0-.56,0,.07,7.5.14,15,.21,22.49h.74,0Z"/>
    <path class="cls-8" d="M22.39,105.38v-22.38c.1.02.23.04.38.05.22.02.41,0,.56,0-.07,7.44-.14,14.88-.21,22.32h-.74,0Z"/>
    <rect class="cls-3" x="26.46" y="84.39" width="4.67" height="1.21"/>
    <rect class="cls-3" x="26.48" y="100.3" width="4.66" height="1.51"/>
    <rect class="cls-3" x="27" y="87.49" width="3.61" height="11.64" rx="1.63" ry="1.63"/>
  </g>
  <rect class="cls-16" x="12.14" y="111.91" width="7.06" height="17.2"/>
  <rect class="cls-16" x="47.27" y="111.91" width="7.06" height="17.2"/>
  <rect class="cls-4" x="5.26" y="84.33" width="4.98" height="21.16"/>
  <rect class="cls-13" x="10.24" y="84.33" width="3.46" height="21.16" rx=".68" ry=".68"/>
  <rect class="cls-7" x="10.24" y="86.13" width="3.46" height=".83"/>
  <rect class="cls-3" x="5.26" y="85.91" width="4.98" height="1.32"/>
  <rect class="cls-3" x="5.14" y="101.17" width="5.09" height="1.32"/>
  <rect class="cls-7" x="10.24" y="102.87" width="3.46" height=".83"/>
  <rect class="cls-15" x="9.47" y="49.74" width="4.26" height="22.53" rx="1.06" ry="1.06"/>
  <path class="cls-4" d="M5,72.12h4.12c.2,0,.35-.16.35-.35v-23.3c0-.2-.16-.35-.35-.35-.58.1-1.28.2-2.08.18-.79,0-1.47-.09-2.04-.18-.02,0-.15,0-.25.1-.07.07-.1.16-.1.25v23.3c0,.2.16.35.35.35h0,0Z"/>
  <path class="cls-10" d="M8.77,72.12v-23.63c-.51.08-1.09.13-1.75.13s-1.25-.05-1.77-.13v23.63h3.51Z"/>
  <path class="cls-8" d="M8.3,71.57v-22.89c-.1.02-.21.04-.32.05-.18.02-.35,0-.48,0,.06,7.61.12,15.21.17,22.83h.63Z"/>
  <path class="cls-8" d="M6.01,71.57v-22.71c.1.02.21.04.32.05.18.02.35,0,.48,0-.06,7.56-.12,15.11-.17,22.64h-.63Z"/>
  <rect class="cls-1" x="9.48" y="52.2" width="4.26" height="1.02"/>
  <rect class="cls-1" x="9.47" y="66.61" width="4.26" height="1.02"/>
  <path class="cls-2" d="M63.05,8.08c-.42-2.35-.61-4.53-.62-6.5h-8.29c.08,3.5-.21,8.04-1.66,13.17-.91,3.2-2.07,5.98-3.23,8.28h-5.83v-10.83c-.45-.22-3.38-1.66-3.84-4.54-.12-.67-.08-1.28.04-1.81h0c.04-.23.06-.48.06-.72,0-2.83-2.35-5.13-5.23-5.13s-5.24,2.29-5.24,5.13c0,.25.02.48.07.74h0c.08.45.31,2.13-.7,3.84-1.03,1.74-2.67,2.35-3.1,2.5v10.83h-4.77v-6.48h-2.09v-5.31h-2.13v-3.78h-1.73c.13,0,.23-.1.23-.22v-3.35c0-.13-.1-.23-.23-.23h-2V1.43c0-.3-.25-.56-.58-.56h-2.7c-.32,0-.58.25-.58.56v2.24h-1.68c-.12,0-.22.1-.22.23v3.35c0,.12.09.22.22.22h-1.68v3.78h-2.19v5.31h-1.86v6.48H0v88.84h68.92V23.04h.1c-2.24-3.53-4.77-8.59-5.92-14.95h-.04v-.02ZM8.78,11.82h3.97v6.38h-3.97v-6.38ZM5.95,36.28h11.79v13.36H5.95s0-13.36,0-13.36ZM17.74,104.45H5.95v-11.56h11.79v11.56ZM17.74,87.25H5.95v-13.35h11.79v13.35ZM17.94,68.25H5.95v-13.35h11.99v13.35ZM38.3,68.71h.02v18.24h-7.5v-18.24h.02c.25-1.51,1.83-2.67,3.73-2.67s3.47,1.16,3.73,2.67ZM32.42,11.82h3.97v6.38h-3.97v-6.38ZM30.62,40.58h.02c.25-1.51,1.82-2.67,3.73-2.67s3.48,1.16,3.73,2.67h.02v18.24h-7.5s0-18.24,0-18.24ZM25.43,41.46c-.87,0-1.59-.7-1.59-1.56s.71-1.56,1.59-1.56,1.58.7,1.58,1.56-.7,1.56-1.58,1.56ZM42.21,104.55h-14.94v-11.27h14.94s0,11.27,0,11.27ZM42.54,41.46c-.89,0-1.59-.7-1.59-1.56s.7-1.56,1.59-1.56,1.59.7,1.59,1.56-.7,1.56-1.59,1.56ZM63.47,36.09v12.2h-5.43v-12.2s5.43,0,5.43,0ZM63.72,55.52v12.09h-5.42v-12.09h5.42ZM56.73,11.31h3.97v6.38h-3.97v-6.38ZM50.99,36.09h5.42v12.2h-5.42v-12.2ZM50.99,55.52h5.42v12.09h-5.42v-12.09ZM51.24,75.67h5.43v11.43h-5.43v-11.43ZM63.87,104.55h-11.79v-11.56h11.79v11.56ZM64.2,87.11h-5.42v-11.43h5.42v11.43Z"/>
</svg>